<svg id="mail" xmlns="http://www.w3.org/2000/svg" viewBox="0 0 54.35 40.8"><defs><style>.cls-1{fill:#481b68;}</style></defs><path class="cls-1" d="M52.23,7.69H8a5.24,5.24,0,0,0-5.13,5.12V43.37A5.24,5.24,0,0,0,8,48.49H52a5.24,5.24,0,0,0,5.13-5.12V12.81A5,5,0,0,0,52.23,7.69ZM54.6,43.55a2.42,2.42,0,0,1-2.37,2.38H8a2.43,2.43,0,0,1-2.38-2.38V12.81A2.43,2.43,0,0,1,8,10.43H52a2.43,2.43,0,0,1,2.38,2.38V43.55Zm-9-25.62L30.27,32.39,14.9,17.93a1.42,1.42,0,1,0-2,2L22,28.55l-7,7a1.43,1.43,0,0,0,0,2,1.39,1.39,0,0,0,.92.37,1.36,1.36,0,0,0,.91-.37l7.14-7.13h0l5.3,4.94a1.43,1.43,0,0,0,.92.36,1.38,1.38,0,0,0,.91-.36l5.31-5.13s0,.19.18.19l7.14,7.13a1.32,1.32,0,0,0,1.83,0,1.43,1.43,0,0,0,0-2L38.5,28.36h-.18l9-8.41a1.46,1.46,0,0,0,0-2A1,1,0,0,0,45.64,17.93Z" transform="translate(-2.82 -7.69)"/></svg>
