<svg id="Слой_1" data-name="Слой 1" xmlns="http://www.w3.org/2000/svg" viewBox="0 0 37.82 45.51"><defs><style>.cls-1{fill:none;stroke:#481b68;stroke-miterlimit:10;stroke-width:2px;}</style></defs><path class="cls-1" d="M33.7,40.24c-.88,1.11-1.77,2.22-2.61,3.21a.48.48,0,0,1-.24.15.67.67,0,0,1-.46,0,.68.68,0,0,1-.29-.21c-.89-1.06-1.72-2.09-2.49-3.06-3.55.4-6.08,1.43-6.08,2.63,0,1.56,4.24,2.82,9.47,2.82s9.48-1.26,9.48-2.82C40.48,41.66,37.62,40.58,33.7,40.24Z" transform="translate(-12.12 -5.61)"/><path class="cls-1" d="M35.88,37.39c-1.51,2-3.22,4.22-4.79,6.06a.48.48,0,0,1-.24.15.67.67,0,0,1-.46,0,.68.68,0,0,1-.29-.21c-1.81-2.17-3.4-4.2-4.69-5.9-7.14.86-12.29,3.29-12.29,6.16,0,3.58,8,6.49,17.91,6.49s17.91-2.91,17.91-6.49C48.94,40.66,43.41,38.16,35.88,37.39Z" transform="translate(-12.12 -5.61)"/><path class="cls-1" d="M44.76,18.75a13.53,13.53,0,0,0-3-7,14.67,14.67,0,0,0-11-5.15h-.17a14.67,14.67,0,0,0-11.15,5.15,13.5,13.5,0,0,0-3,7,14.21,14.21,0,0,0,2,9A28,28,0,0,0,20.65,31c.22.27.43.53.63.81,1.13,1.6,5.35,7.51,8.85,11.62a.44.44,0,0,0,.24.15.62.62,0,0,0,.33,0,.39.39,0,0,0,.15,0,.48.48,0,0,0,.24-.15c3.5-4.11,7.71-10,8.85-11.62.19-.28.4-.54.62-.81a29.24,29.24,0,0,0,2.21-3.26A14.27,14.27,0,0,0,44.76,18.75Z" transform="translate(-12.12 -5.61)"/><ellipse class="cls-1" cx="18.51" cy="14.53" rx="5.92" ry="5.79"/></svg>
