<?xml version="1.0" encoding="utf-8"?>
<!-- Generator: Adobe Illustrator 25.2.3, SVG Export Plug-In . SVG Version: 6.00 Build 0)  -->
<svg version="1.1" id="Слой_1" xmlns="http://www.w3.org/2000/svg" xmlns:xlink="http://www.w3.org/1999/xlink" x="0px" y="0px"
	 viewBox="0 0 30 30" style="enable-background:new 0 0 30 30;" xml:space="preserve">
<style type="text/css">
	.st0{fill:#FFFFFF;}
</style>
<g>
	<path class="st0" d="M25.6,10.8c-1.2-1-3.1-1-3.7-1c-0.1-0.1-0.2-0.3-0.4-0.4c-1.2-1-3.1-1-3.7-1c-0.1-0.1-0.2-0.3-0.4-0.4
		c-0.9-0.8-2.3-1-3.1-1V2.9C14.3,1,13,0,11.6,0c-1.4,0-2.7,1-2.7,2.9v10.9c-0.2-0.3-0.4-0.5-0.6-0.7C6.6,11.7,5,12,4.1,12.9
		c-0.9,0.9-1.1,2.6,0.3,3.9c4.1,4.1,5.9,7.9,5.9,12.5V30h13.6l0-0.6c0,0,0.2-2.4,1-4.5c1-2.5,1.7-6.1,1.7-8.8v-3
		C26.6,12.1,26.3,11.3,25.6,10.8z M25.2,16c0,2.6-0.7,6-1.6,8.3c-0.7,1.7-1,3.4-1.1,4.3h-11C11.4,24,9.5,20,5.3,15.9
		c-0.8-0.8-0.7-1.6-0.2-2c0.4-0.4,1.2-0.6,2.2,0.3c0.9,0.8,1.5,2.3,1.5,3.3h1.4V2.9c0-1.1,0.7-1.5,1.4-1.5c0.7,0,1.4,0.5,1.4,1.5
		v10.7h1.4V8.4c0.7,0,1.7,0.1,2.2,0.6c0.3,0.3,0.5,0.7,0.5,1.2v3.3h1.4v-3.3c0-0.2,0-0.3,0-0.5c0.7,0,1.7,0.1,2.3,0.6
		c0.3,0.3,0.5,0.7,0.5,1.2V15h1.4v-3.3c0-0.2,0-0.3,0-0.5c0.7,0,1.7,0.1,2.3,0.6c0.3,0.3,0.5,0.7,0.5,1.2V16z"/>
</g>
</svg>
