<svg id="Слой_1" data-name="Слой 1" xmlns="http://www.w3.org/2000/svg" viewBox="0 0 149 140"><defs><style>.cls-1{fill:#fff;}</style></defs><path class="cls-1" d="M75.5,5C34.35,5,1,33.51,1,68.67,1,84.49,7.76,99,18.94,110.09A20.52,20.52,0,0,1,25,124.84q0,.51,0,1.08c-.5,11.09-5.92,15.77-4,18.19,3.19,4,19.91-6.78,21-7.49a72.57,72.57,0,0,0,7.46-5.26A6.42,6.42,0,0,1,55.28,130a86.25,86.25,0,0,0,20.22,2.39c41.15,0,74.5-28.51,74.5-63.67S116.65,5,75.5,5ZM40,78.5A11.5,11.5,0,1,1,51.5,67,11.5,11.5,0,0,1,40,78.5Zm35,0A11.5,11.5,0,1,1,86.5,67,11.5,11.5,0,0,1,75,78.5Zm35,0A11.5,11.5,0,1,1,121.5,67,11.5,11.5,0,0,1,110,78.5Z" transform="translate(-1 -5)"/></svg>
