<svg id="WMF_objects" data-name="WMF objects" xmlns="http://www.w3.org/2000/svg" viewBox="0 0 330.75 139.84"><defs><style>.cls-1{fill:#4c266b;fill-rule:evenodd;}</style></defs><polygon class="cls-1" points="213.23 110.96 213.59 111.89 213.71 112.37 213.79 112.86 213.88 113.19 213.88 113.28 213.88 113.34 213.88 113.42 213.88 113.56 213.85 113.76 214.28 113.19 214.73 112.66 215.69 111.64 216.57 110.73 217.34 109.82 217.65 109.34 217.93 108.83 218.19 108.29 218.36 107.72 218.41 107.19 218.39 106.62 218.22 106.08 218.07 105.8 217.9 105.54 217.59 105.2 217.17 104.95 216.69 104.78 216.18 104.66 215.66 104.66 215.21 104.75 214.79 104.92 214.39 105.14 213.94 105.57 213.54 106.05 213.2 106.62 212.97 107.21 212.77 107.81 212.69 108.4 212.66 108.97 212.72 109.48 212.94 110.25 213.23 110.96"/><polygon class="cls-1" points="245.17 108.57 246.02 108.49 246.57 108.47 246.57 107.88 246.31 108.01 245.17 108.57"/><polygon class="cls-1" points="246 110.7 245.6 110.61 245.15 110.56 244.61 110.47 243.47 110.33 242.28 110.19 240.92 111.01 239.62 111.86 237.83 113.08 236.07 114.33 232.7 116.85 229.44 119.37 226.24 121.84 224.62 123.03 222.98 124.19 221.31 125.24 219.63 126.26 217.93 127.25 216.23 128.19 214.53 129.04 212.83 129.83 211.1 130.57 209.4 131.22 207.7 131.85 206 132.36 205.76 132.43 207.25 132.82 209.69 133.53 212.13 134.24 214.45 134.89 216.69 135.45 218.85 135.97 220.92 136.42 222.9 136.81 224.77 137.13 226.59 137.41 228.31 137.64 229.93 137.81 231.49 137.95 232.96 138.03 234.35 138.09 235.66 138.12 236.88 138.12 238.04 138.06 239.09 138.01 240.11 137.95 241.01 137.84 241.86 137.72 242.63 137.61 243.34 137.5 243.96 137.35 244.53 137.21 245.01 137.1 245.44 136.99 245.78 136.87 246.06 136.76 246.29 136.67 246.46 136.62 246.54 136.59 246.57 136.56 246.57 110.81 246.34 110.76 246 110.7"/><polygon class="cls-1" points="195.88 116.45 196.64 117.05 197.07 117.31 197.52 117.53 198.29 117.81 199.05 117.98 199.37 118.01 199.76 117.98 200.67 117.93 201.41 117.87 202.17 117.81 202.97 117.84 203.76 117.93 203.53 117.67 203.28 117.45 202.97 117.25 202.6 117.08 201.94 116.82 201.21 116.65 200.64 116.57 200.1 116.48 198.91 116.28 197.72 116.06 196.56 115.77 195.45 115.35 194.66 114.92 195.2 115.72 195.88 116.45"/><polygon class="cls-1" points="184.82 118.89 184.97 119.09 185.13 119.26 185.33 119.4 185.62 119.52 185.93 119.6 186.24 119.63 186.64 119.57 186.78 119.49 186.86 119.4 186.86 119.32 186.84 119.2 186.67 119.01 186.44 118.81 186.16 118.61 185.84 118.41 185.08 118.07 184.23 117.79 184.54 118.35 184.82 118.89"/><polygon class="cls-1" points="219.66 116.48 219.94 116.03 220.03 115.8 220.09 115.6 220.06 115.41 219.94 115.26 219.86 115.24 219.63 115.26 219.41 115.41 219.21 115.6 219.04 115.8 218.98 116 218.92 116.26 218.9 116.77 218.87 117.28 219.29 116.91 219.66 116.48"/><polygon class="cls-1" points="244.1 103.3 242.79 103.87 241.57 104.44 240.47 105 239.42 105.54 238.48 106.08 237.63 106.56 236.9 107.02 236.24 107.44 235.71 107.78 235.25 108.09 234.91 108.32 234.71 108.46 234.6 108.55 232.79 110.16 231 111.81 227.57 115.15 225.42 117.25 223.2 119.35 220.91 121.39 218.5 123.37 217.17 124.39 215.78 125.33 214.39 126.23 212.97 127.08 211.53 127.91 210.05 128.64 208.55 129.35 207.05 130 205.52 130.6 203.96 131.14 202.4 131.65 202.4 131.65 202.58 131.68 203.42 131.87 203.82 131.76 205.43 131.25 207.05 130.71 208.66 130.12 210.31 129.44 211.98 128.7 213.62 127.91 215.27 127.06 216.91 126.15 218.53 125.19 220.14 124.19 221.76 123.12 223.35 121.98 224.93 120.82 228.11 118.38 231.37 115.83 233.04 114.56 234.77 113.28 236.56 112 238.37 110.76 239.05 110.3 238.94 110.36 238.99 110.33 239.16 110.25 240.89 109.17 242.68 108.12 244.52 107.13 246.45 106.19 246.57 106.14 246.57 102.3 245.46 102.73 244.1 103.3"/><polygon class="cls-1" points="246.57 100.97 246.57 100.9 245.97 101.18 246.57 100.97"/><polygon class="cls-1" points="201.66 95.99 202.17 95.96 202.63 95.88 202.99 95.79 203.42 95.59 203.79 95.34 203.9 95.19 204.01 95.05 204.04 94.91 204.04 94.8 203.99 94.69 203.87 94.63 203.65 94.57 203.36 94.57 202.94 94.63 202.51 94.77 201.66 95.11 200.84 95.59 200.13 96.1 201.12 96.02 201.66 95.99"/><polygon class="cls-1" points="177.34 130.34 176.57 129.81 175.89 129.24 175.27 128.7 174.73 128.13 174.28 127.57 173.88 127.03 173.51 126.49 173.23 125.95 172.97 125.44 172.78 124.93 172.46 123.91 172.29 122.92 172.21 122.07 172.24 121.3 172.29 120.65 172.35 120.17 172.41 119.97 172.44 119.83 172.46 119.74 172.46 119.69 172.89 118.72 173.37 117.84 173.91 117.08 174.5 116.4 175.16 115.8 175.87 115.32 176.57 114.9 177.31 114.53 178.05 114.24 178.79 114.02 179.52 113.88 180.23 113.76 180.91 113.68 181.56 113.68 182.16 113.68 182.7 113.73 183.52 113.76 184.31 113.88 185.08 114.02 185.82 114.24 186.52 114.5 187.18 114.81 187.8 115.18 188.4 115.6 188.91 116.03 189.36 116.51 189.78 117.02 190.12 117.59 190.38 118.16 190.58 118.75 190.72 119.37 190.75 120 190.72 120.59 190.66 121.22 190.52 121.87 190.29 122.52 189.98 123.17 189.59 123.77 189.05 124.33 188.4 124.82 187.94 125.07 187.43 125.3 186.38 125.67 185.28 125.89 184.12 125.95 182.98 125.89 181.85 125.7 180.8 125.36 180.29 125.13 179.81 124.87 179.32 124.56 178.87 124.19 178.5 123.83 178.16 123.43 177.91 123 177.68 122.58 177.54 122.12 177.45 121.67 177.43 121.1 177.48 120.54 177.62 120 177.82 119.49 178.1 119.01 178.44 118.55 178.84 118.16 179.32 117.79 179.78 117.53 180.26 117.33 180.8 117.16 181.31 117.05 182.13 116.97 183.01 116.97 183.94 117.05 184.82 117.25 185.7 117.53 186.47 117.9 186.78 118.13 187.09 118.38 187.35 118.64 187.57 118.92 187.69 119.26 187.69 119.43 187.66 119.57 187.57 119.74 187.43 119.89 187.23 120.03 187.01 120.14 186.64 120.25 186.24 120.28 185.65 120.22 185.11 120.06 184.63 119.74 184.43 119.57 184.28 119.37 183.97 118.84 183.75 118.58 183.46 118.35 183.09 118.21 182.7 118.16 182.3 118.16 181.88 118.18 181.45 118.24 181.08 118.35 180.71 118.5 180.37 118.69 180.03 118.95 179.75 119.26 179.49 119.6 179.3 119.94 179.13 120.34 179.04 120.73 179.01 121.16 179.01 121.58 179.07 121.9 179.18 122.24 179.35 122.55 179.55 122.83 179.78 123.14 180.06 123.43 180.37 123.68 180.74 123.91 181.51 124.28 182.33 124.53 183.21 124.7 184.09 124.76 184.99 124.67 185.84 124.53 186.67 124.25 187.4 123.88 187.91 123.51 188.31 123.06 188.62 122.58 188.85 122.07 189.02 121.56 189.1 121.02 189.16 120.48 189.19 120 189.16 119.49 189.05 118.98 188.91 118.5 188.68 118.04 188.4 117.59 188.06 117.19 187.69 116.8 187.26 116.43 186.81 116.11 186.3 115.8 185.76 115.58 185.16 115.35 184.57 115.18 183.94 115.07 183.29 114.98 182.61 114.95 182.5 114.92 182.39 114.92 182.13 114.9 181.79 114.9 181.34 114.9 180.83 114.92 180.23 114.98 179.61 115.09 178.93 115.26 178.22 115.52 177.54 115.83 176.83 116.23 176.15 116.74 175.53 117.36 174.93 118.1 174.42 118.98 174.16 119.46 173.97 120 173.97 120.06 173.94 120.14 173.85 120.45 173.8 120.93 173.74 121.5 173.77 122.21 173.82 123 174.02 123.85 174.34 124.79 174.53 125.27 174.79 125.75 175.07 126.23 175.41 126.72 175.81 127.23 176.26 127.71 176.75 128.19 177.31 128.67 177.94 129.15 178.64 129.61 179.41 130.06 180.23 130.51 180.76 130.76 182.11 130.55 183.58 130.38 185.14 130.27 186.79 130.18 188.52 130.15 190.3 130.15 192.17 130.24 194.1 130.38 196.11 130.61 198.04 130.87 199.03 130.51 200.24 129.98 201.41 129.44 202.51 128.81 203.56 128.19 204.58 127.48 205.52 126.75 206.42 125.95 207.27 125.13 208.07 124.25 208.83 123.34 209.51 122.38 210.16 121.36 210.59 120.62 210.99 119.89 211.33 119.15 211.61 118.47 211.87 117.79 212.09 117.14 212.26 116.54 212.43 115.97 212.55 115.43 212.66 114.95 212.75 114.53 212.8 114.13 212.83 113.82 212.86 113.56 212.89 113.39 212.89 113.28 212.69 112.49 212.46 111.72 211.92 110.5 211.53 109.79 211.07 109.11 210.62 108.52 210.11 107.95 209.57 107.44 209 106.96 208.44 106.53 207.87 106.17 206.68 105.51 205.52 105.03 204.38 104.66 203.33 104.38 202.77 104.38 202.09 104.44 200.61 104.61 199.93 104.72 199.31 104.8 199.08 104.83 198.85 104.89 198.71 104.89 198.6 104.92 197.1 105.2 196.64 105.51 196.13 105.91 195.62 106.33 195.14 106.79 194.66 107.33 194.21 107.89 193.84 108.49 193.53 109.14 193.67 109.42 193.87 109.68 194.12 109.91 194.4 110.11 194.69 110.25 195.03 110.36 195.71 110.5 196.44 110.59 197.98 110.61 198.71 110.67 199.39 110.81 200.04 111.04 200.7 111.3 201.26 111.64 201.8 111.98 202.26 112.4 202.63 112.86 202.94 113.36 203.13 113.9 203.05 113.76 202.88 113.65 202.63 113.56 202.34 113.48 201.97 113.42 201.58 113.39 200.7 113.34 199.79 113.28 198.97 113.28 198.6 113.28 198.29 113.28 198.03 113.25 197.86 113.25 197.3 113.17 196.73 113.03 196.16 112.86 195.62 112.63 195.14 112.34 194.66 112.06 194.26 111.72 193.89 111.35 194.01 111.64 194.09 111.81 194.32 112.2 194.57 112.54 195.11 113.17 195.76 113.65 196.47 114.02 197.04 114.24 197.64 114.41 198.88 114.73 200.24 114.92 201.63 115.15 202.68 115.38 203.62 115.72 204.27 116.06 204.84 116.48 205.35 116.94 205.77 117.5 206.03 117.96 206.17 118.41 206.25 118.89 206.28 119.37 206.25 119.89 206.17 120.37 205.88 121.33 205.57 120.93 205.23 120.54 204.84 120.17 204.38 119.83 204.24 119.72 204.04 119.63 203.45 119.46 202.79 119.37 202.12 119.37 201.41 119.4 199.96 119.52 199.28 119.55 198.66 119.49 198.09 119.37 197.55 119.23 196.53 118.86 195.99 118.61 195.48 118.33 195.03 118.01 194.6 117.67 193.87 116.97 193.27 116.2 192.82 115.35 192.45 114.47 192.22 113.53 192.08 112.6 192.05 111.61 192.14 110.64 192.34 109.74 192.68 108.83 193.13 107.98 193.7 107.13 194.38 106.33 195.17 105.57 194.86 105.66 193.24 105.91 191.6 106.08 190.78 106.14 189.95 106.11 189.16 106.05 188.34 105.91 187.63 105.71 186.95 105.46 186.3 105.12 185.7 104.75 185.13 104.29 184.65 103.81 184.26 103.3 183.97 102.76 183.8 102.28 183.72 101.8 183.66 101.29 183.69 100.81 183.83 100.41 183.92 100.18 183.94 99.98 184 100.55 184.14 101.15 184.37 101.72 184.68 102.22 185.05 102.62 185.47 102.96 185.93 103.19 186.44 103.33 186.98 103.44 187.54 103.47 188.14 103.44 188.76 103.39 189.98 103.19 191.2 102.93 192.36 102.68 192.9 102.59 193.38 102.51 194.29 102.42 195.23 102.37 196.16 102.37 197.13 102.42 196.3 101.97 195.57 101.52 194.91 101.06 194.35 100.61 193.87 100.13 193.47 99.67 193.13 99.19 192.84 98.74 192.65 98.28 192.5 97.83 192.42 97.38 192.39 96.95 192.39 96.53 192.45 96.1 192.65 95.31 192.96 94.54 193.36 93.86 193.78 93.27 194.21 92.73 194.6 92.3 194.91 91.99 195.06 91.88 195.14 91.79 195.2 91.77 195.23 91.74 195.65 92.11 195.99 92.5 196.28 92.96 196.47 93.47 196.62 93.95 196.7 94.46 196.73 94.97 196.73 95.45 196.64 95.93 196.5 96.41 196.1 97.38 195.94 97.83 195.79 98.31 195.71 98.8 195.74 99.28 195.94 99.93 196.25 100.52 196.64 101.09 197.13 101.63 198.03 102.51 199.28 102.68 200.53 102.91 201.75 103.19 202.91 103.5 203.65 103.67 204.44 103.87 205.29 104.12 206.2 104.46 207.1 104.83 208.01 105.31 208.92 105.85 209.8 106.5 209.57 105.94 209.46 105.34 208.69 104.86 207.9 104.41 207.05 104.01 206.17 103.61 205.26 103.27 204.27 102.93 203.28 102.65 202.2 102.37 200.9 102.03 199.65 101.57 199.17 101.32 198.71 101.06 198.29 100.75 197.95 100.38 197.61 99.9 197.41 99.36 197.32 98.8 197.35 98.23 197.49 97.75 197.75 97.26 198.09 96.78 198.49 96.3 198.97 95.85 199.51 95.42 200.07 95.03 200.67 94.66 201.29 94.34 201.94 94.12 202.57 93.92 203.19 93.81 203.82 93.81 204.1 93.86 204.38 93.95 204.61 94.06 204.78 94.23 204.92 94.4 205.01 94.63 205.06 94.91 205.01 95.22 204.86 95.51 204.64 95.76 204.35 95.99 204.04 96.19 203.73 96.36 203.39 96.5 202.94 96.61 202.43 96.7 201.32 96.81 200.19 96.9 199.62 96.95 199.11 97.07 198.83 97.35 198.6 97.69 198.46 98.06 198.34 98.43 198.32 98.82 198.37 99.19 198.51 99.59 198.77 99.96 199.08 100.27 199.48 100.52 199.9 100.78 200.36 100.98 201.41 101.35 202.51 101.63 203.53 101.89 204.5 102.17 205.4 102.48 206.31 102.79 207.16 103.16 207.98 103.53 209.51 104.38 209.68 103.84 209.94 103.36 210.28 102.85 210.7 102.39 211.24 101.94 211.84 101.57 212.43 101.26 213.03 101.01 213.65 100.81 214.28 100.69 214.9 100.67 215.52 100.69 216.12 100.78 216.71 100.92 217.28 101.15 217.82 101.43 218.33 101.8 218.81 102.2 219.26 102.71 219.66 103.25 219.86 103.64 220 104.07 220.14 104.86 220.2 105.68 220.28 106.08 220.43 106.48 220.23 106.05 219.94 105.63 219.63 105.23 219.24 104.83 218.84 104.46 218.39 104.12 217.9 103.84 217.39 103.58 216.88 103.42 216.34 103.27 215.78 103.22 215.24 103.22 214.67 103.33 214.13 103.5 213.62 103.78 213.11 104.18 212.83 104.44 212.63 104.75 212.46 105.06 212.32 105.37 212.15 106.05 212.09 106.76 212.38 106.14 212.75 105.57 213.17 105.06 213.68 104.61 214.25 104.27 214.9 104.01 215.58 103.9 216.29 103.9 217.03 104.04 217.71 104.32 218.3 104.69 218.78 105.14 219.01 105.46 219.18 105.77 219.29 106.11 219.38 106.42 219.43 107.1 219.35 107.75 219.15 108.4 218.9 109.06 218.58 109.65 218.22 110.19 217.82 110.7 217.39 111.18 216.49 112.12 215.72 112.91 215.04 113.68 214.76 114.1 214.5 114.53 214.3 114.95 214.16 115.41 214.1 115.83 214.13 116.26 214.22 116.68 214.39 117.08 214.64 117.45 214.96 117.76 215.35 118.01 215.81 118.16 216.43 118.21 217.08 118.13 217.37 118.01 217.65 117.9 217.88 117.73 218.07 117.53 218.19 117.31 218.24 117.08 218.3 116.6 218.3 116.11 218.36 115.86 218.44 115.63 218.67 115.29 219.04 114.98 219.49 114.78 219.75 114.75 220 114.75 220.14 114.78 220.28 114.84 220.51 114.98 220.65 115.18 220.74 115.41 220.74 115.66 220.65 115.97 220.54 116.31 220.37 116.63 220.14 116.94 219.6 117.53 218.92 118.1 218.16 118.52 217.31 118.84 216.88 118.92 216.43 118.95 215.98 118.95 215.55 118.89 214.9 118.69 214.3 118.35 213.85 117.9 213.48 117.36 213.23 116.8 212.89 117.9 212.43 119.09 211.84 120.34 211.1 121.67 210.34 122.86 209.43 124.08 208.89 124.67 208.32 125.3 207.7 125.92 207.05 126.55 206.34 127.17 205.57 127.77 204.75 128.36 203.9 128.96 202.97 129.49 202 130.03 200.95 130.57 199.85 131.05 202.2 130.4 204.5 129.64 206.76 128.76 209 127.74 211.19 126.6 213.31 125.36 215.35 124 217.37 122.52 218.58 121.56 219.75 120.56 222.01 118.55 224.2 116.45 226.32 114.39 228.05 112.71 229.81 111.04 231.59 109.37 233.47 107.72 235.85 105.83 238.34 104.07 240.92 102.42 243.59 100.92 246.39 99.56 246.57 99.48 246.57 60.28 246.54 60.28 246.46 60.34 246.29 60.39 246.06 60.48 245.78 60.59 245.44 60.68 245.01 60.82 244.53 60.93 243.99 61.07 243.37 61.19 242.66 61.33 241.89 61.44 241.07 61.55 240.16 61.64 239.17 61.73 238.09 61.78 236.96 61.81 235.74 61.81 234.44 61.78 233.05 61.73 231.6 61.64 230.04 61.5 228.43 61.33 226.7 61.1 224.91 60.82 223.01 60.51 221.06 60.11 218.99 59.66 216.83 59.17 214.59 58.58 212.27 57.93 209.83 57.22 207.4 56.51 205.01 55.89 202.72 55.38 200.51 54.92 198.32 54.58 196.25 54.3 194.24 54.07 192.29 53.93 190.41 53.87 188.63 53.84 186.9 53.87 185.26 53.96 183.7 54.07 182.19 54.24 180.78 54.47 179.44 54.7 178.17 54.98 176.98 55.26 175.87 55.57 174.85 55.89 173.92 56.23 173.04 56.57 172.25 56.94 171.54 57.27 170.91 57.62 170.37 57.93 169.89 58.24 169.52 58.55 169.21 58.81 169.01 59.06 168.9 59.26 168.84 59.43 168.84 72.39 169.28 72.81 170.24 73.83 171.12 74.91 171.66 75.73 172.06 76.58 172.37 77.46 172.57 78.34 172.68 79.22 172.68 80.13 172.59 81.01 172.4 81.88 172.11 82.76 171.72 83.61 171.23 84.44 170.67 85.23 170.01 85.97 169.28 86.67 168.84 87.01 168.84 88.86 169.45 88.99 170.55 89.33 171.69 89.72 172.85 90.23 172.94 90.01 173.08 89.72 173.25 89.38 173.45 89.02 173.7 88.65 174.01 88.25 174.38 87.82 174.78 87.43 175.23 87.06 175.77 86.69 176.34 86.35 176.99 86.07 177.73 85.84 178.52 85.64 179.4 85.56 180.33 85.53 181.16 85.58 181.55 85.67 181.92 85.78 182.23 85.92 182.54 86.12 182.8 86.38 183 86.66 183.14 86.97 183.22 87.31 183.22 87.65 183.2 88.02 183.06 88.33 182.86 88.65 182.57 88.93 182.21 89.13 181.72 89.3 181.21 89.36 180.7 89.36 180.16 89.33 179.09 89.24 178.55 89.21 178.04 89.24 177.1 89.44 176.28 89.78 175.54 90.23 174.92 90.8 174.69 91.2 176.03 92.05 176.71 92.53 177.39 93.07 177.36 93.07 177.27 93.07 177.1 93.07 176.9 93.1 176.65 93.13 176.37 93.18 176.03 93.27 175.66 93.35 175.26 93.49 174.84 93.64 174.35 93.86 173.9 94.09 173.39 94.4 172.88 94.74 172.37 95.14 171.86 95.59 171.35 96.1 170.84 96.7 170.33 97.35 169.82 98.09 169.36 98.88 168.88 99.79 168.84 99.87 168.84 135.54 168.84 135.74 168.87 135.57 169.01 135.37 169.21 135.11 169.52 134.86 169.89 134.58 170.35 134.26 170.88 133.92 171.51 133.58 172.22 133.24 172.98 132.9 173.86 132.56 174.8 132.22 175.82 131.88 176.92 131.57 178.11 131.29 178.67 131.16 178.16 130.88 177.34 130.34"/><polygon class="cls-1" points="123.05 131.76 121.35 131.14 119.65 130.48 117.92 129.75 116.19 128.95 114.49 128.1 112.79 127.17 111.12 126.18 109.45 125.16 107.77 124.11 106.13 122.94 104.51 121.75 101.31 119.29 98.05 116.77 94.68 114.24 92.92 113 91.13 111.78 89.83 110.92 88.47 110.1 87.28 110.25 86.14 110.39 86.07 110.4 86.07 136.56 86.1 136.59 86.18 136.62 86.32 136.67 86.52 136.76 86.81 136.87 87.12 136.99 87.51 137.1 87.97 137.21 88.48 137.35 89.07 137.5 89.72 137.61 90.46 137.72 91.25 137.84 92.13 137.95 93.1 138.01 94.12 138.06 95.22 138.12 96.42 138.12 97.66 138.09 99.02 138.03 100.44 137.95 101.94 137.81 103.53 137.64 105.23 137.41 106.99 137.13 108.86 136.81 110.81 136.42 112.86 135.97 114.98 135.45 117.22 134.89 119.55 134.24 121.98 133.53 124.42 132.82 125.58 132.51 124.75 132.27 123.05 131.76"/><polygon class="cls-1" points="126.77 131.05 125.23 130.51 123.7 129.92 122.17 129.26 120.7 128.56 119.22 127.82 117.78 127 116.36 126.15 114.97 125.24 113.58 124.31 112.25 123.28 109.84 121.3 107.55 119.26 105.34 117.16 103.18 115.06 101.48 113.39 99.75 111.72 97.97 110.08 96.12 108.46 96.01 108.37 95.81 108.23 95.47 108.01 95.02 107.69 94.48 107.35 93.83 106.93 93.09 106.47 92.24 105.99 91.3 105.45 90.28 104.92 89.15 104.35 87.96 103.78 86.66 103.22 86.07 102.97 86.07 106.96 86.23 107.04 88.07 108.03 89.86 109.08 91.59 110.16 91.76 110.25 91.81 110.27 91.67 110.22 92.38 110.67 94.22 111.92 95.98 113.19 97.71 114.47 99.38 115.74 102.64 118.3 105.82 120.73 107.41 121.89 108.99 123.03 110.61 124.11 112.22 125.1 113.84 126.06 115.48 126.97 117.13 127.82 118.77 128.61 120.42 129.35 122.09 130.03 123.7 130.63 125.32 131.16 126.94 131.68 127.91 131.94 128.91 131.72 128.32 131.56 126.77 131.05"/><polygon class="cls-1" points="116.02 112.57 116.48 113.11 116.9 113.67 116.87 113.48 116.87 113.33 116.87 113.25 116.87 113.19 116.87 113.11 116.96 112.77 117.04 112.29 117.16 111.8 117.53 110.87 117.81 110.16 118.03 109.39 118.09 108.88 118.06 108.32 117.98 107.72 117.81 107.13 117.55 106.53 117.21 105.97 116.82 105.48 116.36 105.06 115.97 104.83 115.54 104.66 115.21 104.6 115.21 111.71 116.02 112.57"/><polygon class="cls-1" points="161.34 98.88 160.89 98.09 160.38 97.35 159.87 96.7 159.36 96.1 158.85 95.59 158.34 95.14 157.83 94.74 157.32 94.4 156.81 94.09 156.35 93.86 155.87 93.64 155.45 93.49 155.05 93.35 154.68 93.27 154.34 93.18 154.06 93.13 153.8 93.1 153.6 93.07 153.43 93.07 153.35 93.07 153.32 93.07 153.38 93.01 153.49 92.9 153.72 92.7 154 92.47 154.37 92.16 154.82 91.82 155.36 91.45 155.96 91.08 155.79 90.8 155.16 90.23 154.43 89.78 153.6 89.44 152.67 89.24 152.16 89.21 151.62 89.24 150.54 89.33 150 89.36 149.49 89.36 148.98 89.3 148.5 89.13 148.13 88.93 147.85 88.65 147.65 88.33 147.54 88.02 147.48 87.65 147.51 87.31 147.56 86.97 147.71 86.66 147.91 86.38 148.16 86.12 148.47 85.92 148.78 85.78 149.15 85.67 149.55 85.58 150.37 85.53 151.28 85.56 152.13 85.64 152.9 85.81 153.6 86.04 154.25 86.32 154.82 86.63 155.33 86.97 155.81 87.34 156.21 87.71 156.58 88.11 156.89 88.5 157.15 88.87 157.37 89.24 157.54 89.58 157.69 89.86 157.8 90.12 158.48 89.81 159.19 89.53 159.95 89.27 160.75 89.04 161.6 88.82 161.87 88.77 161.87 87.03 161.4 86.67 160.66 85.97 160.01 85.23 159.44 84.44 158.96 83.61 158.59 82.76 158.31 81.88 158.11 81.01 158.03 80.13 158.03 79.22 158.11 78.34 158.34 77.46 158.65 76.58 159.04 75.73 159.58 74.91 160.46 73.83 161.4 72.81 161.87 72.35 161.87 59.43 161.84 59.26 161.72 59.06 161.53 58.81 161.27 58.55 160.96 58.24 160.53 57.93 160.05 57.62 159.51 57.27 158.89 56.94 158.18 56.57 157.39 56.23 156.54 55.89 155.6 55.57 154.58 55.26 153.5 54.98 152.34 54.7 151.09 54.47 149.79 54.24 148.37 54.07 146.9 53.96 145.37 53.87 143.72 53.84 142.02 53.87 140.21 53.93 138.34 54.07 136.41 54.3 134.37 54.58 132.24 54.92 130.06 55.38 127.79 55.89 125.44 56.51 123 57.22 122.78 57.3 122.58 57.36 122.35 57.53 122.27 57.67 122.27 57.81 122.41 58.07 122.47 58.18 122.44 58.32 122.32 58.44 122.21 58.49 122.07 58.55 121.87 58.61 121.64 58.69 121.33 58.75 120.96 58.81 120.54 58.86 120.03 58.95 119.43 59 118.78 59.06 118.04 59.15 117.19 59.2 116.26 59.26 115.21 59.34 115.21 100.61 115.23 100.61 115.85 100.58 116.48 100.61 117.1 100.72 117.72 100.92 118.32 101.17 118.91 101.49 119.51 101.85 120.05 102.31 120.47 102.76 120.81 103.27 121.07 103.75 121.24 104.29 122.77 103.44 123.59 103.07 124.44 102.7 125.35 102.39 126.25 102.08 127.22 101.8 128.24 101.54 129.34 101.26 130.37 100.89 130.85 100.69 131.27 100.44 131.67 100.18 131.98 99.87 132.24 99.5 132.38 99.11 132.44 98.74 132.41 98.34 132.29 97.97 132.15 97.6 131.93 97.26 131.64 96.98 131.13 96.86 130.56 96.81 129.43 96.72 128.32 96.61 127.81 96.53 127.36 96.41 127.02 96.27 126.71 96.1 126.4 95.9 126.11 95.67 125.89 95.42 125.75 95.14 125.69 94.82 125.72 94.54 125.83 94.31 125.97 94.14 126.14 93.97 126.37 93.86 126.65 93.78 126.94 93.72 127.56 93.72 128.18 93.83 128.84 94.03 129.46 94.26 130.08 94.57 130.68 94.94 131.27 95.33 131.78 95.76 132.26 96.21 132.66 96.69 133 97.18 133.23 97.66 133.4 98.14 133.46 98.71 133.37 99.28 133.14 99.81 132.8 100.3 132.46 100.66 132.04 100.98 131.58 101.23 131.1 101.49 129.85 101.94 128.55 102.28 127.47 102.56 126.48 102.85 125.49 103.19 124.58 103.53 123.7 103.92 122.85 104.32 122.06 104.77 121.3 105.26 121.18 105.85 120.95 106.42 121.83 105.77 122.74 105.23 123.65 104.75 124.58 104.38 125.46 104.04 126.31 103.78 127.11 103.58 127.84 103.41 129 103.1 130.22 102.82 131.47 102.59 132.72 102.42 133.63 101.54 134.08 101 134.5 100.44 134.82 99.84 135.01 99.19 135.04 98.71 134.96 98.23 134.82 97.74 134.62 97.29 134.22 96.33 134.08 95.84 134.02 95.36 134.02 94.88 134.05 94.37 134.14 93.86 134.28 93.38 134.48 92.87 134.76 92.42 135.1 92.02 135.53 91.65 135.55 91.68 135.61 91.71 135.69 91.79 135.84 91.91 136.15 92.22 136.54 92.64 136.97 93.18 137.4 93.78 137.79 94.46 138.1 95.22 138.3 96.02 138.36 96.44 138.36 96.86 138.33 97.29 138.25 97.74 138.1 98.2 137.91 98.65 137.62 99.11 137.28 99.59 136.88 100.04 136.4 100.52 135.84 100.98 135.18 101.43 134.45 101.88 133.63 102.34 134.56 102.28 135.5 102.28 136.43 102.34 137.37 102.42 137.85 102.51 138.39 102.59 139.52 102.85 140.74 103.1 141.99 103.3 142.58 103.36 143.18 103.39 143.77 103.36 144.31 103.24 144.82 103.1 145.28 102.88 145.7 102.53 146.07 102.14 146.38 101.63 146.61 101.06 146.75 100.47 146.81 99.9 146.84 100.1 146.92 100.32 146.98 100.52 147.03 100.72 147.09 101.2 147.03 101.71 146.92 102.19 146.75 102.68 146.47 103.22 146.1 103.72 145.62 104.21 145.05 104.66 144.45 105.03 143.8 105.37 143.12 105.62 142.41 105.82 141.59 105.97 140.8 106.02 139.97 106.05 139.15 105.99 137.51 105.82 135.89 105.57 135.58 105.48 136.38 106.25 137.06 107.04 137.62 107.89 138.08 108.74 138.42 109.65 138.61 110.56 138.7 111.52 138.67 112.51 138.53 113.45 138.3 114.38 137.93 115.26 137.48 116.11 136.88 116.88 136.15 117.59 135.72 117.93 135.27 118.24 134.76 118.52 134.22 118.78 133.2 119.15 132.66 119.29 132.09 119.4 131.47 119.46 130.79 119.43 129.34 119.32 128.64 119.29 127.96 119.29 127.3 119.37 126.71 119.54 126.34 119.74 125.92 120.08 125.52 120.45 124.84 121.24 124.58 120.28 124.5 119.8 124.47 119.29 124.5 118.81 124.58 118.32 124.72 117.87 124.98 117.42 125.41 116.85 125.92 116.4 126.48 115.97 127.13 115.63 128.1 115.29 129.12 115.06 130.51 114.84 131.87 114.64 133.12 114.33 133.71 114.16 134.28 113.93 134.99 113.56 135.64 113.08 136.18 112.46 136.43 112.12 136.66 111.72 136.74 111.55 136.86 111.27 136.49 111.63 136.09 111.97 135.61 112.26 135.13 112.54 134.59 112.77 134.02 112.94 133.46 113.08 132.89 113.17 132.72 113.17 132.46 113.19 132.15 113.19 131.78 113.19 130.96 113.19 130.05 113.25 129.18 113.31 128.78 113.33 128.44 113.39 128.13 113.48 127.87 113.56 127.7 113.67 127.62 113.82 127.81 113.28 128.13 112.77 128.5 112.31 128.95 111.89 129.49 111.55 130.05 111.21 130.71 110.95 131.36 110.73 132.04 110.58 132.78 110.53 134.31 110.5 135.04 110.42 135.72 110.27 136.06 110.16 136.35 110.02 136.63 109.82 136.88 109.59 137.08 109.34 137.22 109.05 136.91 108.4 136.52 107.81 136.09 107.24 135.61 106.7 135.1 106.25 134.62 105.82 134.11 105.43 133.65 105.11 132.15 104.83 132.04 104.8 131.9 104.8 131.67 104.75 131.44 104.72 130.82 104.63 130.14 104.52 128.66 104.35 127.98 104.29 127.42 104.29 126.37 104.58 125.23 104.94 124.07 105.43 122.88 106.08 122.31 106.45 121.72 106.87 121.18 107.35 120.64 107.86 120.13 108.43 119.65 109.03 119.2 109.71 118.8 110.42 118.55 111.01 118.29 111.63 118.06 112.4 117.86 113.19 117.86 113.31 117.89 113.48 117.92 113.73 117.95 114.04 118.01 114.44 118.09 114.86 118.2 115.35 118.32 115.89 118.49 116.45 118.66 117.05 118.89 117.7 119.14 118.38 119.42 119.06 119.76 119.8 120.16 120.53 120.59 121.27 121.24 122.29 121.92 123.26 122.68 124.16 123.48 125.04 124.33 125.86 125.23 126.66 126.17 127.39 127.19 128.1 128.24 128.73 129.34 129.35 130.51 129.89 131.73 130.43 132.97 130.88 133.14 130.93 133.41 130.89 135.48 130.61 137.43 130.38 139.36 130.24 141.17 130.15 142.93 130.15 144.6 130.18 146.19 130.27 147.72 130.38 149.17 130.55 149.97 130.68 150.52 130.43 151.37 129.97 152.14 129.52 152.82 129.07 153.44 128.59 154.01 128.1 154.52 127.62 154.97 127.14 155.34 126.63 155.68 126.15 155.99 125.67 156.25 125.18 156.44 124.7 156.76 123.77 156.93 122.92 157.01 122.12 157.01 121.41 156.95 120.85 156.9 120.36 156.81 120.05 156.78 119.97 156.78 119.91 156.59 119.37 156.33 118.89 155.82 118.01 155.22 117.28 154.6 116.65 153.92 116.14 153.21 115.74 152.5 115.43 151.82 115.18 151.14 115.01 150.49 114.89 149.93 114.84 149.39 114.81 148.96 114.81 148.59 114.81 148.37 114.84 148.25 114.84 148.14 114.86 147.46 114.89 146.81 114.98 146.18 115.09 145.59 115.26 144.99 115.49 144.45 115.72 143.94 116.03 143.49 116.34 143.06 116.71 142.7 117.11 142.36 117.5 142.07 117.95 141.85 118.41 141.7 118.89 141.59 119.4 141.56 119.91 141.59 120.39 141.65 120.93 141.73 121.47 141.9 121.98 142.13 122.49 142.44 122.97 142.84 123.43 143.35 123.8 144.09 124.16 144.91 124.45 145.76 124.59 146.66 124.67 147.54 124.62 148.42 124.45 149.24 124.19 150.01 123.82 150.38 123.6 150.69 123.34 150.97 123.06 151.2 122.75 151.4 122.46 151.57 122.15 151.68 121.81 151.74 121.5 151.74 121.07 151.71 120.65 151.63 120.25 151.46 119.85 151.26 119.51 151 119.17 150.72 118.89 150.38 118.64 150.04 118.44 149.67 118.27 149.3 118.15 148.88 118.1 148.45 118.07 148.03 118.07 147.63 118.13 147.26 118.27 146.98 118.49 146.78 118.75 146.47 119.29 146.32 119.49 146.13 119.66 145.67 119.97 145.11 120.14 144.51 120.19 144.11 120.17 143.75 120.05 143.52 119.94 143.32 119.8 143.18 119.66 143.09 119.49 143.06 119.34 143.06 119.17 143.18 118.83 143.38 118.55 143.66 118.3 143.94 118.04 144.28 117.81 145.05 117.44 145.9 117.16 146.81 116.96 147.71 116.88 148.62 116.88 149.44 116.96 149.95 117.08 150.49 117.25 150.97 117.44 151.43 117.7 151.91 118.07 152.31 118.47 152.65 118.92 152.93 119.4 153.13 119.91 153.24 120.45 153.33 121.02 153.3 121.58 153.21 122.04 153.07 122.49 152.84 122.92 152.59 123.34 152.25 123.74 151.88 124.11 151.43 124.47 150.94 124.79 150.46 125.04 149.95 125.27 148.9 125.61 147.77 125.81 146.64 125.86 145.47 125.81 144.37 125.58 143.32 125.21 142.81 124.98 142.36 124.73 141.7 124.25 141.16 123.68 140.74 123.09 140.46 122.43 140.23 121.78 140.09 121.13 140.03 120.51 140 119.91 140.03 119.29 140.17 118.66 140.37 118.07 140.63 117.5 140.97 116.94 141.36 116.42 141.85 115.94 142.36 115.52 142.92 115.09 143.55 114.72 144.23 114.41 144.91 114.16 145.64 113.93 146.44 113.79 147.23 113.67 148.05 113.65 148.59 113.59 149.19 113.59 149.84 113.59 150.52 113.67 151.23 113.79 151.97 113.93 152.7 114.16 153.44 114.44 154.18 114.81 154.88 115.23 155.56 115.72 156.22 116.31 156.84 116.99 157.38 117.76 157.86 118.64 158.29 119.6 158.29 119.66 158.31 119.74 158.37 119.88 158.4 120.08 158.49 120.56 158.54 121.22 158.54 121.98 158.46 122.83 158.29 123.82 157.97 124.84 157.78 125.35 157.52 125.86 157.24 126.4 156.87 126.94 156.47 127.48 155.99 128.05 155.48 128.61 154.86 129.15 154.18 129.72 153.41 130.26 152.56 130.8 152.07 131.06 153.02 131.29 154.16 131.57 155.23 131.88 156.2 132.22 157.1 132.56 157.93 132.9 158.69 133.24 159.34 133.58 159.94 133.92 160.45 134.26 160.87 134.58 161.24 134.86 161.5 135.11 161.7 135.37 161.84 135.57 161.87 135.74 161.87 135.54 161.87 99.88 161.82 99.79 161.34 98.88"/><polygon class="cls-1" points="144.91 118.32 144.57 118.52 144.31 118.72 144.09 118.92 143.91 119.12 143.89 119.23 143.89 119.32 143.97 119.4 144.11 119.49 144.51 119.54 144.82 119.51 145.13 119.43 145.42 119.32 145.62 119.17 145.79 119 145.93 118.81 146.21 118.27 146.52 117.7 145.67 117.98 144.91 118.32"/><polygon class="cls-1" points="116.5 104.18 117.07 104.52 117.58 104.97 118.01 105.48 118.38 106.05 118.66 106.67 118.6 105.97 118.43 105.28 118.29 104.97 118.12 104.66 117.89 104.35 117.64 104.09 117.13 103.7 116.62 103.41 116.08 103.24 115.51 103.13 115.21 103.13 115.21 103.82 115.85 103.92 116.5 104.18"/><polygon class="cls-1" points="129.09 95.02 128.24 94.68 127.81 94.54 127.39 94.48 127.11 94.48 126.88 94.54 126.77 94.6 126.71 94.71 126.71 94.82 126.74 94.97 126.85 95.11 126.99 95.25 127.33 95.5 127.76 95.7 128.13 95.79 128.58 95.87 129.09 95.9 129.63 95.93 130.62 96.02 129.91 95.5 129.09 95.02"/><polygon class="cls-1" points="89.83 102.34 92.41 103.98 94.9 105.74 97.28 107.64 99.16 109.28 100.94 110.95 102.7 112.63 104.43 114.3 106.55 116.37 108.74 118.47 111 120.48 112.17 121.47 113.39 122.43 115.4 123.91 117.44 125.27 119.56 126.52 121.75 127.65 123.99 128.67 126.25 129.55 128.55 130.31 130.9 130.97 129.8 130.48 128.75 129.95 127.79 129.41 126.85 128.87 126 128.27 125.18 127.68 124.41 127.08 123.7 126.46 123.05 125.83 122.43 125.21 121.86 124.59 121.35 123.99 120.42 122.77 119.65 121.58 118.91 120.25 118.32 119 117.86 117.81 117.5 116.71 117.27 117.28 116.9 117.81 116.45 118.27 115.85 118.61 115.2 118.81 114.78 118.86 114.32 118.86 113.87 118.83 113.44 118.75 112.59 118.44 111.83 118.01 111.15 117.44 110.61 116.85 110.38 116.54 110.21 116.23 110.1 115.89 110.01 115.57 110.01 115.32 110.07 115.09 110.24 114.89 110.47 114.75 110.61 114.69 110.75 114.67 111 114.67 111.26 114.69 111.71 114.89 112.08 115.21 112.31 115.55 112.39 115.77 112.45 116.03 112.45 116.51 112.51 116.99 112.56 117.22 112.68 117.44 112.88 117.64 113.1 117.81 113.39 117.93 113.67 118.04 114.32 118.13 114.94 118.07 115.4 117.93 115.8 117.67 116.11 117.36 116.36 116.99 116.53 116.59 116.62 116.17 116.65 115.74 116.59 115.32 116.45 114.86 116.25 114.44 115.99 114.02 115.71 113.59 115.03 112.82 114.27 112.03 113.36 111.09 112.93 110.61 112.54 110.1 112.46 110 109.6 108.16 103.53 111.76 103.53 61.58 102.06 61.73 100.55 61.78 99.02 61.81 97.52 61.78 96.05 61.7 94.6 61.58 93.21 61.44 91.88 61.27 90.66 61.1 89.56 60.93 88.56 60.76 87.71 60.62 87.34 60.53 87 60.48 86.72 60.42 86.49 60.37 86.32 60.34 86.18 60.31 86.1 60.28 86.07 60.28 86.07 100.3 87.17 100.83 89.83 102.34"/><polygon class="cls-1" points="134.16 115.69 133 115.97 131.84 116.2 130.65 116.4 129.54 116.57 128.81 116.74 128.15 116.99 127.79 117.16 127.47 117.36 127.22 117.59 126.96 117.84 127.79 117.76 128.58 117.73 129.34 117.78 130.08 117.84 130.99 117.9 131.39 117.93 131.7 117.9 132.46 117.73 133.23 117.44 134.08 116.96 134.87 116.37 135.55 115.63 136.09 114.84 135.3 115.26 134.16 115.69"/><polygon class="cls-1" points="111.83 116.17 111.77 115.91 111.69 115.72 111.54 115.52 111.34 115.32 111.09 115.18 110.89 115.15 110.81 115.18 110.69 115.32 110.67 115.52 110.72 115.72 110.81 115.94 111.09 116.4 111.46 116.82 111.88 117.19 111.86 116.68 111.83 116.17"/><path class="cls-1" d="M412.52,206.86l-.2-1L412,205l-.37-.94-.46-.87-.56-.88-.63-.82-.71-.8-.79-.74-.85-.73-1-.63-.54-.28-.57-.23-.59-.19-.6-.15-.37,0-.36,0-.57.06-.54.17-.43.31-.17.17-.14.22-.11.4,0,.4.11.39.26.37.31.34.37.34.39.26.43.23.65.22.71.17.79.17.83.12.79.14.79.17.77.2.68.28.39.62.32.65.28.68.23.69.17.68.11.7,0,.71v.71l-.09.68-.17.68-.19.68-.32.68-.37.65-.42.63-.54.59-.59.57-.83.65-.87.57-.94.51-1,.45-1.05.4-1.11.34-1.13.31-1.13.23-1.17.17-1.19.14-1.16.09-1.19,0-1.16,0-1.14-.06-1.1-.11-1.08-.15-.45-1.39-.54-1.33-.65-1.27-.77-1.19-.82-1.14-.91-1.07-1-1-1-.94-1.08-.91-1.08-.82-1.1-.79-1.14-.71-1.13-.68-1.13-.63-1.11-.56-1.11-.51-1.75-.77-1.85-.68-1.87-.62-1.92-.57-2-.51-2-.45-2-.4-2-.31-2-.26-2.07-.2-2.07-.14-2-.05-2,0-2,.08-2,.12-2,.19.59-.36.54-.37.51-.43.46-.48.31-.37.25-.39.4-.83.28-.82.15-.85.08-.88,0-.88,0-1.73h-.06L348,189l-.25.06-.31.11-.37.14-.43.2-.45.23-.45.31-.49.37-.45.45-.43.54-.39.6-.34.7-.26.77-.2.91-.08,1v.06l0,.14-.06.22-.08.32-.11.34-.2.39-.26.43-.31.42-2.41.49-1.19.28-1.13.31-1.59.48-1.56.51-1.53.54-1.5.6-1.45.59-1.27.57v1.42l1.78-.83,2.47-1,2.55-.93,2.66-.82,2.13-.54,2.18-.46,2.3-.34,2.35-.25,2.38-.11,2.44-.06,2.49.06,2.47.17,2.49.25,2.47.34,2.44.45,2.44.54,2.35.63,2.3.73,2.23.8,2.13.9,1,.49,1,.51,1,.56,1.05.6,1.05.68,1.05.71,1,.73,1,.83.94.85.9.9.85,1,.8,1,.71,1.07.65,1.14.54,1.22.45,1.24-1.84-.53-1.76-.63-1.67-.76-1.62-.85-1.61-1-1.56-1-3.15-2.13-2.69-1.84-1.39-.88-1.39-.88-1.47-.82-1.48-.76-1.56-.68-1.58-.63-1.34-.45-1.33-.4-2.61-.71-2.58-.56-2.52-.4-2.47-.28-2.4-.17-2.36,0-2.27,0-2.21.14-2.12.22-2,.32-2,.37-1.87.39-1.76.46-1.7.48-1.56.51-.93.34-.31.1v1.33l.34-.13,1.53-.54,1.53-.48,1.61-.48,1.7-.43,1.82-.39,1.87-.34,2-.29,2-.22,2.13-.14,2.18-.06,2.27.06,2.32.17,2.36.25,2.44.4,2.49.54,2.52.68,2.55.82,1.53.57,1.48.68,1.44.73,1.39.8,1.36.85,1.36.85,2.64,1.81,3.2,2.18,1.68,1.05,1.7,1,1.75.91,1.82.82,1.93.71,1,.29,1,.25.51.11.08.34.17,1.05.15,1,.05,1,0,1v1l-.08,1-.12,1-.14,1-.23,1-.25.93-.28.94-.37.88-.37.88-.46.82-.48.79-.51.77-1.07,1.3L384.82,236l-1.27,1.1-1.39,1-1.45.87-1.47.74-1.56.6-1.56.45-.91.17-.9.14-1,.09-1,.05-2,0-2-.17-2-.35-1-.22-.93-.29-.91-.28-.85-.34-.85-.37-.8-.39-.62-.37-.65-.48-.63-.51-.62-.6.79-.48.74-.54.74-.57.68-.56.65-.63.6-.62.56-.68.51-.68.57-.91.51-.93.43-1,.34-1,.28-1,.2-1,.14-1,.06-1v-1l-.06-1-.11-1-.2-1-.29-1-.31-1-.39-1-.46-1-.54-1-.59-.94-.68-.88-.77-.87-.88-.83-.9-.76-1-.71-1-.68-1.08-.62-1.14-.57-1.16-.51-1.22-.48-1.22-.4-1.27-.37-1.28-.31-1.3-.26-1.3-.19-1.34-.15-1.33-.11-1.3-.06h-1.33l-1.34.06-1.33.09-1.3.14-1.31.2-1.27.25-1.28.28-1.22.37-1.22.4-.59.23-.6.19-1.1.49-1,.45v1.75l.87-.42,1.05-.48,1.08-.45.57-.2.54-.2.53-.2.57-.17,1.14-.31,1.19-.28,1.16-.23,1.22-.17,1.22-.14,1.21-.12,1.22,0h1.25l1.22,0,1.25.09,1.22.14,1.21.2,1.22.23,1.19.31,1.17.31,1.13.37,1.11.42,1.07.49,1.05.51,1,.56,1,.63.9.65.83.68.79.74.68.79.62.82.57.82.48.88.43.91.37.91.31.93.25.94.17.93.15,1,0,.93v1l-.05.93-.12,1-.17.91L364,228l-.31.9-.37.88-.46.85-.53.83-.46.62-.48.59-.51.57-.57.54-.62.54-.62.48-1.36.91-.46-.74-.37-.79-.28-.85-.17-.91.43-.48.48-.48,1.05-1,.53-.45.46-.48.42-.49.32-.48.19-.39.12-.43.05-.48,0-.45-.12-.46-.2-.4-.34-.36-.42-.29-.4-.17-.42-.08h-.43l-.4.05-.36.12-.37.17-.34.22-.29.26-.54.62-.42.68-.31.71-.23.77-.14.76-.09.77,0,.76.06.74.2,1.22.34,1.22.22.59.26.57.31.6.34.53-.45.23-1,.45-1.05.4-.51.2-.51.17-.29.09-.28.08-.51.14-1.08.23-1.1.14-2.27.2-2.27,0-2.24-.06-.51-.06-.51,0-1.05-.2-1-.23-1-.28-1-.34-.91-.4-.85-.42-.82-.49-.77-.53-.68-.54-.59-.6-.54-.65-.4-.65-.31-.68-.23-.71-.11-.71v-.71l.08-.71.15-.68.25-.68.31-.65.4-.59.48-.57.51-.54.57-.48.62-.43.65-.39.71-.32.74-.25.74-.2.76-.14.77-.09.76,0,.74,0,.74.06.68.14.68.17.62.23.57.28.54.31.48.34.4.37.34.37.28.43.23.42.14.43.08.45.06.43,0,.42-.06.4-.08.42-.14.37-.4.68-.51.57-.6.45-.62.34-.65.23-.62.11-.6.06-.57,0-.62-.06-.62-.11-.23-.06-.31-.08-.29-.11-.11-.06-.06-.09-.42-1.24-.2-.6-.2-.57-.08-.22-.14-.23-.4-.4-.23-.17-.28-.14-.29-.08-.31,0h-.11l-.26,0-.22.08-.2.12-.14.14-.2.34-.06.37.06.53.17.52.28.53.34.51.4.49.48.42.51.37.54.28.94.34,1,.26,1,.11,1,0,.65-.06.66-.08.59-.17.6-.23.88-.45.39-.29.37-.34.37-.34.31-.39.28-.43.23-.45.17-.48.14-.51.06-.51,0-.54-.06-.57-.11-.54-.2-.56-.28-.54-.37-.51-.43-.51-.54-.49-.59-.42-.65-.37-.71-.34-.77-.28-.82-.23-.85-.17-.88-.09-.88,0-.9,0-.91.12-.91.17-.88.23-.88.31-.85.37-.79.45-.74.51-.68.57-.62.62-.54.68-.45.71-.4.74-.28.79-.2.79-.09.85,0,.83.11.85.26.85.34.82.51.79.62.74.68.68.8.62.85.6.91.54,1,.51,1,.42,1.05.4,1.1.31,1.14.26,1.16.22.6.06.62.06,2.35.11h1.19l1.19-.06,1.19-.05,1.22-.12,1.22-.2,1.22-.22.62-.17.57-.17.6-.2.56-.2,1.11-.45,1.08-.48.48-.23.65.62.71.6.76.54.8.48,1.24.59,1.31.54,1.42.46,1.44.36,1.48.29,1.53.22,1.5.12,1.53.05,1.27,0,1.25-.09,1.19-.14,1.16-.23.85-.22.86-.26,1.67-.65,1.61-.8,1.59-1,1.47-1.08,1.39-1.19,1.28-1.33,1.13-1.42.57-.79.51-.85.45-.88.43-.91.34-.93.34-.94.25-1,.23-1,.17-1,.11-1.05.09-1.05,0-1.08,0-1.07-.09-1.11-.14-1.08-.17-1.1,2,.22,2,.06,1.1,0,1.11,0,1.08-.12,1.05-.14,1-.17,1-.23.93-.22.94-.29.88-.31.85-.34.82-.34.74-.39.73-.4.66-.43.59-.42.57-.46.82-.82.71-.85.54-.88.42-.93.29-.94.14-.93.05-1Zm-5.81-5.93-.71-.11-.65-.14-.6-.14-.51-.17-.51-.29-.42-.39-.15-.2-.11-.2,0-.2,0-.17.06-.08.08-.09.17-.05.29,0,.39,0,.54.14.54.22.54.29.54.31,1,.71.43.37.39.39Zm-68.43,30.65-.57-.54-.54-.65-.2-.34-.17-.34-.11-.34-.06-.34v-.12l.06-.14.09-.11.19-.06h0l.29.09.25.17.23.25.14.28.34,1,.51,1.47Z" transform="translate(-81.82 -102.59)"/><polygon class="cls-1" points="248.23 111.15 250.1 111.58 251.07 111.72 252.03 111.78 253 111.75 253.99 111.61 254.27 111.49 254.61 111.35 255.35 110.93 255.72 110.73 256.03 110.53 256.31 110.42 256.54 110.36 255.72 110.36 254.98 110.25 254.33 110.08 253.79 109.88 253.39 109.68 253.08 109.48 252.88 109.37 252.83 109.31 251.81 109 250.79 108.77 249.76 108.6 248.8 108.52 247.84 108.46 246.93 108.46 246.57 108.47 246.57 110.81 248.23 111.15"/><polygon class="cls-1" points="203.42 131.87 202.26 132.19 200.7 132.56 199.17 132.84 197.21 133.15 195.31 133.38 193.5 133.49 191.77 133.52 193.07 133.41 194.29 133.26 194.38 133.26 195.99 133.04 197.61 132.78 199.22 132.44 200.81 132.07 202.4 131.65 200.34 131.23 198.18 130.89 198.04 130.87 197.78 130.97 196.47 131.39 195.11 131.76 193.7 132.1 192.59 132.22 191.43 132.33 190.21 132.41 188.96 132.47 187.72 132.5 186.52 132.44 185.39 132.3 184.37 132.07 183.21 131.71 182.13 131.34 181.14 130.94 180.76 130.76 180.69 130.78 179.36 131 178.67 131.16 179.1 131.39 180.12 131.88 181.25 132.36 182.47 132.78 183.8 133.21 184.65 133.41 185.53 133.55 186.18 133.72 186.89 133.89 187.63 134.03 188.42 134.14 189.59 134.26 190.83 134.34 192.14 134.4 193.5 134.4 194.91 134.34 196.39 134.26 197.92 134.09 199.48 133.86 201.07 133.58 202.68 133.24 204.33 132.84 205.76 132.43 204.87 132.19 203.42 131.87"/><polygon class="cls-1" points="115.21 111.71 115.06 111.55 114.18 110.64 113.41 109.73 113.1 109.25 112.82 108.74 112.56 108.2 112.39 107.64 112.31 107.1 112.34 106.53 112.51 105.99 112.82 105.45 113.16 105.11 113.58 104.86 114.07 104.69 114.58 104.58 115.06 104.58 115.21 104.6 115.21 103.82 115.17 103.81 114.46 103.81 113.73 103.95 113.05 104.23 112.45 104.6 111.97 105.06 111.74 105.37 111.57 105.68 111.46 106.02 111.37 106.33 111.32 107.01 111.4 107.67 111.6 108.32 111.86 108.97 112.17 109.56 112.46 110 115.21 111.76 115.21 111.71"/><polygon class="cls-1" points="114.63 100.69 114.04 100.83 113.47 101.06 112.93 101.34 112.42 101.71 111.94 102.11 111.49 102.62 111.09 103.16 110.89 103.56 110.75 103.98 110.61 104.8 110.52 105.6 110.44 105.99 110.33 106.39 110.52 105.97 110.81 105.54 111.12 105.14 111.52 104.75 111.91 104.38 112.36 104.04 112.85 103.75 113.36 103.5 113.87 103.33 114.41 103.19 114.97 103.13 115.21 103.13 115.21 100.61 114.63 100.69"/><polygon class="cls-1" points="150.53 130.78 149.97 130.68 149.61 130.85 148.62 131.25 147.54 131.62 146.38 131.99 145.33 132.21 144.23 132.35 143.01 132.41 141.79 132.38 140.54 132.33 139.32 132.24 138.16 132.13 137.06 132.01 135.64 131.68 134.28 131.31 133.14 130.93 131.28 131.23 129.07 131.68 128.91 131.72 129.91 131.99 131.5 132.35 133.12 132.69 134.73 132.95 136.35 133.18 136.46 133.18 137.68 133.32 138.98 133.43 137.25 133.4 135.44 133.29 133.54 133.06 131.58 132.75 130.05 132.47 128.5 132.1 127.91 131.94 126.77 132.19 125.58 132.51 126.42 132.75 128.07 133.15 129.69 133.49 131.27 133.77 132.83 134 134.36 134.17 135.84 134.25 137.25 134.31 138.61 134.31 139.92 134.25 141.16 134.17 142.33 134.06 143.12 133.94 143.86 133.8 144.57 133.63 145.22 133.46 146.1 133.32 146.92 133.12 148.25 132.69 149.47 132.27 150.6 131.79 151.63 131.31 152.07 131.06 151.83 131 150.53 130.78"/><path class="cls-1" d="M166.13,208.7l-1.11-.51-1.13-.48-.57-.2-.6-.23-1.21-.39-1.22-.37-1.28-.29-1.27-.25-1.31-.2-1.3-.14-1.33-.09-1.34-.05h-1.3l-1.33.05-1.34.12-1.33.14-1.3.2-1.31.25-1.27.31-1.28.37-1.22.4-1.21.48-1.17.51-1.13.57-1.08.62-1.05.68-1,.71-.91.77-.87.82-.77.88-.68.88-.6.93-.53,1-.46,1-.39,1-.32,1-.28,1-.2,1-.11,1-.06,1v1l.06,1,.14,1,.2,1,.28,1,.34,1,.43,1,.51.93.56.91.51.68.57.68.6.62.65.63.68.57.74.56.73.54.8.48-.63.6-.62.51-.65.48-.63.37-.79.4-.85.36-.85.34-.91.29-.93.28-1,.23-2,.34-2,.17-2,0-1-.06-1-.09-.91-.14-.9-.17-1.56-.45-1.56-.6-1.47-.73-1.45-.88-1.39-1-1.28-1.11-1.16-1.24-1.07-1.31-.51-.76-.49-.8-.45-.82-.37-.88-.37-.88-.28-.93-.26-.94-.19-1-.17-1-.12-1-.08-1v-1l0-1,0-1,.14-1.05.17-1.05.09-.34.51-.12,1-.25,1-.31,1.93-.68,1.81-.83,1.76-.9,1.7-1,1.67-1.05,3.21-2.19,2.63-1.78,1.36-.88,1.37-.85,1.38-.79,1.45-.74,1.47-.68,1.53-.57,2.56-.82,2.52-.68,2.49-.54,2.44-.4,2.35-.25,2.33-.17,2.27-.06,2.18.06,2.12.14,2,.23,2,.28,1.9.34,1.78.4,1.71.42,1.61.48,1.53.49,1.53.53,1.45.57.77.32V202.9l-1.71-.83-1.44-.66-1.45-.59-1.5-.6-1.53-.53-1.56-.51-1.59-.49-1.13-.31-1.19-.28-2.41-.48-.31-.43-.26-.42-.2-.4-.11-.34-.09-.31,0-.23,0-.14v-.06l-.09-1-.19-.91-.26-.76-.34-.71-.4-.6-.42-.54-.46-.45-.48-.37-.45-.31-.45-.23-.43-.19-.37-.15-.31-.11-.25-.06-.15,0h-.05l0,1.73,0,.88.08.87.14.85.29.83.39.82.26.4.31.36.45.49.51.42.54.37.6.37-2-.2-2-.11-2-.09-2,0-2,.06-2.07.14-2.06.2-2,.25-2,.31-2,.4-2,.45-2,.51-1.93.57-1.87.62-1.84.68-1.76.77-1.1.51-1.11.57-1.13.62-1.13.68-1.14.71-1.1.79-1.08.83-1.08.9-1,.94-1,1-.91,1.08-.82,1.13-.77,1.19-.65,1.28-.54,1.33-.45,1.39-1.08.14-1.11.11-1.13.06-1.16,0-1.19,0L96.37,217l-1.2-.14L94,216.72l-1.13-.22-1.14-.32-1.1-.34-1-.39-1-.46-.94-.51-.88-.56-.82-.66-.59-.56-.54-.6-.43-.62-.37-.65-.31-.68-.2-.68-.17-.69-.08-.68v-.7l0-.71.11-.71.17-.68.23-.68.28-.68.31-.65.4-.63.68-.28.77-.2L87,202l.82-.14.8-.12.79-.17.71-.17.65-.22.42-.23.4-.25.37-.34.31-.34.26-.37.11-.4,0-.4-.11-.39-.15-.23-.17-.17-.42-.31-.54-.17-.6-.06-.34,0-.36.06-.6.14-.59.2-.57.22-.54.29-1,.62-.85.74-.8.73-.71.8-.62.82-.54.88-.48.88-.37.93-.28.94-.17,1-.09,1,.06,1,.14.94.29.93.42.94.54.87.68.86.82.82.57.45.59.43.68.42.71.4.77.39.79.35.85.34.91.31.91.28,1,.23,1,.22,1,.17,1,.15,1.08.11,1.1.06,1.11,0,2,0,2-.23-.18,1.11-.14,1.07-.08,1.11,0,1.08,0,1.07.08,1,.12,1.05.17,1,.22,1,.26,1,.34.93.37.94.39.9.46.88.51.85.56.8,1.14,1.41,1.27,1.34,1.39,1.19,1.51,1.07,1.55,1,1.62.79,1.67.65.85.26.85.23,1.17.22,1.19.14,1.24.09,1.28,0,1.53-.06,1.5-.11,1.53-.23,1.48-.28,1.44-.37,1.42-.46,1.3-.53,1.25-.6.79-.48.77-.54.71-.59.65-.63.45.23,1.11.51,1.11.42.56.2.6.2.56.17.63.17,1.22.23,1.22.2,1.21.11,1.2.06,1.19.05h1.19l2.35-.11,1.22-.11,1.16-.23,1.13-.26,1.11-.31,1.05-.39,1-.43,1-.51.91-.54.85-.59.79-.63.68-.68.63-.73.51-.8.34-.82.25-.85.15-.85v-.82l-.09-.85-.2-.8-.28-.79-.4-.74-.45-.71-.54-.68-.62-.62-.68-.57-.74-.51-.8-.45-.85-.37-.87-.31-.88-.23-.91-.17-.91-.11-.9,0-.88,0-.88.08-.85.17-.82.23-.77.28-.71.34-.68.37-.59.43-.51.48-.43.51-.37.51-.28.54-.2.56-.11.54-.06.57v.54l.09.51.11.51.2.48.22.45.29.43.31.4.37.34.37.34.39.28.88.45.6.23.62.17.62.09.66.05,1,0,1-.11,1-.25.94-.34.54-.29.51-.37.48-.42.4-.48.34-.51.28-.54.17-.51.06-.54-.06-.37-.2-.34-.14-.14L158,228l-.23-.09-.25,0h-.11l-.32,0-.28.09-.28.14-.23.17-.4.39-.14.23-.08.23-.2.56-.2.6-.43,1.25-.05.08-.12.06-.28.11-.31.09-.26.05-.59.12-.63.05-.56,0-.6,0-.62-.12-.65-.22-.63-.34L149,231l-.51-.57-.4-.68-.14-.36-.11-.43-.06-.4v-.42l0-.43.11-.45.14-.43.23-.42.28-.43.34-.36.4-.37.48-.34.54-.31.57-.29.62-.22.68-.17.68-.15.74-.05.74,0,.76,0,.74.08.76.14.74.2.74.26.71.31.65.4.65.42.57.48.51.54.48.57.4.59.31.66.25.68.17.68.06.7v.71l-.11.71-.23.71-.31.68-.4.65-.54.66-.59.59-.68.54-.77.54-.82.48-.85.42-.91.4-1,.34-1,.29-1,.22-1,.2-.51.06-.54,0-2.21.06-2.27,0-2.27-.2-1.1-.14-1.08-.22-.26-.06-.25-.09-.29-.08-.28-.09-.51-.17-.51-.2-1.05-.39-1-.46-.45-.22.34-.54.31-.6.25-.56.23-.6.31-1.22.23-1.22.06-.73,0-.77-.08-.76-.14-.77-.23-.76-.31-.71-.43-.68-.54-.63-.28-.25-.34-.23-.37-.17-.37-.11-.39-.06h-.43l-.42.09-.4.17-.43.28-.34.37-.19.39-.12.46,0,.45.06.48.11.43.2.4.31.48.43.48.45.48.54.45,1,1,.48.48.43.48-.17.91-.29.85-.36.79-.46.74-1.36-.91-.62-.48-.63-.54-.56-.54-.51-.56-.48-.6-.46-.62-.54-.82-.45-.85-.37-.88-.31-.91-.26-.94-.19-.9-.12-1-.05-.93v-1l.05-.93.14-1,.17-.94.26-.94.31-.93.37-.91.42-.9.49-.88.56-.83.63-.82.68-.79.79-.74.82-.68.91-.65,1-.62,1-.57,1.05-.51,1.07-.48,1.11-.43,1.13-.37,1.19-.31,1.16-.31,1.22-.23,1.22-.2,1.22-.14L150,207l1.22,0h1.24l1.22,0,1.22.11,1.22.14,1.22.17,1.19.23,1.16.28,1.14.31.56.17.54.2.57.2.54.2,1.08.45,1,.49,1.14.53,1.13.57-.85-.08-.91,0h-.9l-1,.05-1,.09-1,.17-1,.23-1,.31-.06.05-.2.12-.31.2-.4.19-.53.2-.66.17-.73.12H156l.23,0,.28.12.32.2.37.19.73.43.34.14.29.11,1,.15,1,0,1-.05,1-.14,1.87-.43,1.9-.4.34,0,.4-.09.45-.05.46-.08v-3.43Zm-60.78,6.52.54-1.22.65-1.13.71-1.08.79-1,.85-1,.91-.91.94-.85,1-.82,1-.74,1-.71,1-.68,1.05-.59,1-.57,1-.51,1-.48,2.12-.91,2.24-.79,2.3-.74,2.35-.62,2.44-.54,2.44-.46,2.46-.34,2.5-.25,2.46-.17,2.5-.06,2.44.06,2.38.11,2.35.26,2.3.34,2.18.45,2.12.54,2.67.82,2.55.94,2.47,1,2.38,1.1-.91-.31-.93-.34-1.56-.51-1.7-.48-1.76-.46-1.87-.39-2-.37-2-.31-2.13-.23-2.21-.14-2.26,0-2.36,0-2.41.17-2.46.28-2.53.4-2.58.57-2.6.71-1.34.39-1.33.46-1.58.62-1.56.68-1.48.76-1.44.83-1.42.88-1.39.87-2.69,1.85L115,211.73l-1.56,1-1.59,1-1.64.85-1.67.76-1.76.63-1.84.54ZM86.78,200.65l.46-.37,1-.71.54-.31.54-.28.54-.23.54-.14.36,0,.29,0,.2.08.08.09,0,.06.06.17-.06.19-.09.2-.17.2-.42.4-.51.28-.48.17-.6.14-.65.14-.71.12-1.3.2Zm69.37,29.65.31-1,.14-.29.26-.25.25-.17.29-.09h0l.2.06.09.11,0,.15v.11l0,.34-.12.34-.17.34-.19.34-.54.65-.57.54-.48.28Z" transform="translate(-81.82 -102.59)"/><polygon class="cls-1" points="204.62 30.42 203.97 30.08 203.35 29.79 202.75 29.57 202.21 29.4 201.68 29.25 201.19 29.17 200.74 29.14 200.31 29.11 199.92 29.14 199.55 29.2 198.9 29.4 198.36 29.68 197.88 30.05 197.51 30.44 197.22 30.9 197 31.32 196.83 31.72 196.69 32.06 196.63 32.34 196.57 32.54 196.57 32.6 195.98 33.05 195.5 33.51 195.16 33.96 194.87 34.41 194.7 34.84 194.62 35.23 194.56 35.6 194.59 35.97 194.65 36.31 194.73 36.6 194.96 37.08 195.07 37.25 195.16 37.39 195.21 37.47 195.24 37.5 195.41 37.02 195.66 36.65 196 36.34 196.4 36.11 196.83 35.94 197.31 35.83 197.79 35.77 198.3 35.74 199.29 35.8 199.72 35.83 200.12 35.89 200.43 35.94 200.68 36 200.85 36.06 200.91 36.06 200.85 36.82 200.74 37.53 200.6 38.21 200.37 38.84 200.14 39.46 199.83 40.03 199.49 40.56 199.12 41.05 198.73 41.53 198.3 41.98 197.34 42.77 196.26 43.46 195.13 44.02 193.94 44.5 192.72 44.9 191.47 45.21 190.25 45.44 189.06 45.58 187.9 45.67 186.82 45.72 185.83 45.7 185.4 45.67 185.01 45.58 184.67 45.47 184.35 45.33 184.1 45.13 183.9 44.93 183.73 44.7 183.59 44.45 183.42 43.91 183.34 43.28 183.36 42.63 183.48 41.98 183.65 41.3 183.87 40.65 184.1 40.05 184.33 39.52 184.53 39.06 184.69 38.72 184.81 38.49 184.87 38.44 184.87 38.41 184.44 38.64 184.01 38.92 183.59 39.29 183.11 39.71 182.12 40.62 181.01 41.56 180.39 41.98 179.74 42.38 179.03 42.72 178.29 43 177.5 43.17 176.65 43.26 175.74 43.23 174.77 43.09 174.29 42.95 173.84 42.75 173.44 42.49 173.07 42.15 172.73 41.81 172.42 41.39 172.14 40.93 171.88 40.45 171.49 39.37 171.17 38.21 170.95 36.96 170.81 35.66 170.72 34.36 170.69 33.08 170.72 31.86 170.81 30.7 170.89 29.68 171 28.77 171.03 28.4 171.09 28.06 171.15 27.78 171.2 27.55 171.4 26.76 171.68 25.99 172.05 25.26 172.31 24.95 172.59 24.63 172.9 24.32 173.24 24.07 173.67 23.84 174.12 23.64 174.66 23.5 175.23 23.39 175.88 23.33 176.59 23.3 176.96 23.33 177.27 23.36 177.78 23.53 178.18 23.75 178.43 24.04 178.6 24.38 178.69 24.77 178.69 25.2 178.6 25.63 178.35 26.45 178.2 26.84 178.03 27.18 177.89 27.47 177.75 27.7 177.66 27.84 177.64 27.89 178.32 27.98 178.94 28.04 179.51 28.04 180.02 28.01 180.47 27.92 180.87 27.84 181.24 27.7 181.55 27.55 181.83 27.36 182.06 27.16 182.43 26.7 182.65 26.19 182.8 25.63 182.82 25.06 182.8 24.52 182.71 23.98 182.6 23.5 182.48 23.07 182.37 22.76 182.29 22.56 182.26 22.48 181.86 21.83 181.46 21.23 181.07 20.75 180.64 20.3 180.19 19.96 179.76 19.64 179.31 19.42 178.83 19.22 178.37 19.11 177.89 19.05 177.44 19.02 176.96 19.02 176.02 19.19 175.11 19.5 174.24 19.9 173.41 20.38 172.65 20.92 171.94 21.52 171.34 22.08 170.83 22.62 170.44 23.1 170.15 23.5 169.96 23.81 169.76 24.04 169.56 24.21 169.36 24.32 169.19 24.35 169.02 24.35 168.74 24.24 168.51 24.04 168.31 23.81 168.2 23.64 168.17 23.56 168.31 22.45 168.59 21.43 168.96 20.52 169.42 19.67 169.93 18.94 170.52 18.26 171.12 17.66 171.74 17.15 172.34 16.7 172.93 16.33 173.47 16.02 173.98 15.79 174.38 15.59 174.69 15.48 174.89 15.39 174.97 15.36 174.83 15.11 174.66 14.91 174.24 14.57 173.7 14.34 173.1 14.23 172.45 14.17 171.74 14.2 171 14.26 170.27 14.4 169.56 14.54 168.88 14.71 168.25 14.91 167.72 15.08 167.23 15.22 166.89 15.36 166.67 15.45 166.61 15.48 166.58 15.48 166.58 12.79 167.29 12.62 167.89 12.44 168.34 12.25 168.71 12.02 168.96 11.79 169.16 11.57 169.25 11.34 169.3 11.11 169.3 10.88 169.25 10.69 169.1 10.35 168.96 10.12 168.91 10.06 168.88 10.04 168.45 9.58 168.06 9.02 167.66 8.33 167.29 7.57 166.92 6.78 166.58 5.92 166.01 4.22 165.76 3.4 165.53 2.61 165.34 1.9 165.16 1.28 165.02 0.74 164.94 0.34 164.88 0.09 164.85 0.03 164.85 0 164.85 0.03 164.82 0.09 164.77 0.34 164.68 0.74 164.57 1.28 164.4 1.9 164.2 2.61 163.97 3.4 163.72 4.22 163.15 5.92 162.81 6.78 162.47 7.57 162.07 8.33 161.71 9.02 161.28 9.58 160.86 10.04 160.83 10.06 160.77 10.12 160.63 10.35 160.49 10.69 160.46 10.88 160.46 11.11 160.49 11.34 160.6 11.57 160.77 11.79 161.05 12.02 161.39 12.25 161.88 12.44 162.47 12.62 163.18 12.79 163.18 15.48 163.15 15.48 163.09 15.45 162.87 15.36 162.53 15.22 162.05 15.08 161.51 14.91 160.86 14.71 160.18 14.54 159.47 14.4 158.73 14.26 158.02 14.2 157.31 14.17 156.63 14.23 156.04 14.34 155.5 14.57 155.07 14.91 154.9 15.11 154.76 15.36 154.85 15.39 155.04 15.48 155.36 15.59 155.75 15.79 156.26 16.02 156.8 16.33 157.4 16.7 157.99 17.15 158.62 17.66 159.21 18.26 159.81 18.94 160.32 19.67 160.77 20.52 161.14 21.43 161.42 22.45 161.56 23.56 161.54 23.64 161.42 23.81 161.22 24.04 161 24.24 160.71 24.35 160.54 24.35 160.37 24.32 160.2 24.21 160 24.04 159.81 23.81 159.61 23.5 159.32 23.1 158.93 22.62 158.42 22.08 157.79 21.52 157.09 20.92 156.32 20.38 155.5 19.9 154.62 19.5 153.71 19.19 152.78 19.02 152.29 19.02 151.84 19.05 151.36 19.11 150.91 19.22 150.42 19.42 149.97 19.64 149.55 19.96 149.09 20.3 148.67 20.75 148.27 21.23 147.87 21.83 147.48 22.48 147.45 22.56 147.36 22.76 147.25 23.07 147.14 23.5 147.02 23.98 146.94 24.52 146.91 25.06 146.94 25.63 147.08 26.19 147.31 26.7 147.68 27.16 147.9 27.36 148.19 27.55 148.5 27.7 148.87 27.84 149.26 27.92 149.72 28.01 150.23 28.04 150.79 28.04 151.42 27.98 152.1 27.89 152.07 27.84 151.98 27.7 151.84 27.47 151.7 27.18 151.53 26.84 151.39 26.45 151.13 25.63 151.05 25.2 151.05 24.77 151.13 24.38 151.3 24.04 151.56 23.75 151.96 23.53 152.47 23.36 152.78 23.33 153.15 23.3 153.85 23.33 154.51 23.39 155.07 23.5 155.61 23.64 156.06 23.84 156.49 24.07 156.83 24.32 157.17 24.63 157.43 24.95 157.68 25.26 158.05 25.99 158.33 26.76 158.56 27.55 158.62 27.78 158.65 28.06 158.7 28.4 158.76 28.77 158.87 29.68 158.96 30.7 159.01 31.86 159.04 33.08 159.04 34.36 158.96 35.66 158.81 36.96 158.59 38.21 158.28 39.37 157.85 40.45 157.62 40.93 157.34 41.39 157.03 41.81 156.69 42.15 156.32 42.49 155.92 42.75 155.47 42.95 154.99 43.09 154.02 43.23 153.12 43.26 152.27 43.17 151.47 43 150.71 42.72 150.03 42.38 149.38 41.98 148.75 41.56 147.62 40.62 146.63 39.71 146.17 39.29 145.72 38.92 145.29 38.64 144.9 38.41 144.9 38.44 144.95 38.49 145.07 38.72 145.24 39.06 145.44 39.52 145.66 40.05 145.89 40.65 146.12 41.3 146.29 41.98 146.37 42.63 146.4 43.28 146.34 43.91 146.17 44.45 146.03 44.7 145.86 44.93 145.63 45.13 145.38 45.33 145.09 45.47 144.73 45.58 144.36 45.67 143.91 45.7 142.91 45.72 141.84 45.67 140.7 45.58 139.48 45.44 138.26 45.21 137.02 44.9 135.8 44.5 134.61 44.02 133.47 43.46 132.42 42.77 131.46 41.98 131.01 41.53 130.61 41.05 130.24 40.56 129.9 40.03 129.62 39.46 129.36 38.84 129.16 38.21 129.02 37.53 128.91 36.82 128.85 36.06 128.91 36.06 129.08 36 129.34 35.94 129.65 35.89 130.04 35.83 130.47 35.8 131.46 35.74 131.97 35.77 132.45 35.83 132.94 35.94 133.36 36.11 133.76 36.34 134.1 36.65 134.35 37.02 134.52 37.5 134.55 37.47 134.61 37.39 134.69 37.25 134.81 37.08 135.03 36.6 135.12 36.31 135.17 35.97 135.17 35.6 135.15 35.23 135.03 34.84 134.86 34.41 134.61 33.96 134.24 33.51 133.78 33.05 133.19 32.6 133.19 32.54 133.13 32.34 133.08 32.06 132.94 31.72 132.76 31.32 132.54 30.9 132.25 30.44 131.86 30.05 131.4 29.68 130.84 29.4 130.19 29.2 129.82 29.14 129.45 29.11 129.02 29.14 128.57 29.17 128.06 29.25 127.55 29.4 127.01 29.57 126.42 29.79 125.79 30.08 125.14 30.42 125.11 30.39 125.05 30.36 124.97 30.27 124.83 30.16 124.66 30.02 124.46 29.85 123.95 29.48 123.3 29.06 122.53 28.57 121.62 28.09 120.63 27.58 119.5 27.13 118.25 26.7 116.92 26.33 115.5 26.08 113.97 25.91 112.38 25.88 111.56 25.91 110.71 25.99 109.83 26.11 108.95 26.28 109.01 26.31 109.15 26.39 109.44 26.56 109.78 26.76 110.2 27.02 110.71 27.36 111.31 27.72 111.99 28.12 112.72 28.6 113.49 29.11 114.34 29.68 115.22 30.27 116.15 30.93 117.12 31.61 118.14 32.34 119.16 33.11 121.26 34.73 123.38 36.48 125.51 38.33 127.58 40.28 129.53 42.32 130.47 43.37 131.35 44.45 132.2 45.52 132.99 46.6 133.73 47.71 134.38 48.81 134.41 48.81 134.55 48.87 134.75 48.93 135 49.01 135.37 49.1 135.8 49.24 136.28 49.38 136.82 49.52 137.44 49.69 138.15 49.86 138.89 50.03 139.68 50.23 140.56 50.43 141.47 50.63 142.43 50.83 143.45 51.05 144.53 51.25 145.63 51.45 146.8 51.65 147.99 51.85 150.51 52.19 153.15 52.5 155.92 52.75 158.81 52.95 161.79 53.04 164.85 53.04 167.86 53.06 170.81 52.98 173.67 52.84 176.42 52.58 179.08 52.27 181.6 51.9 183.96 51.51 185.09 51.31 186.17 51.11 187.19 50.88 188.18 50.68 189.09 50.48 189.97 50.29 190.79 50.09 191.56 49.89 192.24 49.72 192.89 49.55 193.45 49.38 193.94 49.24 194.36 49.13 194.73 49.01 195.01 48.93 195.21 48.87 195.35 48.81 195.38 48.81 196.03 47.71 196.77 46.6 197.56 45.52 198.41 44.45 199.29 43.37 200.23 42.32 202.19 40.28 204.25 38.33 206.38 36.48 208.51 34.73 210.6 33.11 211.62 32.34 212.65 31.61 213.61 30.93 214.54 30.27 215.42 29.68 216.27 29.11 217.04 28.6 217.78 28.12 218.46 27.72 219.05 27.36 219.56 27.02 219.99 26.76 220.33 26.56 220.61 26.39 220.75 26.31 220.81 26.28 219.93 26.11 219.05 25.99 218.2 25.91 217.38 25.88 215.79 25.91 214.26 26.08 212.84 26.33 211.51 26.7 210.26 27.13 209.16 27.58 208.14 28.09 207.23 28.57 206.47 29.06 205.81 29.48 205.3 29.85 205.1 30.02 204.94 30.16 204.79 30.27 204.71 30.36 204.65 30.39 204.62 30.42"/></svg>
