<svg id="WMF_objects" data-name="WMF objects" xmlns="http://www.w3.org/2000/svg" viewBox="0 0 330.78 139.85"><defs><style>.cls-1{fill:#e1dbd4;fill-rule:evenodd;}</style></defs><polygon class="cls-1" points="213.31 110.96 213.67 111.89 213.79 112.37 213.87 112.86 213.96 113.19 213.96 113.28 213.96 113.34 213.96 113.42 213.96 113.56 213.93 113.76 214.36 113.19 214.81 112.66 215.77 111.64 216.65 110.73 217.42 109.82 217.73 109.34 218.01 108.83 218.27 108.29 218.44 107.72 218.49 107.19 218.47 106.62 218.3 106.08 218.15 105.8 217.98 105.54 217.67 105.2 217.25 104.95 216.77 104.78 216.26 104.66 215.74 104.66 215.29 104.75 214.87 104.92 214.47 105.14 214.02 105.57 213.62 106.05 213.28 106.62 213.05 107.21 212.85 107.81 212.77 108.4 212.74 108.97 212.8 109.48 213.02 110.25 213.31 110.96"/><polygon class="cls-1" points="245.25 108.57 246.1 108.49 246.65 108.47 246.65 107.88 246.39 108.01 245.25 108.57"/><polygon class="cls-1" points="246.08 110.7 245.68 110.61 245.23 110.56 244.69 110.47 243.55 110.33 242.36 110.19 241 111.01 239.7 111.86 237.91 113.08 236.15 114.33 232.78 116.85 229.52 119.37 226.32 121.84 224.7 123.03 223.06 124.19 221.39 125.24 219.71 126.26 218.01 127.25 216.31 128.19 214.61 129.04 212.91 129.83 211.18 130.57 209.48 131.22 207.78 131.85 206.08 132.36 205.84 132.43 207.33 132.82 209.77 133.53 212.21 134.24 214.53 134.89 216.77 135.45 218.93 135.97 221 136.42 222.98 136.81 224.85 137.13 226.67 137.41 228.39 137.64 230.01 137.81 231.57 137.95 233.04 138.03 234.43 138.09 235.74 138.12 236.96 138.12 238.12 138.06 239.17 138.01 240.19 137.95 241.09 137.84 241.94 137.72 242.71 137.61 243.42 137.5 244.04 137.35 244.61 137.21 245.09 137.1 245.52 136.99 245.86 136.87 246.14 136.76 246.37 136.67 246.54 136.62 246.62 136.59 246.65 136.56 246.65 110.81 246.42 110.76 246.08 110.7"/><polygon class="cls-1" points="195.96 116.45 196.72 117.05 197.15 117.31 197.6 117.53 198.37 117.81 199.13 117.98 199.45 118.01 199.84 117.98 200.75 117.93 201.49 117.87 202.25 117.81 203.05 117.84 203.84 117.93 203.61 117.67 203.36 117.45 203.05 117.25 202.68 117.08 202.02 116.82 201.29 116.65 200.72 116.57 200.18 116.48 198.99 116.28 197.8 116.06 196.64 115.77 195.53 115.35 194.74 114.92 195.28 115.72 195.96 116.45"/><polygon class="cls-1" points="184.9 118.89 185.05 119.09 185.21 119.26 185.41 119.4 185.7 119.52 186.01 119.6 186.32 119.63 186.72 119.57 186.86 119.49 186.94 119.4 186.94 119.32 186.92 119.2 186.75 119.01 186.52 118.81 186.24 118.61 185.92 118.41 185.16 118.07 184.31 117.79 184.62 118.35 184.9 118.89"/><polygon class="cls-1" points="219.74 116.48 220.02 116.03 220.11 115.8 220.17 115.6 220.14 115.41 220.02 115.26 219.94 115.24 219.71 115.26 219.49 115.41 219.29 115.6 219.12 115.8 219.06 116 219 116.26 218.98 116.77 218.95 117.28 219.37 116.91 219.74 116.48"/><polygon class="cls-1" points="244.18 103.3 242.87 103.87 241.65 104.44 240.55 105 239.5 105.54 238.56 106.08 237.71 106.56 236.98 107.02 236.32 107.44 235.79 107.78 235.33 108.09 234.99 108.32 234.79 108.46 234.68 108.55 232.87 110.16 231.08 111.81 227.65 115.15 225.5 117.25 223.28 119.35 220.99 121.39 218.58 123.37 217.25 124.39 215.86 125.33 214.47 126.23 213.05 127.08 211.61 127.91 210.13 128.64 208.63 129.35 207.13 130 205.6 130.6 204.04 131.14 202.48 131.65 202.48 131.65 202.66 131.68 203.5 131.87 203.9 131.76 205.51 131.25 207.13 130.71 208.74 130.12 210.39 129.44 212.06 128.7 213.7 127.91 215.35 127.06 216.99 126.15 218.61 125.19 220.22 124.19 221.84 123.12 223.43 121.98 225.01 120.82 228.19 118.38 231.45 115.83 233.12 114.56 234.85 113.28 236.64 112 238.45 110.76 239.13 110.3 239.02 110.36 239.07 110.33 239.24 110.25 240.97 109.17 242.76 108.12 244.6 107.13 246.53 106.19 246.65 106.14 246.65 102.3 245.54 102.73 244.18 103.3"/><polygon class="cls-1" points="246.65 100.97 246.65 100.9 246.05 101.18 246.65 100.97"/><polygon class="cls-1" points="201.74 95.99 202.25 95.96 202.71 95.88 203.07 95.79 203.5 95.59 203.87 95.34 203.98 95.19 204.09 95.05 204.12 94.91 204.12 94.8 204.07 94.69 203.95 94.63 203.73 94.57 203.44 94.57 203.02 94.63 202.59 94.77 201.74 95.11 200.92 95.59 200.21 96.1 201.2 96.02 201.74 95.99"/><polygon class="cls-1" points="177.42 130.34 176.65 129.81 175.97 129.24 175.35 128.7 174.81 128.13 174.36 127.57 173.96 127.03 173.59 126.49 173.31 125.95 173.05 125.44 172.86 124.93 172.54 123.91 172.37 122.92 172.29 122.07 172.32 121.3 172.37 120.65 172.43 120.17 172.49 119.97 172.52 119.83 172.54 119.74 172.54 119.69 172.97 118.72 173.45 117.84 173.99 117.08 174.58 116.4 175.24 115.8 175.95 115.32 176.65 114.9 177.39 114.53 178.13 114.24 178.87 114.02 179.6 113.88 180.31 113.76 180.99 113.68 181.64 113.68 182.24 113.68 182.78 113.73 183.6 113.76 184.39 113.88 185.16 114.02 185.9 114.24 186.6 114.5 187.26 114.81 187.88 115.18 188.48 115.6 188.99 116.03 189.44 116.51 189.86 117.02 190.2 117.59 190.46 118.16 190.66 118.75 190.8 119.37 190.83 120 190.8 120.59 190.74 121.22 190.6 121.87 190.37 122.52 190.06 123.17 189.67 123.77 189.13 124.33 188.48 124.82 188.02 125.07 187.51 125.3 186.46 125.67 185.36 125.89 184.2 125.95 183.06 125.89 181.93 125.7 180.88 125.36 180.37 125.13 179.89 124.87 179.4 124.56 178.95 124.19 178.58 123.83 178.24 123.43 177.99 123 177.76 122.58 177.62 122.12 177.53 121.67 177.51 121.1 177.56 120.54 177.7 120 177.9 119.49 178.18 119.01 178.52 118.55 178.92 118.16 179.4 117.79 179.86 117.53 180.34 117.33 180.88 117.16 181.39 117.05 182.21 116.97 183.09 116.97 184.02 117.05 184.9 117.25 185.78 117.53 186.55 117.9 186.86 118.13 187.17 118.38 187.43 118.64 187.65 118.92 187.77 119.26 187.77 119.43 187.74 119.57 187.65 119.74 187.51 119.89 187.31 120.03 187.09 120.14 186.72 120.25 186.32 120.28 185.73 120.22 185.19 120.06 184.71 119.74 184.51 119.57 184.36 119.37 184.05 118.84 183.83 118.58 183.54 118.35 183.17 118.21 182.78 118.16 182.38 118.16 181.96 118.18 181.53 118.24 181.16 118.35 180.79 118.5 180.45 118.69 180.11 118.95 179.83 119.26 179.57 119.6 179.38 119.94 179.21 120.34 179.12 120.73 179.09 121.16 179.09 121.58 179.15 121.9 179.26 122.24 179.43 122.55 179.63 122.83 179.86 123.14 180.14 123.43 180.45 123.68 180.82 123.91 181.59 124.28 182.41 124.53 183.29 124.7 184.17 124.76 185.07 124.67 185.92 124.53 186.75 124.25 187.48 123.88 187.99 123.51 188.39 123.06 188.7 122.58 188.93 122.07 189.1 121.56 189.18 121.02 189.24 120.48 189.27 120 189.24 119.49 189.13 118.98 188.99 118.5 188.76 118.04 188.48 117.59 188.14 117.19 187.77 116.8 187.34 116.43 186.89 116.11 186.38 115.8 185.84 115.58 185.24 115.35 184.65 115.18 184.02 115.07 183.37 114.98 182.69 114.95 182.58 114.92 182.47 114.92 182.21 114.9 181.87 114.9 181.42 114.9 180.91 114.92 180.31 114.98 179.69 115.09 179.01 115.26 178.3 115.52 177.62 115.83 176.91 116.23 176.23 116.74 175.61 117.36 175.01 118.1 174.5 118.98 174.24 119.46 174.05 120 174.05 120.06 174.02 120.14 173.93 120.45 173.88 120.93 173.82 121.5 173.85 122.21 173.9 123 174.1 123.85 174.42 124.79 174.61 125.27 174.87 125.75 175.15 126.23 175.49 126.72 175.89 127.23 176.34 127.71 176.83 128.19 177.39 128.67 178.02 129.15 178.72 129.61 179.49 130.06 180.31 130.51 180.84 130.76 182.19 130.55 183.66 130.38 185.22 130.27 186.87 130.18 188.6 130.15 190.38 130.15 192.25 130.24 194.18 130.38 196.19 130.61 198.12 130.87 199.11 130.51 200.32 129.98 201.49 129.44 202.59 128.81 203.64 128.19 204.66 127.48 205.6 126.75 206.5 125.95 207.35 125.13 208.15 124.25 208.91 123.34 209.59 122.38 210.24 121.36 210.67 120.62 211.07 119.89 211.41 119.15 211.69 118.47 211.95 117.79 212.17 117.14 212.34 116.54 212.51 115.97 212.63 115.43 212.74 114.95 212.83 114.53 212.88 114.13 212.91 113.82 212.94 113.56 212.97 113.39 212.97 113.28 212.77 112.49 212.54 111.72 212 110.5 211.61 109.79 211.15 109.11 210.7 108.52 210.19 107.95 209.65 107.44 209.08 106.96 208.52 106.53 207.95 106.17 206.76 105.51 205.6 105.03 204.46 104.66 203.41 104.38 202.85 104.38 202.17 104.44 200.69 104.61 200.01 104.72 199.39 104.8 199.16 104.83 198.93 104.89 198.79 104.89 198.68 104.92 197.18 105.2 196.72 105.51 196.21 105.91 195.7 106.33 195.22 106.79 194.74 107.33 194.29 107.89 193.92 108.49 193.61 109.14 193.75 109.42 193.95 109.68 194.2 109.91 194.48 110.11 194.77 110.25 195.11 110.36 195.79 110.5 196.52 110.59 198.06 110.61 198.79 110.67 199.47 110.81 200.12 111.04 200.78 111.3 201.34 111.64 201.88 111.98 202.34 112.4 202.71 112.86 203.02 113.36 203.21 113.9 203.13 113.76 202.96 113.65 202.71 113.56 202.42 113.48 202.05 113.42 201.66 113.39 200.78 113.34 199.87 113.28 199.05 113.28 198.68 113.28 198.37 113.28 198.11 113.25 197.94 113.25 197.38 113.17 196.81 113.03 196.24 112.86 195.7 112.63 195.22 112.34 194.74 112.06 194.34 111.72 193.97 111.35 194.09 111.64 194.17 111.81 194.4 112.2 194.65 112.54 195.19 113.17 195.84 113.65 196.55 114.02 197.12 114.24 197.72 114.41 198.96 114.73 200.32 114.92 201.71 115.15 202.76 115.38 203.7 115.72 204.35 116.06 204.92 116.48 205.43 116.94 205.85 117.5 206.11 117.96 206.25 118.41 206.33 118.89 206.36 119.37 206.33 119.89 206.25 120.37 205.96 121.33 205.65 120.93 205.31 120.54 204.92 120.17 204.46 119.83 204.32 119.72 204.12 119.63 203.53 119.46 202.87 119.37 202.2 119.37 201.49 119.4 200.04 119.52 199.36 119.55 198.74 119.49 198.17 119.37 197.63 119.23 196.61 118.86 196.07 118.61 195.56 118.33 195.11 118.01 194.68 117.67 193.95 116.97 193.35 116.2 192.9 115.35 192.53 114.47 192.3 113.53 192.16 112.6 192.13 111.61 192.22 110.64 192.42 109.74 192.76 108.83 193.21 107.98 193.78 107.13 194.46 106.33 195.25 105.57 194.94 105.66 193.32 105.91 191.68 106.08 190.86 106.14 190.03 106.11 189.24 106.05 188.42 105.91 187.71 105.71 187.03 105.46 186.38 105.12 185.78 104.75 185.21 104.29 184.73 103.81 184.34 103.3 184.05 102.76 183.88 102.28 183.8 101.8 183.74 101.29 183.77 100.81 183.91 100.41 184 100.18 184.02 99.98 184.08 100.55 184.22 101.15 184.45 101.72 184.76 102.22 185.13 102.62 185.55 102.96 186.01 103.19 186.52 103.33 187.06 103.44 187.62 103.47 188.22 103.44 188.84 103.39 190.06 103.19 191.28 102.93 192.44 102.68 192.98 102.59 193.46 102.51 194.37 102.42 195.31 102.37 196.24 102.37 197.21 102.42 196.38 101.97 195.65 101.52 194.99 101.06 194.43 100.61 193.95 100.13 193.55 99.67 193.21 99.19 192.92 98.74 192.73 98.28 192.58 97.83 192.5 97.38 192.47 96.95 192.47 96.53 192.53 96.1 192.73 95.31 193.04 94.54 193.44 93.86 193.86 93.27 194.29 92.73 194.68 92.3 194.99 91.99 195.14 91.88 195.22 91.79 195.28 91.77 195.31 91.74 195.73 92.11 196.07 92.5 196.36 92.96 196.55 93.47 196.7 93.95 196.78 94.46 196.81 94.97 196.81 95.45 196.72 95.93 196.58 96.41 196.18 97.38 196.02 97.83 195.87 98.31 195.79 98.8 195.82 99.28 196.02 99.93 196.33 100.52 196.72 101.09 197.21 101.63 198.11 102.51 199.36 102.68 200.61 102.91 201.83 103.19 202.99 103.5 203.73 103.67 204.52 103.87 205.37 104.12 206.28 104.46 207.18 104.83 208.09 105.31 209 105.85 209.88 106.5 209.65 105.94 209.54 105.34 208.77 104.86 207.98 104.41 207.13 104.01 206.25 103.61 205.34 103.27 204.35 102.93 203.36 102.65 202.28 102.37 200.98 102.03 199.73 101.57 199.25 101.32 198.79 101.06 198.37 100.75 198.03 100.38 197.69 99.9 197.49 99.36 197.4 98.8 197.43 98.23 197.57 97.75 197.83 97.26 198.17 96.78 198.57 96.3 199.05 95.85 199.59 95.42 200.15 95.03 200.75 94.66 201.37 94.34 202.02 94.12 202.65 93.92 203.27 93.81 203.9 93.81 204.18 93.86 204.46 93.95 204.69 94.06 204.86 94.23 205 94.4 205.09 94.63 205.14 94.91 205.09 95.22 204.94 95.51 204.72 95.76 204.43 95.99 204.12 96.19 203.81 96.36 203.47 96.5 203.02 96.61 202.51 96.7 201.4 96.81 200.27 96.9 199.7 96.95 199.19 97.07 198.91 97.35 198.68 97.69 198.54 98.06 198.42 98.43 198.4 98.82 198.45 99.19 198.59 99.59 198.85 99.96 199.16 100.27 199.56 100.52 199.98 100.78 200.44 100.98 201.49 101.35 202.59 101.63 203.61 101.89 204.58 102.17 205.48 102.48 206.39 102.79 207.24 103.16 208.06 103.53 209.59 104.38 209.76 103.84 210.02 103.36 210.36 102.85 210.78 102.39 211.32 101.94 211.92 101.57 212.51 101.26 213.11 101.01 213.73 100.81 214.36 100.69 214.98 100.67 215.6 100.69 216.2 100.78 216.79 100.92 217.36 101.15 217.9 101.43 218.41 101.8 218.89 102.2 219.34 102.71 219.74 103.25 219.94 103.64 220.08 104.07 220.22 104.86 220.28 105.68 220.36 106.08 220.51 106.48 220.31 106.05 220.02 105.63 219.71 105.23 219.32 104.83 218.92 104.46 218.47 104.12 217.98 103.84 217.47 103.58 216.96 103.42 216.42 103.27 215.86 103.22 215.32 103.22 214.75 103.33 214.21 103.5 213.7 103.78 213.19 104.18 212.91 104.44 212.71 104.75 212.54 105.06 212.4 105.37 212.23 106.05 212.17 106.76 212.46 106.14 212.83 105.57 213.25 105.06 213.76 104.61 214.33 104.27 214.98 104.01 215.66 103.9 216.37 103.9 217.11 104.04 217.79 104.32 218.38 104.69 218.86 105.14 219.09 105.46 219.26 105.77 219.37 106.11 219.46 106.42 219.51 107.1 219.43 107.75 219.23 108.4 218.98 109.06 218.66 109.65 218.3 110.19 217.9 110.7 217.47 111.18 216.57 112.12 215.8 112.91 215.12 113.68 214.84 114.1 214.58 114.53 214.38 114.95 214.24 115.41 214.18 115.83 214.21 116.26 214.3 116.68 214.47 117.08 214.72 117.45 215.04 117.76 215.43 118.01 215.89 118.16 216.51 118.21 217.16 118.13 217.45 118.01 217.73 117.9 217.96 117.73 218.15 117.53 218.27 117.31 218.32 117.08 218.38 116.6 218.38 116.11 218.44 115.86 218.52 115.63 218.75 115.29 219.12 114.98 219.57 114.78 219.83 114.75 220.08 114.75 220.22 114.78 220.36 114.84 220.59 114.98 220.73 115.18 220.82 115.41 220.82 115.66 220.73 115.97 220.62 116.31 220.45 116.63 220.22 116.94 219.68 117.53 219 118.1 218.24 118.52 217.39 118.84 216.96 118.92 216.51 118.95 216.06 118.95 215.63 118.89 214.98 118.69 214.38 118.35 213.93 117.9 213.56 117.36 213.31 116.8 212.97 117.9 212.51 119.09 211.92 120.34 211.18 121.67 210.42 122.86 209.51 124.08 208.97 124.67 208.4 125.3 207.78 125.92 207.13 126.55 206.42 127.17 205.65 127.77 204.83 128.36 203.98 128.96 203.05 129.49 202.08 130.03 201.03 130.57 199.93 131.05 202.28 130.4 204.58 129.64 206.84 128.76 209.08 127.74 211.27 126.6 213.39 125.36 215.43 124 217.45 122.52 218.66 121.56 219.83 120.56 222.09 118.55 224.28 116.45 226.4 114.39 228.13 112.71 229.89 111.04 231.67 109.37 233.55 107.72 235.93 105.83 238.42 104.07 241 102.42 243.67 100.92 246.47 99.56 246.65 99.48 246.65 60.28 246.62 60.28 246.54 60.34 246.37 60.39 246.14 60.48 245.86 60.59 245.52 60.68 245.09 60.82 244.61 60.93 244.07 61.07 243.45 61.19 242.74 61.33 241.97 61.44 241.15 61.55 240.24 61.64 239.25 61.73 238.17 61.78 237.04 61.81 235.82 61.81 234.52 61.78 233.13 61.73 231.68 61.64 230.12 61.5 228.51 61.33 226.78 61.1 224.99 60.82 223.09 60.51 221.14 60.11 219.07 59.66 216.91 59.17 214.67 58.58 212.35 57.93 209.91 57.22 207.48 56.51 205.09 55.89 202.8 55.38 200.59 54.92 198.4 54.58 196.33 54.3 194.32 54.07 192.37 53.93 190.49 53.87 188.71 53.84 186.98 53.87 185.34 53.96 183.78 54.07 182.27 54.24 180.86 54.47 179.52 54.7 178.25 54.98 177.06 55.26 175.95 55.57 174.93 55.89 174 56.23 173.12 56.57 172.33 56.94 171.62 57.27 170.99 57.62 170.45 57.93 169.97 58.24 169.6 58.55 169.29 58.81 169.09 59.06 168.98 59.26 168.92 59.43 168.92 72.39 169.36 72.81 170.32 73.83 171.2 74.91 171.74 75.73 172.14 76.58 172.45 77.46 172.65 78.34 172.76 79.22 172.76 80.13 172.67 81.01 172.48 81.88 172.19 82.76 171.8 83.61 171.31 84.44 170.75 85.23 170.09 85.97 169.36 86.67 168.92 87.01 168.92 88.86 169.53 88.99 170.63 89.33 171.77 89.72 172.93 90.23 173.02 90.01 173.16 89.72 173.33 89.38 173.53 89.02 173.78 88.65 174.09 88.25 174.46 87.82 174.86 87.43 175.31 87.06 175.85 86.69 176.42 86.35 177.07 86.07 177.81 85.84 178.6 85.64 179.48 85.56 180.41 85.53 181.24 85.58 181.63 85.67 182 85.78 182.31 85.92 182.62 86.12 182.88 86.38 183.08 86.66 183.22 86.97 183.3 87.31 183.3 87.65 183.28 88.02 183.14 88.33 182.94 88.65 182.65 88.93 182.29 89.13 181.8 89.3 181.29 89.36 180.78 89.36 180.24 89.33 179.17 89.24 178.63 89.21 178.12 89.24 177.18 89.44 176.36 89.78 175.62 90.23 175 90.8 174.77 91.2 176.11 92.05 176.79 92.53 177.47 93.07 177.44 93.07 177.35 93.07 177.18 93.07 176.98 93.1 176.73 93.13 176.45 93.18 176.11 93.27 175.74 93.35 175.34 93.49 174.92 93.64 174.43 93.86 173.98 94.09 173.47 94.4 172.96 94.74 172.45 95.14 171.94 95.59 171.43 96.1 170.92 96.7 170.41 97.35 169.9 98.09 169.44 98.88 168.96 99.79 168.92 99.87 168.92 135.54 168.92 135.74 168.95 135.57 169.09 135.37 169.29 135.11 169.6 134.86 169.97 134.58 170.43 134.26 170.96 133.92 171.59 133.58 172.3 133.24 173.06 132.9 173.94 132.56 174.88 132.22 175.9 131.88 177 131.57 178.19 131.29 178.75 131.16 178.24 130.88 177.42 130.34"/><polygon class="cls-1" points="123.13 131.76 121.43 131.14 119.73 130.48 118 129.75 116.27 128.95 114.57 128.1 112.87 127.17 111.2 126.18 109.53 125.16 107.85 124.11 106.21 122.94 104.59 121.75 101.39 119.29 98.13 116.77 94.76 114.24 93 113 91.21 111.78 89.91 110.92 88.55 110.1 87.36 110.25 86.22 110.39 86.15 110.4 86.15 136.56 86.18 136.59 86.26 136.62 86.4 136.67 86.6 136.76 86.89 136.87 87.2 136.99 87.59 137.1 88.05 137.21 88.56 137.35 89.15 137.5 89.8 137.61 90.54 137.72 91.33 137.84 92.21 137.95 93.18 138.01 94.2 138.06 95.3 138.12 96.5 138.12 97.74 138.09 99.1 138.03 100.52 137.95 102.02 137.81 103.61 137.64 105.31 137.41 107.07 137.13 108.94 136.81 110.89 136.42 112.94 135.97 115.06 135.45 117.3 134.89 119.63 134.24 122.06 133.53 124.5 132.82 125.66 132.51 124.83 132.27 123.13 131.76"/><polygon class="cls-1" points="126.85 131.05 125.31 130.51 123.78 129.92 122.25 129.26 120.78 128.56 119.3 127.82 117.86 127 116.44 126.15 115.05 125.24 113.66 124.31 112.33 123.28 109.92 121.3 107.63 119.26 105.42 117.16 103.26 115.06 101.56 113.39 99.83 111.72 98.05 110.08 96.2 108.46 96.09 108.37 95.89 108.23 95.55 108.01 95.1 107.69 94.56 107.35 93.91 106.93 93.17 106.47 92.32 105.99 91.38 105.45 90.36 104.92 89.23 104.35 88.04 103.78 86.74 103.22 86.15 102.97 86.15 106.96 86.31 107.04 88.15 108.03 89.94 109.08 91.67 110.16 91.84 110.25 91.89 110.27 91.75 110.22 92.46 110.67 94.3 111.92 96.06 113.19 97.79 114.47 99.46 115.74 102.72 118.3 105.9 120.73 107.49 121.89 109.07 123.03 110.69 124.11 112.3 125.1 113.92 126.06 115.56 126.97 117.21 127.82 118.85 128.61 120.5 129.35 122.17 130.03 123.78 130.63 125.4 131.16 127.02 131.68 127.99 131.94 128.99 131.72 128.4 131.56 126.85 131.05"/><polygon class="cls-1" points="116.1 112.57 116.56 113.11 116.98 113.67 116.95 113.48 116.95 113.33 116.95 113.25 116.95 113.19 116.95 113.11 117.04 112.77 117.12 112.29 117.24 111.8 117.61 110.87 117.89 110.16 118.11 109.39 118.17 108.88 118.14 108.32 118.06 107.72 117.89 107.13 117.63 106.53 117.29 105.97 116.9 105.48 116.44 105.06 116.05 104.83 115.62 104.66 115.29 104.6 115.29 111.71 116.1 112.57"/><polygon class="cls-1" points="161.42 98.88 160.97 98.09 160.46 97.35 159.95 96.7 159.44 96.1 158.93 95.59 158.42 95.14 157.91 94.74 157.4 94.4 156.89 94.09 156.43 93.86 155.95 93.64 155.53 93.49 155.13 93.35 154.76 93.27 154.42 93.18 154.14 93.13 153.88 93.1 153.68 93.07 153.51 93.07 153.43 93.07 153.4 93.07 153.46 93.01 153.57 92.9 153.8 92.7 154.08 92.47 154.45 92.16 154.9 91.82 155.44 91.45 156.04 91.08 155.87 90.8 155.24 90.23 154.51 89.78 153.68 89.44 152.75 89.24 152.24 89.21 151.7 89.24 150.62 89.33 150.08 89.36 149.57 89.36 149.06 89.3 148.58 89.13 148.21 88.93 147.93 88.65 147.73 88.33 147.62 88.02 147.56 87.65 147.59 87.31 147.64 86.97 147.79 86.66 147.99 86.38 148.24 86.12 148.55 85.92 148.86 85.78 149.23 85.67 149.63 85.58 150.45 85.53 151.36 85.56 152.21 85.64 152.98 85.81 153.68 86.04 154.33 86.32 154.9 86.63 155.41 86.97 155.89 87.34 156.29 87.71 156.66 88.11 156.97 88.5 157.23 88.87 157.45 89.24 157.62 89.58 157.77 89.86 157.88 90.12 158.56 89.81 159.27 89.53 160.03 89.27 160.83 89.04 161.68 88.82 161.95 88.77 161.95 87.03 161.48 86.67 160.74 85.97 160.09 85.23 159.52 84.44 159.04 83.61 158.67 82.76 158.39 81.88 158.19 81.01 158.11 80.13 158.11 79.22 158.19 78.34 158.42 77.46 158.73 76.58 159.12 75.73 159.66 74.91 160.54 73.83 161.48 72.81 161.95 72.35 161.95 59.43 161.92 59.26 161.8 59.06 161.61 58.81 161.35 58.55 161.04 58.24 160.61 57.93 160.13 57.62 159.59 57.27 158.97 56.94 158.26 56.57 157.47 56.23 156.62 55.89 155.68 55.57 154.66 55.26 153.58 54.98 152.42 54.7 151.17 54.47 149.87 54.24 148.45 54.07 146.98 53.96 145.45 53.87 143.8 53.84 142.1 53.87 140.29 53.93 138.42 54.07 136.49 54.3 134.45 54.58 132.32 54.92 130.14 55.38 127.87 55.89 125.52 56.51 123.08 57.22 122.86 57.3 122.66 57.36 122.43 57.53 122.35 57.67 122.35 57.81 122.49 58.07 122.55 58.18 122.52 58.32 122.4 58.44 122.29 58.49 122.15 58.55 121.95 58.61 121.72 58.69 121.41 58.75 121.04 58.81 120.62 58.86 120.11 58.95 119.51 59 118.86 59.06 118.12 59.15 117.27 59.2 116.34 59.26 115.29 59.34 115.29 100.61 115.31 100.61 115.93 100.58 116.56 100.61 117.18 100.72 117.8 100.92 118.4 101.17 118.99 101.49 119.59 101.85 120.13 102.31 120.55 102.76 120.89 103.27 121.15 103.75 121.32 104.29 122.85 103.44 123.67 103.07 124.52 102.7 125.43 102.39 126.33 102.08 127.3 101.8 128.32 101.54 129.42 101.26 130.45 100.89 130.93 100.69 131.35 100.44 131.75 100.18 132.06 99.87 132.32 99.5 132.46 99.11 132.52 98.74 132.49 98.34 132.37 97.97 132.23 97.6 132.01 97.26 131.72 96.98 131.21 96.86 130.64 96.81 129.51 96.72 128.4 96.61 127.89 96.53 127.44 96.41 127.1 96.27 126.79 96.1 126.48 95.9 126.19 95.67 125.97 95.42 125.83 95.14 125.77 94.82 125.8 94.54 125.91 94.31 126.05 94.14 126.22 93.97 126.45 93.86 126.73 93.78 127.02 93.72 127.64 93.72 128.26 93.83 128.92 94.03 129.54 94.26 130.16 94.57 130.76 94.94 131.35 95.33 131.86 95.76 132.34 96.21 132.74 96.69 133.08 97.18 133.31 97.66 133.48 98.14 133.54 98.71 133.45 99.28 133.22 99.81 132.88 100.3 132.54 100.66 132.12 100.98 131.66 101.23 131.18 101.49 129.93 101.94 128.63 102.28 127.55 102.56 126.56 102.85 125.57 103.19 124.66 103.53 123.78 103.92 122.93 104.32 122.14 104.77 121.38 105.26 121.26 105.85 121.03 106.42 121.91 105.77 122.82 105.23 123.73 104.75 124.66 104.38 125.54 104.04 126.39 103.78 127.19 103.58 127.92 103.41 129.08 103.1 130.3 102.82 131.55 102.59 132.8 102.42 133.71 101.54 134.16 101 134.58 100.44 134.9 99.84 135.09 99.19 135.12 98.71 135.04 98.23 134.9 97.74 134.7 97.29 134.3 96.33 134.16 95.84 134.1 95.36 134.1 94.88 134.13 94.37 134.22 93.86 134.36 93.38 134.56 92.87 134.84 92.42 135.18 92.02 135.61 91.65 135.63 91.68 135.69 91.71 135.77 91.79 135.92 91.91 136.23 92.22 136.62 92.64 137.05 93.18 137.48 93.78 137.87 94.46 138.18 95.22 138.38 96.02 138.44 96.44 138.44 96.86 138.41 97.29 138.33 97.74 138.18 98.2 137.99 98.65 137.7 99.11 137.36 99.59 136.96 100.04 136.48 100.52 135.92 100.98 135.26 101.43 134.53 101.88 133.71 102.34 134.64 102.28 135.58 102.28 136.51 102.34 137.45 102.42 137.93 102.51 138.47 102.59 139.6 102.85 140.82 103.1 142.07 103.3 142.66 103.36 143.26 103.39 143.85 103.36 144.39 103.24 144.9 103.1 145.36 102.88 145.78 102.53 146.15 102.14 146.46 101.63 146.69 101.06 146.83 100.47 146.89 99.9 146.92 100.1 147 100.32 147.06 100.52 147.11 100.72 147.17 101.2 147.11 101.71 147 102.19 146.83 102.68 146.55 103.22 146.18 103.72 145.7 104.21 145.13 104.66 144.53 105.03 143.88 105.37 143.2 105.62 142.49 105.82 141.67 105.97 140.88 106.02 140.05 106.05 139.23 105.99 137.59 105.82 135.97 105.57 135.66 105.48 136.46 106.25 137.14 107.04 137.7 107.89 138.16 108.74 138.5 109.65 138.69 110.56 138.78 111.52 138.75 112.51 138.61 113.45 138.38 114.38 138.01 115.26 137.56 116.11 136.96 116.88 136.23 117.59 135.8 117.93 135.35 118.24 134.84 118.52 134.3 118.78 133.28 119.15 132.74 119.29 132.17 119.4 131.55 119.46 130.87 119.43 129.42 119.32 128.72 119.29 128.04 119.29 127.38 119.37 126.79 119.54 126.42 119.74 126 120.08 125.6 120.45 124.92 121.24 124.66 120.28 124.58 119.8 124.55 119.29 124.58 118.81 124.66 118.32 124.8 117.87 125.06 117.42 125.49 116.85 126 116.4 126.56 115.97 127.21 115.63 128.18 115.29 129.2 115.06 130.59 114.84 131.95 114.64 133.2 114.33 133.79 114.16 134.36 113.93 135.07 113.56 135.72 113.08 136.26 112.46 136.51 112.12 136.74 111.72 136.82 111.55 136.94 111.27 136.57 111.63 136.17 111.97 135.69 112.26 135.21 112.54 134.67 112.77 134.1 112.94 133.54 113.08 132.97 113.17 132.8 113.17 132.54 113.19 132.23 113.19 131.86 113.19 131.04 113.19 130.13 113.25 129.26 113.31 128.86 113.33 128.52 113.39 128.21 113.48 127.95 113.56 127.78 113.67 127.7 113.82 127.89 113.28 128.21 112.77 128.58 112.31 129.03 111.89 129.57 111.55 130.13 111.21 130.79 110.95 131.44 110.73 132.12 110.58 132.86 110.53 134.39 110.5 135.12 110.42 135.8 110.27 136.14 110.16 136.43 110.02 136.71 109.82 136.96 109.59 137.16 109.34 137.3 109.05 136.99 108.4 136.6 107.81 136.17 107.24 135.69 106.7 135.18 106.25 134.7 105.82 134.19 105.43 133.73 105.11 132.23 104.83 132.12 104.8 131.98 104.8 131.75 104.75 131.52 104.72 130.9 104.63 130.22 104.52 128.74 104.35 128.06 104.29 127.5 104.29 126.45 104.58 125.31 104.94 124.15 105.43 122.96 106.08 122.39 106.45 121.8 106.87 121.26 107.35 120.72 107.86 120.21 108.43 119.73 109.03 119.28 109.71 118.88 110.42 118.63 111.01 118.37 111.63 118.14 112.4 117.94 113.19 117.94 113.31 117.97 113.48 118 113.73 118.03 114.04 118.09 114.44 118.17 114.86 118.28 115.35 118.4 115.89 118.57 116.45 118.74 117.05 118.97 117.7 119.22 118.38 119.5 119.06 119.84 119.8 120.24 120.53 120.67 121.27 121.32 122.29 122 123.26 122.76 124.16 123.56 125.04 124.41 125.86 125.31 126.66 126.25 127.39 127.27 128.1 128.32 128.73 129.42 129.35 130.59 129.89 131.81 130.43 133.05 130.88 133.22 130.93 133.49 130.89 135.56 130.61 137.51 130.38 139.44 130.24 141.25 130.15 143.01 130.15 144.68 130.18 146.27 130.27 147.8 130.38 149.25 130.55 150.05 130.68 150.6 130.43 151.45 129.97 152.22 129.52 152.9 129.07 153.52 128.59 154.09 128.1 154.6 127.62 155.05 127.14 155.42 126.63 155.76 126.15 156.07 125.67 156.33 125.18 156.52 124.7 156.84 123.77 157.01 122.92 157.09 122.12 157.09 121.41 157.03 120.85 156.98 120.36 156.89 120.05 156.86 119.97 156.86 119.91 156.67 119.37 156.41 118.89 155.9 118.01 155.3 117.28 154.68 116.65 154 116.14 153.29 115.74 152.58 115.43 151.9 115.18 151.22 115.01 150.57 114.89 150.01 114.84 149.47 114.81 149.04 114.81 148.67 114.81 148.45 114.84 148.33 114.84 148.22 114.86 147.54 114.89 146.89 114.98 146.26 115.09 145.67 115.26 145.07 115.49 144.53 115.72 144.02 116.03 143.57 116.34 143.14 116.71 142.78 117.11 142.44 117.5 142.15 117.95 141.93 118.41 141.78 118.89 141.67 119.4 141.64 119.91 141.67 120.39 141.73 120.93 141.81 121.47 141.98 121.98 142.21 122.49 142.52 122.97 142.92 123.43 143.43 123.8 144.17 124.16 144.99 124.45 145.84 124.59 146.74 124.67 147.62 124.62 148.5 124.45 149.32 124.19 150.09 123.82 150.46 123.6 150.77 123.34 151.05 123.06 151.28 122.75 151.48 122.46 151.65 122.15 151.76 121.81 151.82 121.5 151.82 121.07 151.79 120.65 151.71 120.25 151.54 119.85 151.34 119.51 151.08 119.17 150.8 118.89 150.46 118.64 150.12 118.44 149.75 118.27 149.38 118.15 148.96 118.1 148.53 118.07 148.11 118.07 147.71 118.13 147.34 118.27 147.06 118.49 146.86 118.75 146.55 119.29 146.4 119.49 146.21 119.66 145.75 119.97 145.19 120.14 144.59 120.19 144.19 120.17 143.83 120.05 143.6 119.94 143.4 119.8 143.26 119.66 143.17 119.49 143.14 119.34 143.14 119.17 143.26 118.83 143.46 118.55 143.74 118.3 144.02 118.04 144.36 117.81 145.13 117.44 145.98 117.16 146.89 116.96 147.79 116.88 148.7 116.88 149.52 116.96 150.03 117.08 150.57 117.25 151.05 117.44 151.51 117.7 151.99 118.07 152.39 118.47 152.73 118.92 153.01 119.4 153.21 119.91 153.32 120.45 153.41 121.02 153.38 121.58 153.29 122.04 153.15 122.49 152.92 122.92 152.67 123.34 152.33 123.74 151.96 124.11 151.51 124.47 151.02 124.79 150.54 125.04 150.03 125.27 148.98 125.61 147.85 125.81 146.72 125.86 145.55 125.81 144.45 125.58 143.4 125.21 142.89 124.98 142.44 124.73 141.78 124.25 141.24 123.68 140.82 123.09 140.54 122.43 140.31 121.78 140.17 121.13 140.11 120.51 140.08 119.91 140.11 119.29 140.25 118.66 140.45 118.07 140.71 117.5 141.05 116.94 141.44 116.42 141.93 115.94 142.44 115.52 143 115.09 143.63 114.72 144.31 114.41 144.99 114.16 145.72 113.93 146.52 113.79 147.31 113.67 148.13 113.65 148.67 113.59 149.27 113.59 149.92 113.59 150.6 113.67 151.31 113.79 152.05 113.93 152.78 114.16 153.52 114.44 154.26 114.81 154.96 115.23 155.64 115.72 156.3 116.31 156.92 116.99 157.46 117.76 157.94 118.64 158.37 119.6 158.37 119.66 158.39 119.74 158.45 119.88 158.48 120.08 158.57 120.56 158.62 121.22 158.62 121.98 158.54 122.83 158.37 123.82 158.05 124.84 157.86 125.35 157.6 125.86 157.32 126.4 156.95 126.94 156.55 127.48 156.07 128.05 155.56 128.61 154.94 129.15 154.26 129.72 153.49 130.26 152.64 130.8 152.15 131.06 153.1 131.29 154.24 131.57 155.31 131.88 156.28 132.22 157.18 132.56 158.01 132.9 158.77 133.24 159.42 133.58 160.02 133.92 160.53 134.26 160.95 134.58 161.32 134.86 161.58 135.11 161.78 135.37 161.92 135.57 161.95 135.74 161.95 135.54 161.95 99.88 161.9 99.79 161.42 98.88"/><polygon class="cls-1" points="144.99 118.32 144.65 118.52 144.39 118.72 144.17 118.92 143.99 119.12 143.97 119.23 143.97 119.32 144.05 119.4 144.19 119.49 144.59 119.54 144.9 119.51 145.21 119.43 145.5 119.32 145.7 119.17 145.87 119 146.01 118.81 146.29 118.27 146.6 117.7 145.75 117.98 144.99 118.32"/><polygon class="cls-1" points="116.58 104.18 117.15 104.52 117.66 104.97 118.09 105.48 118.46 106.05 118.74 106.67 118.68 105.97 118.51 105.28 118.37 104.97 118.2 104.66 117.97 104.35 117.72 104.09 117.21 103.7 116.7 103.41 116.16 103.24 115.59 103.13 115.29 103.13 115.29 103.82 115.93 103.92 116.58 104.18"/><polygon class="cls-1" points="129.17 95.02 128.32 94.68 127.89 94.54 127.47 94.48 127.19 94.48 126.96 94.54 126.85 94.6 126.79 94.71 126.79 94.82 126.82 94.97 126.93 95.11 127.07 95.25 127.41 95.5 127.84 95.7 128.21 95.79 128.66 95.87 129.17 95.9 129.71 95.93 130.7 96.02 129.99 95.5 129.17 95.02"/><polygon class="cls-1" points="89.91 102.34 92.49 103.98 94.98 105.74 97.36 107.64 99.24 109.28 101.02 110.95 102.78 112.63 104.51 114.3 106.63 116.37 108.82 118.47 111.08 120.48 112.25 121.47 113.47 122.43 115.48 123.91 117.52 125.27 119.64 126.52 121.83 127.65 124.07 128.67 126.33 129.55 128.63 130.31 130.98 130.97 129.88 130.48 128.83 129.95 127.87 129.41 126.93 128.87 126.08 128.27 125.26 127.68 124.49 127.08 123.78 126.46 123.13 125.83 122.51 125.21 121.94 124.59 121.43 123.99 120.5 122.77 119.73 121.58 118.99 120.25 118.4 119 117.94 117.81 117.58 116.71 117.35 117.28 116.98 117.81 116.53 118.27 115.93 118.61 115.28 118.81 114.86 118.86 114.4 118.86 113.95 118.83 113.52 118.75 112.67 118.44 111.91 118.01 111.23 117.44 110.69 116.85 110.46 116.54 110.29 116.23 110.18 115.89 110.09 115.57 110.09 115.32 110.15 115.09 110.32 114.89 110.55 114.75 110.69 114.69 110.83 114.67 111.08 114.67 111.34 114.69 111.79 114.89 112.16 115.21 112.39 115.55 112.47 115.77 112.53 116.03 112.53 116.51 112.59 116.99 112.64 117.22 112.76 117.44 112.96 117.64 113.18 117.81 113.47 117.93 113.75 118.04 114.4 118.13 115.02 118.07 115.48 117.93 115.88 117.67 116.19 117.36 116.44 116.99 116.61 116.59 116.7 116.17 116.73 115.74 116.67 115.32 116.53 114.86 116.33 114.44 116.07 114.02 115.79 113.59 115.11 112.82 114.35 112.03 113.44 111.09 113.01 110.61 112.62 110.1 112.54 110 109.68 108.16 103.61 111.76 103.61 61.58 102.14 61.73 100.63 61.78 99.1 61.81 97.6 61.78 96.13 61.7 94.68 61.58 93.29 61.44 91.96 61.27 90.74 61.1 89.64 60.93 88.64 60.76 87.79 60.62 87.42 60.53 87.08 60.48 86.8 60.42 86.57 60.37 86.4 60.34 86.26 60.31 86.18 60.28 86.15 60.28 86.15 100.3 87.25 100.83 89.91 102.34"/><polygon class="cls-1" points="134.24 115.69 133.08 115.97 131.92 116.2 130.73 116.4 129.62 116.57 128.89 116.74 128.23 116.99 127.87 117.16 127.55 117.36 127.3 117.59 127.04 117.84 127.87 117.76 128.66 117.73 129.42 117.78 130.16 117.84 131.07 117.9 131.47 117.93 131.78 117.9 132.54 117.73 133.31 117.44 134.16 116.96 134.95 116.37 135.63 115.63 136.17 114.84 135.38 115.26 134.24 115.69"/><polygon class="cls-1" points="111.91 116.17 111.85 115.91 111.77 115.72 111.62 115.52 111.42 115.32 111.17 115.18 110.97 115.15 110.89 115.18 110.77 115.32 110.75 115.52 110.8 115.72 110.89 115.94 111.17 116.4 111.54 116.82 111.96 117.19 111.94 116.68 111.91 116.17"/><path class="cls-1" d="M330.7,104.27l-.2-1-.32-.86-.37-.94-.46-.87-.56-.88-.63-.82-.71-.8-.79-.74-.85-.73-1-.63-.54-.28-.57-.23-.59-.19-.6-.15h-.73l-.57.06-.54.17-.43.31-.17.17-.14.22-.11.4v.4l.11.39.26.37.31.34.37.34.39.26.43.23.65.22.71.17.79.17.83.12.79.14.79.17.77.2.68.28.39.62.32.65.28.68.23.69.17.68.11.7v1.42l-.09.68-.17.68-.19.68-.32.68-.37.65-.42.63-.54.59-.59.57-.83.65-.87.57-.94.51-1,.45-1.05.4-1.11.34-1.13.31-1.13.23-1.17.17-1.19.14-1.16.09h-2.35l-1.14-.06-1.1-.11-1.08-.15-.45-1.39-.54-1.33-.65-1.27-.77-1.19L306,108.1l-.91-1.07-1-1-1-.94-1.08-.91-1.08-.82-1.1-.79-1.14-.71-1.13-.68-1.13-.63-1.11-.56-1.11-.51-1.75-.77L290.64,98l-1.87-.62-1.92-.57-2-.51-2-.45-2-.4-2-.31-2-.26-2.07-.2-2.07-.14-2,0h-2l-2,.08-2,.12-2,.19.59-.36.54-.37.51-.43.46-.48.31-.37.25-.39.4-.83.28-.82.15-.85.08-.88V86.52h-.06l0-.11-.25.06-.31.11-.37.14-.43.2-.45.23-.45.31-.49.37-.45.45-.43.54-.39.6-.34.7-.26.77-.2.91-.08,1V93l-.06.22-.08.32-.11.34-.2.39-.26.43-.31.42-2.41.49-1.19.28-1.13.31-1.59.48-1.56.51-1.53.54-1.5.6-1.45.59-1.27.57v1.42l1.78-.83,2.47-1,2.55-.93,2.66-.82,2.13-.54,2.18-.46,2.3-.34,2.35-.25,2.38-.11,2.44-.06,2.49.06,2.47.17,2.49.25,2.47.34,2.44.45,2.44.54L287,98l2.3.73,2.23.8,2.13.9,1,.49,1,.51,1,.56,1.05.6,1,.68,1.05.71,1,.73,1,.83.94.85.9.9.85,1,.8,1,.71,1.07.65,1.14.54,1.22.45,1.24-1.84-.53-1.76-.63-1.67-.76-1.62-.85-1.61-1-1.56-1-3.15-2.13-2.69-1.84-1.39-.88-1.39-.88-1.47-.82-1.48-.76-1.56-.68-1.58-.63-1.34-.45-1.33-.4L277.62,99,275,98.46l-2.52-.4-2.47-.28-2.4-.17H263l-2.21.14-2.12.22-2,.32-2,.37-1.87.39-1.76.46-1.7.48-1.56.51-.93.34-.31.1v1.33l.34-.13,1.53-.54,1.53-.48,1.61-.48,1.7-.43,1.82-.39,1.87-.34,2-.29,2-.22,2.13-.14,2.18-.06,2.27.06,2.32.17,2.36.25,2.44.4,2.49.54,2.52.68,2.55.82,1.53.57,1.48.68,1.44.73,1.39.8,1.36.85,1.36.85,2.64,1.81,3.2,2.18,1.68,1,1.7,1,1.75.91,1.82.82,1.93.71,1,.29,1,.25.51.11.08.34.17,1,.15,1,0,1v2l-.08,1-.12,1-.14,1-.23,1-.25.93-.28.94-.37.88-.37.88-.46.82-.48.79-.51.77L304.1,132l-1.1,1.41-1.27,1.1-1.39,1-1.45.87-1.47.74-1.56.6-1.56.45-.91.17-.9.14-1,.09-1,.05h-2l-2-.17-2-.35-1-.22-.93-.29-.91-.28-.85-.34-.85-.37-.8-.39-.62-.37-.65-.48-.63-.51-.62-.6.79-.48.74-.54.74-.57.68-.56.65-.63.6-.62.56-.68.51-.68.57-.91.51-.93.43-1,.34-1,.28-1,.2-1,.14-1,.06-1v-1l-.06-1-.11-1-.2-1-.29-1-.31-1-.39-1-.46-1-.54-1-.59-.94-.68-.88L280,110l-.88-.83-.9-.76-1-.71-1-.68-1.08-.62-1.14-.57-1.16-.51-1.22-.48-1.22-.4-1.27-.37-1.28-.31-1.3-.26-1.3-.19-1.34-.15-1.33-.11-1.3-.06H260l-1.34.06-1.33.09-1.3.14-1.31.2-1.27.25-1.28.28-1.22.37-1.22.4-.59.23-.6.19-1.1.49-1,.45v1.75l.87-.42,1.05-.48,1.08-.45.57-.2.54-.2.53-.2.57-.17,1.14-.31,1.19-.28,1.16-.23,1.22-.17,1.22-.14,1.21-.12h3.69l1.25.09,1.22.14,1.21.2,1.22.23,1.19.31,1.17.31,1.13.37,1.11.42L273,107l1.05.51,1,.56,1,.63.9.65.83.68.79.74.68.79.62.82.57.82.48.88.43.91.37.91.31.93.25.94.17.93.15,1v1.93l-.05.93-.12,1-.17.91-.11.9-.31.9-.37.88L281,128l-.53.83-.46.62-.48.59-.51.57-.57.54-.62.54-.62.48-1.36.91-.46-.74-.37-.79-.28-.85-.17-.91.43-.48.48-.48,1.05-1,.53-.45.46-.48.42-.49.32-.48.19-.39.12-.43.05-.48v-.45l-.12-.46-.2-.4L278,123l-.42-.29-.4-.17-.42-.08h-.43l-.4.05-.36.12-.37.17-.34.22-.29.26-.54.62-.42.68-.31.71-.23.77-.14.76-.09.77v.76l.06.74.2,1.22.34,1.22.22.59.26.57.31.6.34.53-.45.23-1,.45-1.05.4-.51.2-.51.17-.29.09-.28.08-.51.14-1.08.23-1.1.14-2.27.2h-2.27l-2.24-.06-.51-.06H260l-1.05-.2-1-.23-1-.28-1-.34-.91-.4-.85-.42-.82-.49-.77-.53-.68-.54-.59-.6-.54-.65-.4-.65-.31-.68-.23-.71-.11-.71v-.71l.08-.71.15-.68.25-.68.31-.65.4-.59.48-.57.51-.54.57-.48.62-.43.65-.39.71-.32.74-.25.74-.2.76-.14.77-.09H259l.74.06.68.14.68.17.62.23.57.28.54.31.48.34.4.37.34.37.28.43.23.42.14.43.08.45.06.43V126l-.06.4-.08.42-.14.37-.4.68-.51.57-.6.45-.62.34-.65.23-.62.11-.6.06H260l-.62-.06-.62-.11-.23-.06-.31-.08-.29-.11-.11-.06-.06-.09-.42-1.24-.2-.6-.2-.57-.08-.22-.14-.23-.4-.4-.23-.17-.28-.14-.29-.08h-.68l-.22.08-.2.12-.14.14-.2.34-.06.37.06.53.17.52.28.53.34.51.4.49.48.42.51.37.54.28.94.34,1,.26,1,.11h1l.65-.06.66-.08.59-.17.6-.23.88-.45.39-.29.37-.34.37-.34.31-.39.28-.43.23-.45.17-.48.14-.51.06-.51v-.54l-.06-.57-.11-.54-.2-.56-.28-.54-.37-.51-.43-.51-.54-.49-.59-.42-.65-.37-.71-.34-.77-.28-.82-.23L260,120l-.88-.09h-1.78l-.91.12-.91.17-.88.23-.88.31-.85.37-.79.45-.74.51-.68.57-.62.62-.54.68-.45.71-.4.74-.28.79-.2.79-.09.85v.83l.11.85.26.85.34.82.51.79.62.74.68.68.8.62.85.6.91.54,1,.51,1,.42,1,.4,1.1.31,1.14.26,1.16.22.6.06.62.06,2.35.11h1.19l1.19-.06,1.19-.05,1.22-.12,1.22-.2,1.22-.22.62-.17.57-.17.6-.2.56-.2,1.11-.45,1.08-.48.48-.23.65.62.71.6.76.54.8.48,1.24.59,1.31.54,1.42.46,1.44.36,1.48.29,1.53.22,1.5.12,1.53,0h1.27l1.25-.09,1.19-.14,1.16-.23.85-.22.86-.26,1.67-.65,1.61-.8,1.59-1,1.47-1.08,1.39-1.19,1.28-1.33,1.13-1.42.57-.79.51-.85.45-.88.43-.91.34-.93.34-.94.25-1,.23-1,.17-1,.11-1,.09-1v-2.15l-.09-1.11-.14-1.08-.17-1.1,2,.22,2,.06h2.21l1.08-.12,1.05-.14,1-.17,1-.23.93-.22.94-.29.88-.31.85-.34.82-.34.74-.39.73-.4.66-.43.59-.42.57-.46.82-.82.71-.85.54-.88.42-.93.29-.94.14-.93.05-1Zm-5.81-5.93-.71-.11-.65-.14-.6-.14-.51-.17-.51-.29-.42-.39-.15-.2-.11-.2v-.37l.06-.08.08-.09.17,0h.68l.54.14.54.22.54.29.54.31,1,.71.43.37.39.39ZM256.46,129l-.57-.54-.54-.65-.2-.34-.17-.34-.11-.34-.06-.34v-.12l.06-.14.09-.11.19-.06h0l.29.09.25.17.23.25.14.28.34,1,.51,1.47Z" transform="translate(0.08)"/><polygon class="cls-1" points="248.31 111.15 250.18 111.58 251.15 111.72 252.11 111.78 253.08 111.75 254.07 111.61 254.35 111.49 254.69 111.35 255.43 110.93 255.8 110.73 256.11 110.53 256.39 110.42 256.62 110.36 255.8 110.36 255.06 110.25 254.41 110.08 253.87 109.88 253.47 109.68 253.16 109.48 252.96 109.37 252.91 109.31 251.89 109 250.87 108.77 249.84 108.6 248.88 108.52 247.92 108.46 247.01 108.46 246.65 108.47 246.65 110.81 248.31 111.15"/><polygon class="cls-1" points="203.5 131.87 202.34 132.19 200.78 132.56 199.25 132.84 197.29 133.15 195.39 133.38 193.58 133.49 191.85 133.52 193.15 133.41 194.37 133.26 194.46 133.26 196.07 133.04 197.69 132.78 199.3 132.44 200.89 132.07 202.48 131.65 200.42 131.23 198.26 130.89 198.12 130.87 197.86 130.97 196.55 131.39 195.19 131.76 193.78 132.1 192.67 132.22 191.51 132.33 190.29 132.41 189.04 132.47 187.8 132.5 186.6 132.44 185.47 132.3 184.45 132.07 183.29 131.71 182.21 131.34 181.22 130.94 180.84 130.76 180.77 130.78 179.44 131 178.75 131.16 179.18 131.39 180.2 131.88 181.33 132.36 182.55 132.78 183.88 133.21 184.73 133.41 185.61 133.55 186.26 133.72 186.97 133.89 187.71 134.03 188.5 134.14 189.67 134.26 190.91 134.34 192.22 134.4 193.58 134.4 194.99 134.34 196.47 134.26 198 134.09 199.56 133.86 201.15 133.58 202.76 133.24 204.41 132.84 205.84 132.43 204.95 132.19 203.5 131.87"/><polygon class="cls-1" points="115.29 111.71 115.14 111.55 114.26 110.64 113.49 109.73 113.18 109.25 112.9 108.74 112.64 108.2 112.47 107.64 112.39 107.1 112.42 106.53 112.59 105.99 112.9 105.45 113.24 105.11 113.66 104.86 114.15 104.69 114.66 104.58 115.14 104.58 115.29 104.6 115.29 103.82 115.25 103.81 114.54 103.81 113.81 103.95 113.13 104.23 112.53 104.6 112.05 105.06 111.82 105.37 111.65 105.68 111.54 106.02 111.45 106.33 111.4 107.01 111.48 107.67 111.68 108.32 111.94 108.97 112.25 109.56 112.54 110 115.29 111.76 115.29 111.71"/><polygon class="cls-1" points="114.71 100.69 114.12 100.83 113.55 101.06 113.01 101.34 112.5 101.71 112.02 102.11 111.57 102.62 111.17 103.16 110.97 103.56 110.83 103.98 110.69 104.8 110.6 105.6 110.52 105.99 110.41 106.39 110.6 105.97 110.89 105.54 111.2 105.14 111.6 104.75 111.99 104.38 112.44 104.04 112.93 103.75 113.44 103.5 113.95 103.33 114.49 103.19 115.05 103.13 115.29 103.13 115.29 100.61 114.71 100.69"/><polygon class="cls-1" points="150.61 130.78 150.05 130.68 149.69 130.85 148.7 131.25 147.62 131.62 146.46 131.99 145.41 132.21 144.31 132.35 143.09 132.41 141.87 132.38 140.62 132.33 139.4 132.24 138.24 132.13 137.14 132.01 135.72 131.68 134.36 131.31 133.22 130.93 131.36 131.23 129.15 131.68 128.99 131.72 129.99 131.99 131.58 132.35 133.2 132.69 134.81 132.95 136.43 133.18 136.54 133.18 137.76 133.32 139.06 133.43 137.33 133.4 135.52 133.29 133.62 133.06 131.66 132.75 130.13 132.47 128.58 132.1 127.99 131.94 126.85 132.19 125.66 132.51 126.5 132.75 128.15 133.15 129.77 133.49 131.35 133.77 132.91 134 134.44 134.17 135.92 134.25 137.33 134.31 138.69 134.31 140 134.25 141.24 134.17 142.41 134.06 143.2 133.94 143.94 133.8 144.65 133.63 145.3 133.46 146.18 133.32 147 133.12 148.33 132.69 149.55 132.27 150.68 131.79 151.71 131.31 152.15 131.06 151.91 131 150.61 130.78"/><path class="cls-1" d="M84.31,106.11l-1.11-.51-1.13-.48-.57-.2-.6-.23-1.21-.39-1.22-.37-1.28-.29-1.27-.25-1.31-.2-1.3-.14L72,103l-1.34,0h-1.3L68,103l-1.34.12-1.33.14-1.3.2-1.31.25-1.27.31-1.28.37-1.22.4-1.21.48-1.17.51-1.13.57-1.08.62-1,.68-1,.71-.91.77-.87.82-.77.88-.68.88-.6.93-.53,1-.46,1-.39,1-.32,1-.28,1-.2,1-.11,1-.06,1v1l.06,1,.14,1,.2,1,.28,1,.34,1,.43,1,.51.93.56.91.51.68.57.68.6.62.65.63.68.57.74.56.73.54.8.48-.63.6-.62.51-.65.48-.63.37-.79.4-.85.36-.85.34-.91.29-.93.28-1,.23-2,.34-2,.17h-2l-1-.06-1-.09-.91-.14-.9-.17-1.56-.45-1.56-.6-1.47-.73-1.45-.88-1.39-1-1.28-1.11L26.4,132.1l-1.07-1.31-.51-.76-.49-.8-.45-.82-.37-.88-.37-.88-.28-.93-.26-.94-.19-1-.17-1-.12-1-.08-1v-3l.14-1,.17-1,.09-.34.51-.12,1-.25,1-.31,1.93-.68,1.81-.83,1.76-.9,1.7-1,1.67-1L37,108l2.63-1.78,1.36-.88,1.37-.85,1.38-.79,1.45-.74,1.47-.68,1.53-.57,2.56-.82,2.52-.68,2.49-.54,2.44-.4L60.58,99l2.33-.17,2.27-.06,2.18.06,2.12.14,2,.23,2,.28,1.9.34,1.78.4,1.71.42,1.61.48,1.53.49,1.53.53,1.45.57.77.32v-2.75l-1.71-.83-1.44-.66-1.45-.59-1.5-.6-1.53-.53-1.56-.51L75,96.1l-1.13-.31-1.19-.28L70.25,95l-.31-.43-.26-.42-.2-.4-.11-.34-.09-.31V92.7l-.09-1L69,90.79,68.74,90l-.34-.71-.4-.6-.42-.54-.46-.45-.48-.37-.45-.31-.45-.23-.43-.19-.37-.15-.31-.11-.25-.06h-.2v2.61l.08.87.14.85.29.83.39.82.26.4.31.36.45.49.51.42.54.37.6.37-2-.2-2-.11-2-.09h-2l-2,.06-2.07.14-2.06.2-2,.25-2,.31-2,.4-2,.45-2,.51-1.93.57-1.87.62L38,98.49l-1.76.77-1.1.51-1.11.57-1.13.62-1.13.68-1.14.71-1.1.79-1.08.83-1.08.9-1,.94-1,1-.91,1.08L23.62,109l-.77,1.19-.65,1.28-.54,1.33-.45,1.39-1.08.14-1.11.11-1.13.06H15.54l-1-.11-1.2-.14-1.17-.14-1.13-.22-1.14-.32-1.1-.34-1-.39-1-.46-.94-.51L5,111.33l-.82-.66-.59-.56-.54-.6-.43-.62-.37-.65-.31-.68-.2-.68-.17-.69-.08-.68V104.1l.11-.71.17-.68L2,102l.28-.68.31-.65.4-.63.68-.28.77-.2.75-.18L6,99.27l.8-.12L7.59,99l.71-.17L9,98.59l.42-.23.4-.25.37-.34.31-.34.26-.37.11-.4v-.4l-.11-.39-.15-.23-.17-.17L10,95.16,9.43,95l-.6-.06H8.49L8.13,95l-.6.14-.59.2-.57.22-.54.29-1,.62L4,97.2l-.8.73-.71.8-.62.82-.54.88-.48.88-.37.93-.28.94-.17,1-.09,1,.06,1,.14.94.29.93.42.94.54.87.68.86.82.82.57.45.59.43.68.42.71.4.77.39L7,114l.85.34.91.31.91.28,1,.23,1,.22,1,.17,1,.15,1.08.11,1.1.06h3.11l2-.23-.18,1.11-.14,1.07-.08,1.11v2.15l.08,1,.12,1,.17,1,.22,1,.26,1,.34.93.37.94.39.9.46.88.51.85.56.8,1.14,1.41,1.27,1.34,1.39,1.19,1.51,1.07,1.55,1,1.62.79,1.67.65.85.26.85.23,1.17.22,1.19.14,1.24.09h1.28l1.53-.06,1.5-.11,1.53-.23,1.48-.28,1.44-.37,1.42-.46,1.3-.53,1.25-.6.79-.48.77-.54.71-.59.65-.63.45.23,1.11.51,1.11.42.56.2.6.2.56.17.63.17,1.22.23,1.22.2,1.21.11,1.2.06,1.19.05h1.19l2.35-.11,1.22-.11L72.1,137l1.13-.26,1.11-.31,1-.39,1-.43,1-.51.91-.54.85-.59.79-.63.68-.68.63-.73.51-.8.34-.82.25-.85.15-.85v-.82l-.09-.85-.2-.8-.28-.79-.4-.74-.45-.71-.54-.68-.62-.62-.68-.57-.74-.51-.8-.45-.85-.37-.87-.31-.88-.23-.91-.17-.91-.11H71.5l-.88.08-.85.17-.82.23-.77.28-.71.34-.68.37-.59.43-.51.48-.43.51-.37.51-.28.54-.2.56-.11.54-.06.57v.54l.09.51.11.51.2.48.22.45.29.43.31.4.37.34.37.34.39.28.88.45.6.23.62.17.62.09.66.05h1l1-.11,1-.25.94-.34.54-.29.51-.37.48-.42.4-.48.34-.51.28-.54.17-.51.06-.54-.06-.37-.2-.34-.14-.14-.11-.16-.23-.09h-.68l-.28.09-.28.14-.23.17-.4.39-.14.23-.08.23-.2.56-.2.6L73,129l0,.08-.12.06-.28.11-.31.09-.26.05-.59.12-.63,0H69.63l-.62-.12-.65-.22-.63-.34-.55-.45-.51-.57-.4-.68-.14-.36-.11-.43L66,126v-.85l.11-.45.14-.43.23-.42.28-.43.34-.36.4-.37.48-.34.54-.31.57-.29.62-.22.68-.17.68-.15.74-.05h1.5l.74.08.76.14.74.2.74.26.71.31.65.4.65.42.57.48.51.54.48.57.4.59.31.66.25.68.17.68.06.7v.71l-.11.71-.23.71-.31.68-.4.65-.54.66-.59.59-.68.54-.77.54-.82.48-.85.42-.91.4-1,.34-1,.29-1,.22-1,.2-.51.06h-.54l-2.21.06H65.27L63,135.9l-1.1-.14-1.08-.22-.26-.06-.25-.09-.29-.08-.28-.09-.51-.17-.51-.2-1-.39-1-.46-.45-.22.34-.54.31-.6.25-.56.23-.6.31-1.22.23-1.22.06-.73v-.77l-.08-.76-.14-.77-.23-.76-.31-.71-.43-.68-.54-.63-.28-.25-.34-.23-.37-.17-.37-.11-.39-.06H54l-.42.09-.4.17-.43.28-.34.37-.19.39-.12.46v.45l.06.48.11.43.2.4.31.48.43.48.45.48.54.45,1,1,.48.48.43.48-.17.91-.29.85-.36.79-.46.74-1.36-.91-.62-.48-.63-.54-.56-.54-.51-.56-.48-.6-.46-.62-.54-.82-.45-.85-.37-.88-.31-.91-.26-.94-.19-.9-.12-1,0-.93v-1l0-.93.14-1,.17-.94.26-.94.31-.93.37-.91.42-.9.49-.88.56-.83.63-.82.68-.79.79-.74.82-.68.91-.65,1-.62,1-.57,1-.51,1.07-.48,1.11-.43,1.13-.37,1.19-.31,1.16-.31,1.22-.23,1.22-.2,1.22-.14,1.25-.07h3.68l1.22.11,1.22.14,1.22.17,1.19.23,1.16.28,1.14.31.56.17.54.2.57.2.54.2,1.08.45,1,.49,1.14.53,1.13.57-.85-.08H82.91l-1,.05-1,.09-1,.17-1,.23-1,.31-.06,0-.2.12-.31.2-.4.19-.53.2-.66.17-.73.12h-.61l.28.12.32.2.37.19.73.43.34.14.29.11,1,.15h1l1-.05,1-.14,1.87-.43,1.9-.4h.34l.4-.09.45-.05.46-.08V107Zm-60.78,6.52.54-1.22.65-1.13.71-1.08.79-1,.85-1,.91-.91.94-.85,1-.82,1-.74,1-.71,1-.68,1-.59,1-.57,1-.51,1-.48,2.12-.91,2.24-.79,2.3-.74L46,97.28l2.44-.54,2.44-.46,2.46-.34,2.5-.25,2.46-.17,2.5-.06,2.44.06,2.38.11,2.35.26,2.3.34,2.18.45,2.12.54,2.67.82,2.55.94,2.47,1,2.38,1.1-.91-.31-.93-.34-1.56-.51-1.7-.48L77.76,99l-1.87-.39-2-.37-2-.31-2.13-.23-2.21-.14H62.93l-2.41.17L58.06,98l-2.53.4L53,99l-2.6.71-1.34.39-1.33.46-1.58.62-1.56.68-1.48.76-1.44.83-1.42.88-1.39.87L36.12,107l-2.94,2.13-1.56,1-1.59,1-1.64.85-1.67.76-1.76.63-1.84.54ZM5,98.06l.46-.37,1-.71L7,96.67l.54-.28L8,96.16,8.58,96h.65l.2.08.08.09v.06l.06.17-.06.19-.09.2-.17.2-.42.4-.51.28-.48.17-.6.14-.65.14-.71.12-1.3.2Zm69.37,29.65.31-1,.14-.29.26-.25.25-.17.29-.09h0l.2.06.09.11v.6l-.12.34-.17.34-.19.34-.54.65-.57.54-.48.28Z" transform="translate(0.08)"/><polygon class="cls-1" points="204.7 30.42 204.05 30.08 203.43 29.79 202.83 29.57 202.29 29.4 201.76 29.25 201.27 29.17 200.82 29.14 200.39 29.11 200 29.14 199.63 29.2 198.98 29.4 198.44 29.68 197.96 30.05 197.59 30.44 197.3 30.9 197.08 31.32 196.91 31.72 196.77 32.06 196.71 32.34 196.65 32.54 196.65 32.6 196.06 33.05 195.58 33.51 195.24 33.96 194.95 34.41 194.78 34.84 194.7 35.23 194.64 35.6 194.67 35.97 194.73 36.31 194.81 36.6 195.04 37.08 195.15 37.25 195.24 37.39 195.29 37.47 195.32 37.5 195.49 37.02 195.74 36.65 196.08 36.34 196.48 36.11 196.91 35.94 197.39 35.83 197.87 35.77 198.38 35.74 199.37 35.8 199.8 35.83 200.2 35.89 200.51 35.94 200.76 36 200.93 36.06 200.99 36.06 200.93 36.82 200.82 37.53 200.68 38.21 200.45 38.84 200.22 39.46 199.91 40.03 199.57 40.56 199.2 41.05 198.81 41.53 198.38 41.98 197.42 42.77 196.34 43.46 195.21 44.02 194.02 44.5 192.8 44.9 191.55 45.21 190.33 45.44 189.14 45.58 187.98 45.67 186.9 45.72 185.91 45.7 185.48 45.67 185.09 45.58 184.75 45.47 184.43 45.33 184.18 45.13 183.98 44.93 183.81 44.7 183.67 44.45 183.5 43.91 183.42 43.28 183.44 42.63 183.56 41.98 183.73 41.3 183.95 40.65 184.18 40.05 184.41 39.52 184.61 39.06 184.77 38.72 184.89 38.49 184.95 38.44 184.95 38.41 184.52 38.64 184.09 38.92 183.67 39.29 183.19 39.71 182.2 40.62 181.09 41.56 180.47 41.98 179.82 42.38 179.11 42.72 178.37 43 177.58 43.17 176.73 43.26 175.82 43.23 174.85 43.09 174.37 42.95 173.92 42.75 173.52 42.49 173.15 42.15 172.81 41.81 172.5 41.39 172.22 40.93 171.96 40.45 171.57 39.37 171.25 38.21 171.03 36.96 170.89 35.66 170.8 34.36 170.77 33.08 170.8 31.86 170.89 30.7 170.97 29.68 171.08 28.77 171.11 28.4 171.17 28.06 171.23 27.78 171.28 27.55 171.48 26.76 171.76 25.99 172.13 25.26 172.39 24.95 172.67 24.63 172.98 24.32 173.32 24.07 173.75 23.84 174.2 23.64 174.74 23.5 175.31 23.39 175.96 23.33 176.67 23.3 177.04 23.33 177.35 23.36 177.86 23.53 178.26 23.75 178.51 24.04 178.68 24.38 178.77 24.77 178.77 25.2 178.68 25.63 178.43 26.45 178.28 26.84 178.11 27.18 177.97 27.47 177.83 27.7 177.74 27.84 177.72 27.89 178.4 27.98 179.02 28.04 179.59 28.04 180.1 28.01 180.55 27.92 180.95 27.84 181.32 27.7 181.63 27.55 181.91 27.36 182.14 27.16 182.51 26.7 182.73 26.19 182.88 25.63 182.9 25.06 182.88 24.52 182.79 23.98 182.68 23.5 182.56 23.07 182.45 22.76 182.37 22.56 182.34 22.48 181.94 21.83 181.54 21.23 181.15 20.75 180.72 20.3 180.27 19.96 179.84 19.64 179.39 19.42 178.91 19.22 178.45 19.11 177.97 19.05 177.52 19.02 177.04 19.02 176.1 19.19 175.19 19.5 174.32 19.9 173.49 20.38 172.73 20.92 172.02 21.52 171.42 22.08 170.91 22.62 170.52 23.1 170.23 23.5 170.04 23.81 169.84 24.04 169.64 24.21 169.44 24.32 169.27 24.35 169.1 24.35 168.82 24.24 168.59 24.04 168.39 23.81 168.28 23.64 168.25 23.56 168.39 22.45 168.67 21.43 169.04 20.52 169.5 19.67 170.01 18.94 170.6 18.26 171.2 17.66 171.82 17.15 172.42 16.7 173.01 16.33 173.55 16.02 174.06 15.79 174.46 15.59 174.77 15.48 174.97 15.39 175.05 15.36 174.91 15.11 174.74 14.91 174.32 14.57 173.78 14.34 173.18 14.23 172.53 14.17 171.82 14.2 171.08 14.26 170.35 14.4 169.64 14.54 168.96 14.71 168.33 14.91 167.8 15.08 167.31 15.22 166.97 15.36 166.75 15.45 166.69 15.48 166.66 15.48 166.66 12.79 167.37 12.62 167.97 12.44 168.42 12.25 168.79 12.02 169.04 11.79 169.24 11.57 169.33 11.34 169.38 11.11 169.38 10.88 169.33 10.69 169.18 10.35 169.04 10.12 168.99 10.06 168.96 10.04 168.53 9.58 168.14 9.02 167.74 8.33 167.37 7.57 167 6.78 166.66 5.92 166.09 4.22 165.84 3.4 165.61 2.61 165.42 1.9 165.24 1.28 165.1 0.74 165.02 0.34 164.96 0.09 164.93 0.03 164.93 0 164.93 0.03 164.9 0.09 164.85 0.34 164.76 0.74 164.65 1.28 164.48 1.9 164.28 2.61 164.05 3.4 163.8 4.22 163.23 5.92 162.89 6.78 162.55 7.57 162.15 8.33 161.79 9.02 161.36 9.58 160.94 10.04 160.91 10.06 160.85 10.12 160.71 10.35 160.57 10.69 160.54 10.88 160.54 11.11 160.57 11.34 160.68 11.57 160.85 11.79 161.13 12.02 161.47 12.25 161.96 12.44 162.55 12.62 163.26 12.79 163.26 15.48 163.23 15.48 163.17 15.45 162.95 15.36 162.61 15.22 162.13 15.08 161.59 14.91 160.94 14.71 160.26 14.54 159.55 14.4 158.81 14.26 158.1 14.2 157.39 14.17 156.71 14.23 156.12 14.34 155.58 14.57 155.15 14.91 154.98 15.11 154.84 15.36 154.93 15.39 155.12 15.48 155.44 15.59 155.83 15.79 156.34 16.02 156.88 16.33 157.48 16.7 158.07 17.15 158.7 17.66 159.29 18.26 159.89 18.94 160.4 19.67 160.85 20.52 161.22 21.43 161.5 22.45 161.64 23.56 161.62 23.64 161.5 23.81 161.3 24.04 161.08 24.24 160.79 24.35 160.62 24.35 160.45 24.32 160.28 24.21 160.08 24.04 159.89 23.81 159.69 23.5 159.4 23.1 159.01 22.62 158.5 22.08 157.87 21.52 157.17 20.92 156.4 20.38 155.58 19.9 154.7 19.5 153.79 19.19 152.86 19.02 152.37 19.02 151.92 19.05 151.44 19.11 150.99 19.22 150.5 19.42 150.05 19.64 149.63 19.96 149.17 20.3 148.75 20.75 148.35 21.23 147.95 21.83 147.56 22.48 147.53 22.56 147.44 22.76 147.33 23.07 147.22 23.5 147.1 23.98 147.02 24.52 146.99 25.06 147.02 25.63 147.16 26.19 147.39 26.7 147.76 27.16 147.98 27.36 148.27 27.55 148.58 27.7 148.95 27.84 149.34 27.92 149.8 28.01 150.31 28.04 150.87 28.04 151.5 27.98 152.18 27.89 152.15 27.84 152.06 27.7 151.92 27.47 151.78 27.18 151.61 26.84 151.47 26.45 151.21 25.63 151.13 25.2 151.13 24.77 151.21 24.38 151.38 24.04 151.64 23.75 152.04 23.53 152.55 23.36 152.86 23.33 153.23 23.3 153.93 23.33 154.59 23.39 155.15 23.5 155.69 23.64 156.14 23.84 156.57 24.07 156.91 24.32 157.25 24.63 157.51 24.95 157.76 25.26 158.13 25.99 158.41 26.76 158.64 27.55 158.7 27.78 158.73 28.06 158.78 28.4 158.84 28.77 158.95 29.68 159.04 30.7 159.09 31.86 159.12 33.08 159.12 34.36 159.04 35.66 158.89 36.96 158.67 38.21 158.36 39.37 157.93 40.45 157.7 40.93 157.42 41.39 157.11 41.81 156.77 42.15 156.4 42.49 156 42.75 155.55 42.95 155.07 43.09 154.1 43.23 153.2 43.26 152.35 43.17 151.55 43 150.79 42.72 150.11 42.38 149.46 41.98 148.83 41.56 147.7 40.62 146.71 39.71 146.25 39.29 145.8 38.92 145.37 38.64 144.98 38.41 144.98 38.44 145.03 38.49 145.15 38.72 145.32 39.06 145.52 39.52 145.74 40.05 145.97 40.65 146.2 41.3 146.37 41.98 146.45 42.63 146.48 43.28 146.42 43.91 146.25 44.45 146.11 44.7 145.94 44.93 145.71 45.13 145.46 45.33 145.17 45.47 144.81 45.58 144.44 45.67 143.99 45.7 142.99 45.72 141.92 45.67 140.78 45.58 139.56 45.44 138.34 45.21 137.1 44.9 135.88 44.5 134.69 44.02 133.55 43.46 132.5 42.77 131.54 41.98 131.09 41.53 130.69 41.05 130.32 40.56 129.98 40.03 129.7 39.46 129.44 38.84 129.24 38.21 129.1 37.53 128.99 36.82 128.93 36.06 128.99 36.06 129.16 36 129.42 35.94 129.73 35.89 130.12 35.83 130.55 35.8 131.54 35.74 132.05 35.77 132.53 35.83 133.02 35.94 133.44 36.11 133.84 36.34 134.18 36.65 134.43 37.02 134.6 37.5 134.63 37.47 134.69 37.39 134.77 37.25 134.89 37.08 135.11 36.6 135.2 36.31 135.25 35.97 135.25 35.6 135.23 35.23 135.11 34.84 134.94 34.41 134.69 33.96 134.32 33.51 133.86 33.05 133.27 32.6 133.27 32.54 133.21 32.34 133.16 32.06 133.02 31.72 132.84 31.32 132.62 30.9 132.33 30.44 131.94 30.05 131.48 29.68 130.92 29.4 130.27 29.2 129.9 29.14 129.53 29.11 129.1 29.14 128.65 29.17 128.14 29.25 127.63 29.4 127.09 29.57 126.5 29.79 125.87 30.08 125.22 30.42 125.19 30.39 125.13 30.36 125.05 30.27 124.91 30.16 124.74 30.02 124.54 29.85 124.03 29.48 123.38 29.06 122.61 28.57 121.7 28.09 120.71 27.58 119.58 27.13 118.33 26.7 117 26.33 115.58 26.08 114.05 25.91 112.46 25.88 111.64 25.91 110.79 25.99 109.91 26.11 109.03 26.28 109.09 26.31 109.23 26.39 109.52 26.56 109.86 26.76 110.28 27.02 110.79 27.36 111.39 27.72 112.07 28.12 112.8 28.6 113.57 29.11 114.42 29.68 115.3 30.27 116.23 30.93 117.2 31.61 118.22 32.34 119.24 33.11 121.34 34.73 123.46 36.48 125.59 38.33 127.66 40.28 129.61 42.32 130.55 43.37 131.43 44.45 132.28 45.52 133.07 46.6 133.81 47.71 134.46 48.81 134.49 48.81 134.63 48.87 134.83 48.93 135.08 49.01 135.45 49.1 135.88 49.24 136.36 49.38 136.9 49.52 137.52 49.69 138.23 49.86 138.97 50.03 139.76 50.23 140.64 50.43 141.55 50.63 142.51 50.83 143.53 51.05 144.61 51.25 145.71 51.45 146.88 51.65 148.07 51.85 150.59 52.19 153.23 52.5 156 52.75 158.89 52.95 161.87 53.04 164.93 53.04 167.94 53.06 170.89 52.98 173.75 52.84 176.5 52.58 179.16 52.27 181.68 51.9 184.04 51.51 185.17 51.31 186.25 51.11 187.27 50.88 188.26 50.68 189.17 50.48 190.05 50.29 190.87 50.09 191.64 49.89 192.32 49.72 192.97 49.55 193.53 49.38 194.02 49.24 194.44 49.13 194.81 49.01 195.09 48.93 195.29 48.87 195.43 48.81 195.46 48.81 196.11 47.71 196.85 46.6 197.64 45.52 198.49 44.45 199.37 43.37 200.31 42.32 202.27 40.28 204.33 38.33 206.46 36.48 208.59 34.73 210.68 33.11 211.7 32.34 212.73 31.61 213.69 30.93 214.62 30.27 215.5 29.68 216.35 29.11 217.12 28.6 217.86 28.12 218.54 27.72 219.13 27.36 219.64 27.02 220.07 26.76 220.41 26.56 220.69 26.39 220.83 26.31 220.89 26.28 220.01 26.11 219.13 25.99 218.28 25.91 217.46 25.88 215.87 25.91 214.34 26.08 212.92 26.33 211.59 26.7 210.34 27.13 209.24 27.58 208.22 28.09 207.31 28.57 206.55 29.06 205.89 29.48 205.38 29.85 205.18 30.02 205.02 30.16 204.87 30.27 204.79 30.36 204.73 30.39 204.7 30.42"/></svg>
