<svg id="Capa_1" data-name="Capa 1" xmlns="http://www.w3.org/2000/svg" viewBox="0 0 143.3 307.16"><defs><style>.cls-1{fill:#e1dbd4;}</style></defs><path id="Facebook" class="cls-1" d="M174.39,182.49v36.8a5.47,5.47,0,0,1-5.47,5.47h-20a5.46,5.46,0,0,0-5.47,5.46V271a5.47,5.47,0,0,0,5.47,5.46h20a5.47,5.47,0,0,1,5.47,5.46V424.64a5.46,5.46,0,0,0,5.46,5.46h52.69a5.46,5.46,0,0,0,5.46-5.46V281.91a5.47,5.47,0,0,1,5.47-5.46H276a5.45,5.45,0,0,0,5.4-4.67c1.11-7.59,3.3-23.57,4.76-41.32a5.47,5.47,0,0,0-5.44-5.92H243.68a5.46,5.46,0,0,1-5.46-5.46V189.2c0-5.28,6.92-12.42,13.78-12.42h29.23a5.47,5.47,0,0,0,5.47-5.47v-42.9a5.47,5.47,0,0,0-5.47-5.47H239.58C172.82,123,174.39,174.78,174.39,182.49Z" transform="translate(-143.4 -122.94)"/></svg>
