<?xml version="1.0" encoding="utf-8"?>
<!-- Generator: Adobe Illustrator 25.2.3, SVG Export Plug-In . SVG Version: 6.00 Build 0)  -->
<svg version="1.1" xmlns="http://www.w3.org/2000/svg" xmlns:xlink="http://www.w3.org/1999/xlink" x="0px" y="0px"
	 viewBox="0 0 73.6 73.6" style="enable-background:new 0 0 73.6 73.6;" xml:space="preserve">
<style type="text/css">
	.st0{display:none;}
	.st1{display:inline;}
	.st2{fill:#481B68;}
</style>
<g id="Слой_1" class="st0">
	<g id="surface19671200" class="st1">
		<path class="st2" d="M37,7.6C20.6,7.6,7.3,20.9,7.4,37.3c0,5.2,1.4,10.3,3.9,14.8L7.3,67l15.6-3.6C27.2,65.7,32,67,37,67l0,0
			c16.4,0.3,29.9-12.8,30.2-29.2S54.4,7.9,38,7.6C37.6,7.6,37.3,7.6,37,7.6L37,7.6z M37,13.5c13.1,0,23.8,10.6,23.8,23.7
			C60.8,50.3,50.2,61,37.1,61c-4,0-7.9-1-11.4-2.9l-2-1.1l-2.2,0.5l-5.9,1.4l1.4-5.3l0.6-2.4l-1.2-2.1c-6.5-11.4-2.6-25.9,8.7-32.4
			C28.8,14.6,32.9,13.5,37,13.5L37,13.5z M26.5,23.6c-0.8,0-1.5,0.4-2,0.9c-1.7,1.6-2.6,3.8-2.6,6.2c0,3.6,2.6,7.2,3,7.7
			c0.4,0.5,5.1,8.2,12.7,11.2c6.3,2.5,7.5,2,8.9,1.9c1.3-0.1,4.4-1.8,5-3.5c0.5-1.1,0.6-2.3,0.4-3.5c-0.2-0.3-0.7-0.5-1.4-0.9
			s-4.4-2.2-5.1-2.4c-0.7-0.3-1.2-0.4-1.7,0.4s-1.9,2.4-2.3,2.9c-0.4,0.5-0.9,0.6-1.6,0.2c-2.2-0.9-4.2-2.1-6-3.7
			c-1.6-1.5-3-3.2-4.1-5.1c-0.4-0.7,0-1.1,0.3-1.5c0.4-0.4,0.7-0.9,1.1-1.3c0.3-0.4,0.6-0.8,0.7-1.2c0.2-0.4,0.2-0.9-0.1-1.3
			c-0.2-0.4-1.6-4-2.3-5.5c-0.6-1.2-1.1-1.3-1.7-1.3C27.4,23.5,27,23.6,26.5,23.6L26.5,23.6z"/>
	</g>
</g>
<g id="Слой_4" class="st0">
	<g class="st1">
		<path class="st2" d="M37.2,21.5c-8.7,0-15.8,7.1-15.8,15.8S28.5,53,37.2,53S53,45.9,53,37.3S45.9,21.5,37.2,21.5z M37.2,48.3
			c-6.1,0-11-4.9-11-11s4.9-11,11-11s11,4.9,11,11S43.3,48.3,37.2,48.3z"/>
		<path class="st2" d="M49,7.3H25.4c-10,0-18.1,8.2-18.1,18.1v23.7c0,10,8.2,18.1,18.1,18.1H49c10,0,18.1-8.2,18.1-18.1V25.4
			C67.2,15.4,59,7.3,49,7.3z M62.5,49.1c0,7.4-6,13.4-13.4,13.4H25.4c-7.4,0-13.4-6-13.4-13.4V25.4C12,18,18,12,25.4,12H49
			c7.4,0,13.4,6,13.4,13.4V49.1z"/>
		<circle class="st2" cx="53" cy="21.5" r="3.2"/>
	</g>
</g>
<g id="Слой_2">
	<path class="st2" d="M29.6,64.8V39.1c0-1.3-1.3-2.3-2.8-2.3h-6.6c-1.6,0-2.8-1-2.8-2.3V29c0-1.3,1.3-2.3,2.8-2.3h6.6
		c1.6,0,2.8-1,2.8-2.3v-3.1c0-10.3,6.1-14.8,16.5-14.8c2.8,0,4.8,0.1,6.3,0.2c1.5,0.1,2.6,1.1,2.6,2.3v5.2c0,1.3-1.3,2.3-2.8,2.3
		h-4.2c-4.4,0-6,1.9-6,5.8v2c0,1.3,1.3,2.3,2.8,2.3h6.8c1.7,0,3.1,1.3,2.8,2.7l-0.9,5.4c-0.2,1.2-1.4,2-2.8,2h-5.9
		c-1.6,0-2.8,1-2.8,2.3v25.6c0,1.3-1.3,2.3-2.8,2.3h-6.6C30.9,67.1,29.6,66,29.6,64.8z"/>
</g>
<g id="Слой_3" class="st0">
	<g id="surface138882587" class="st1">
		<path class="st2" d="M73.2,57.7c-2.9-5.9-10.7-13.2-13.9-16.3c-0.9-0.8-1-2.3-0.2-3.3c0,0,0,0,0,0c6.1-7.2,11-15.6,12.7-20.6
			c0.6-1.8-0.3-3.7-1.9-4.4c-0.3-0.1-0.7-0.2-1.1-0.2h-6.3c-1.6-0.2-3.1,0.6-3.8,2.1c-5,11.5-9.4,16.5-12.5,19.4
			c-1.1,1.1-2.7,0.9-3.7-0.3c-0.4-0.5-0.7-1.2-0.7-1.9V17c0-2.1-1.6-3.8-3.5-3.8L26.8,13c-0.9-0.1-1.7,0.7-1.8,1.7
			c0,0.5,0.1,1,0.4,1.4l1.9,3c0.7,1,1.1,2.3,1.1,3.6v13.5c0,1.5-1.1,2.6-2.4,2.6c-0.6,0-1.2-0.3-1.7-0.8c-5.2-5.5-9.7-17-11.3-22.4
			C12.5,14,11.2,13,9.7,13H3.5C1.6,13,0,14.7,0,16.8c0,0.3,0,0.7,0.1,1c5.6,21.9,17.2,42.8,37.9,45c1.9,0.2,3.6-1.4,3.8-3.5
			c0-0.1,0-0.2,0-0.3V52c0-2.1,1.5-3.8,3.3-3.8h0.2c5.5,0,11.6,8.8,13.7,12.9c0.6,1.2,1.8,1.9,3,1.8h8.4c1.7,0,3.1-1.6,3.1-3.5
			C73.6,58.8,73.4,58.2,73.2,57.7z"/>
	</g>
</g>
</svg>
