<svg id="Слой_1" data-name="Слой 1" xmlns="http://www.w3.org/2000/svg" viewBox="0 0 27.48 51"><defs><style>.cls-1{fill:none;stroke:#481b68;stroke-miterlimit:10;stroke-width:3px;}</style></defs><path class="cls-1" d="M24,52.15V31.85A1.85,1.85,0,0,0,22.15,30h-4.3A1.85,1.85,0,0,1,16,28.15v-4.3A1.85,1.85,0,0,1,17.85,22h4.3A1.85,1.85,0,0,0,24,20.15V17.7C24,9.57,28,6,34.72,6c1.79,0,3.12.07,4.08.16A1.83,1.83,0,0,1,40.48,8v4.15A1.85,1.85,0,0,1,38.63,14H35.87C33,14,32,15.52,32,18.58v1.57A1.85,1.85,0,0,0,33.85,22h4.43a1.85,1.85,0,0,1,1.83,2.11l-.61,4.3A1.85,1.85,0,0,1,37.66,30H33.85A1.85,1.85,0,0,0,32,31.85v20.3A1.85,1.85,0,0,1,30.15,54h-4.3A1.85,1.85,0,0,1,24,52.15Z" transform="translate(-14.5 -4.5)"/></svg>
