<?xml version="1.0" encoding="UTF-8"?>
<svg xmlns="http://www.w3.org/2000/svg" xmlns:xlink="http://www.w3.org/1999/xlink" viewBox="0 0 96 96" width="96px" height="96px">
<g id="surface19688519">
<path style=" stroke:none;fill-rule:nonzero;fill:rgb(100%,100%,100%);fill-opacity:1;" d="M 48 8 C 25.957031 8 8 25.957031 8 48 C 8 70.042969 25.957031 88 48 88 C 70.042969 88 88 70.042969 88 48 C 88 25.957031 70.042969 8 48 8 Z M 48 16 C 65.71875 16 80 30.28125 80 48 C 80 65.71875 65.71875 80 48 80 C 30.28125 80 16 65.71875 16 48 C 16 30.28125 30.28125 16 48 16 Z M 25.78125 34 C 24.257812 34 24 34.746094 24 35.546875 C 24 36.992188 25.199219 44.785156 31.75 53.75 C 36.496094 60.253906 42.757812 64 48.296875 64 C 51.652344 64 52 63.144531 52 61.8125 L 52 55.867188 C 52 54.261719 52.371094 54 53.4375 54 C 54.203125 54 55.75 54.5 58.75 58 C 62.210938 62.035156 62.835938 64 64.820312 64 L 70.0625 64 C 71.277344 64 71.980469 63.492188 72.007812 62.5 C 72.011719 62.246094 71.976562 61.960938 71.890625 61.648438 C 71.503906 60.496094 69.726562 57.683594 67.507812 55 C 66.277344 53.511719 65.0625 52.039062 64.507812 51.242188 C 64.128906 50.71875 63.984375 50.351562 64 50 C 64.015625 49.632812 64.207031 49.273438 64.5 48.78125 C 64.449219 48.78125 71.214844 39.285156 71.875 36.085938 C 71.96875 35.78125 72.011719 35.496094 72 35.25 C 71.96875 34.527344 71.46875 34 70.296875 34 L 65.0625 34 C 63.742188 34 63.128906 34.796875 62.773438 35.601562 C 62.773438 35.601562 59.515625 42.316406 55.75 46.75 C 54.53125 48.03125 53.910156 48 53.25 48 C 52.898438 48 52 47.574219 52 46.398438 L 52 36.03125 C 52 34.644531 51.660156 34 50.539062 34 L 41.242188 34 C 40.425781 34 40 34.636719 40 35.28125 C 40 36.613281 41.796875 36.941406 42 40.679688 L 42 47.921875 C 42 49.683594 41.699219 50 41.039062 50 C 39.257812 50 35.753906 43.996094 33.40625 36.132812 C 32.898438 34.585938 32.390625 34 31.070312 34 Z M 25.78125 34 "/>
</g>
</svg>
