<?xml version="1.0" encoding="UTF-8"?>
<svg xmlns="http://www.w3.org/2000/svg" xmlns:xlink="http://www.w3.org/1999/xlink" viewBox="0 0 96 96" width="96px" height="96px">
<g id="surface19673226">
<path style=" stroke:none;fill-rule:nonzero;fill:rgb(100%,100%,100%);fill-opacity:1;" d="M 48 8 C 25.90625 8 8 25.90625 8 48 C 8 70.09375 25.90625 88 48 88 C 70.09375 88 88 70.09375 88 48 C 88 25.90625 70.09375 8 48 8 Z M 48 16 C 65.671875 16 80 30.328125 80 48 C 80 63.738281 68.625 76.792969 53.65625 79.46875 L 53.65625 60.140625 L 63.117188 60.140625 L 64.523438 49.242188 L 53.71875 49.242188 L 53.71875 42.296875 C 53.71875 39.144531 54.597656 37.015625 59.117188 37.015625 L 64.828125 37.015625 L 64.828125 27.289062 C 62.046875 27.003906 59.257812 26.867188 56.460938 26.875 C 48.164062 26.875 42.484375 31.9375 42.484375 41.234375 L 42.484375 49.257812 L 33.109375 49.257812 L 33.109375 60.15625 L 42.484375 60.15625 L 42.484375 79.492188 C 27.445312 76.871094 16 63.785156 16 48 C 16 30.328125 30.328125 16 48 16 Z M 48 16 "/>
</g>
</svg>
