<?xml version="1.0" encoding="UTF-8"?>
<svg xmlns="http://www.w3.org/2000/svg" xmlns:xlink="http://www.w3.org/1999/xlink" viewBox="0 0 90 90" width="90px" height="90px">
<g id="surface129526146">
<path style=" stroke:none;fill-rule:nonzero;fill:rgb(100%,100%,100%);fill-opacity:1;" d="M 45 6 C 23.496094 6 6 23.496094 6 45 C 6 66.503906 23.496094 84 45 84 C 66.503906 84 84 66.503906 84 45 C 84 23.496094 66.503906 6 45 6 Z M 35 18 L 54.996094 18 C 64.371094 18 72 25.625 72 35 L 72 54.996094 C 72 64.371094 64.375 72 55.003906 72 L 35.003906 72 C 25.628906 72 18 64.375 18 55.003906 L 18 35.003906 C 18 25.628906 25.625 18 35 18 Z M 35 24 C 28.933594 24 24 28.9375 24 35.003906 L 24 55.003906 C 24 61.066406 28.9375 66 35.003906 66 L 55.003906 66 C 61.066406 66 66 61.0625 66 54.996094 L 66 35 C 66 28.933594 61.0625 24 54.996094 24 Z M 59.003906 29 C 60.109375 29 61 29.890625 61 30.996094 C 61 32.101562 60.109375 33 59.003906 33 C 57.898438 33 57 32.101562 57 30.996094 C 57 29.890625 57.898438 29 59.003906 29 Z M 45 30 C 53.269531 30 60 36.730469 60 45 C 60 53.269531 53.269531 60 45 60 C 36.730469 60 30 53.269531 30 45 C 30 36.730469 36.730469 30 45 30 Z M 45 36 C 40.03125 36 36 40.03125 36 45 C 36 49.96875 40.03125 54 45 54 C 49.96875 54 54 49.96875 54 45 C 54 40.03125 49.96875 36 45 36 Z M 45 36 "/>
</g>
</svg>
