<svg id="Слой_1" data-name="Слой 1" xmlns="http://www.w3.org/2000/svg" viewBox="0 0 38 38"><defs><style>.cls-1{fill:#481b68;}</style></defs><path class="cls-1" d="M24,13.21a10,10,0,1,0,10,10A10,10,0,0,0,24,13.21Zm0,17a7,7,0,1,1,7-7A7,7,0,0,1,24,30.21Z" transform="translate(-5 -4.21)"/><path class="cls-1" d="M31.5,4.21h-15A11.52,11.52,0,0,0,5,15.71v15a11.53,11.53,0,0,0,11.5,11.5h15A11.53,11.53,0,0,0,43,30.71v-15A11.52,11.52,0,0,0,31.5,4.21ZM40,30.71a8.48,8.48,0,0,1-8.5,8.5h-15A8.48,8.48,0,0,1,8,30.71v-15a8.47,8.47,0,0,1,8.5-8.5h15a8.47,8.47,0,0,1,8.5,8.5Z" transform="translate(-5 -4.21)"/><circle class="cls-1" cx="29" cy="9" r="2"/></svg>
