<svg id="Слой_1" data-name="Слой 1" xmlns="http://www.w3.org/2000/svg" viewBox="0 0 59.8 59.9"><defs><style>.cls-1{fill:#e1dbd4;}</style></defs><g id="Слой_4" data-name="Слой 4"><path class="cls-1" d="M37.2,21.5A15.75,15.75,0,1,0,53,37.3,15.83,15.83,0,0,0,37.2,21.5Zm0,26.8a11,11,0,1,1,11-11A11,11,0,0,1,37.2,48.3Z" transform="translate(-7.3 -7.3)"/><path class="cls-1" d="M49,7.3H25.4A18.16,18.16,0,0,0,7.3,25.4V49.1A18.16,18.16,0,0,0,25.4,67.2H49A18.16,18.16,0,0,0,67.1,49.1V25.4A18,18,0,0,0,49,7.3ZM62.5,49.1A13.4,13.4,0,0,1,49.1,62.5H25.4A13.4,13.4,0,0,1,12,49.1V25.4A13.4,13.4,0,0,1,25.4,12H49A13.4,13.4,0,0,1,62.4,25.4V49.1Z" transform="translate(-7.3 -7.3)"/><circle class="cls-1" cx="45.7" cy="14.2" r="3.2"/></g></svg>
