<svg id="Слой_1_копия_" data-name="Слой 1 (копия)" xmlns="http://www.w3.org/2000/svg" viewBox="0 0 38 38"><defs><style>.cls-1{fill:#481b68;}</style></defs><path class="cls-1" d="M5,14.3V32.11a10.07,10.07,0,0,0,10.09,10.1H32.91A10.07,10.07,0,0,0,43,32.11V14.3A10.07,10.07,0,0,0,32.91,4.21H15.09A10.07,10.07,0,0,0,5,14.3ZM35.88,9a2.38,2.38,0,1,1-2.38,2.37A2.37,2.37,0,0,1,35.88,9ZM24,11.33A11.88,11.88,0,1,1,12.13,23.21,11.91,11.91,0,0,1,24,11.33Z" transform="translate(-5 -4.21)"/><circle class="cls-1" cx="19" cy="19" r="8.31"/></svg>
