<svg id="vk-light_Изображение" data-name="vk-light Изображение" xmlns="http://www.w3.org/2000/svg" viewBox="0 0 323.58 183.97"><defs><style>.cls-1{fill:#e1dad3;}</style></defs><path class="cls-1" d="M4.51,8.42c15.56-2.17,38.18,1.35,46,2.72a5.17,5.17,0,0,1,3.86,3C57,20.06,64,35.61,72,51.87c11.86,24.1,34.58,50,45.18,46.59,7.18-2.29,13.18-19.43,4.48-90.79a5.2,5.2,0,0,1,4.28-5.77,136.7,136.7,0,0,1,51,1A5.21,5.21,0,0,1,181,8c.11,75.55,10.63,88.27,17.66,89.72,11.55,2.4,29.11-22,39.53-40.23A442.52,442.52,0,0,0,260.58,12.4a5.2,5.2,0,0,1,3.26-2.94,95.31,95.31,0,0,1,15.39-3.52,98.13,98.13,0,0,1,40.58,2.89,5.2,5.2,0,0,1,3.57,6.43,5.08,5.08,0,0,1-.66,1.44c-2.58,4-5.78,8.85-9.44,14.34-37.59,56.3-46.71,60.64-45.09,73.46,1.95,15.49,16,15.32,45.17,55.41,3.17,4.36,5.93,8.39,8.27,11.93a5.2,5.2,0,0,1-1.45,7.21,5.29,5.29,0,0,1-2.61.86c-7.42.41-16.49.67-26.8.47-18-.34-26.94-.51-32.73-2.25-31.38-9.39-37.26-46.07-54.55-43.73-8.29,1.12-13.91,10.5-16.13,14.22-8.18,13.68-1.59,23.89-6.7,30.35-8.91,11.27-46.56,2.48-77.55-17.1C70.72,141.4,53.75,113,28.19,69.21A600.07,600.07,0,0,1,.48,15.76a5.22,5.22,0,0,1,4-7.34Z" transform="translate(-0.01 0.03)"/></svg>
