<svg id="Слой_1" data-name="Слой 1" xmlns="http://www.w3.org/2000/svg" viewBox="0 0 44 27.01"><defs><style>.cls-1{fill:#481b68;}</style></defs><g id="surface138882587"><path class="cls-1" d="M45.76,35.2C44,32,39.34,28.08,37.43,26.39a1.25,1.25,0,0,1-.11-1.78c3.65-3.91,6.57-8.42,7.57-11.14A1.85,1.85,0,0,0,43.13,11H39.37a2.31,2.31,0,0,0-2.3,1.15c-3,6.21-5.64,8.9-7.46,10.47A1.57,1.57,0,0,1,27,21.43V13.15a2.09,2.09,0,0,0-2.1-2.07L18.05,11a1,1,0,0,0-.83,1.66l1.13,1.63A3.21,3.21,0,0,1,19,16.24v7.31a1.44,1.44,0,0,1-2.46,1c-3.1-3-5.79-9.18-6.75-12.13A2.1,2.1,0,0,0,7.8,11H4.1a2.08,2.08,0,0,0-2,2.64C5.46,25.49,12.39,36.77,24.74,38A2.08,2.08,0,0,0,27,35.92V32.07A2.06,2.06,0,0,1,29,30h.12c3.27,0,6.93,4.76,8.21,7a2.07,2.07,0,0,0,1.8,1h5A1.89,1.89,0,0,0,45.76,35.2Z" transform="translate(-2 -10.99)"/></g></svg>
