<svg id="vk-light_Изображение" data-name="vk-light Изображение" xmlns="http://www.w3.org/2000/svg" viewBox="0 0 323.56 183.92"><defs><style>.cls-1{fill:#481b68;}</style></defs><path class="cls-1" d="M16.67,16.72c15.56-2.17,38.18,1.35,46,2.72a5.18,5.18,0,0,1,3.86,3c2.62,5.92,9.6,21.47,17.6,37.73,11.86,24.1,34.58,50,45.18,46.59,7.18-2.29,13.18-19.43,4.48-90.79a5.21,5.21,0,0,1,4.28-5.77,136.74,136.74,0,0,1,51,1,5.21,5.21,0,0,1,4.12,5.1c.11,75.55,10.63,88.27,17.66,89.72,11.55,2.4,29.11-22,39.53-40.23A443.3,443.3,0,0,0,272.74,20.7,5.2,5.2,0,0,1,276,17.76a95.64,95.64,0,0,1,15.39-3.52,98.06,98.06,0,0,1,40.58,2.89A5.2,5.2,0,0,1,334.88,25c-2.58,4-5.78,8.85-9.44,14.34-37.59,56.3-46.71,60.64-45.09,73.46,1.95,15.49,16,15.32,45.17,55.41,3.17,4.36,5.93,8.39,8.27,11.93a5.2,5.2,0,0,1-4.06,8.07c-7.42.41-16.49.67-26.8.47-18-.34-26.94-.51-32.73-2.25-31.38-9.39-37.26-46.07-54.55-43.73-8.29,1.12-13.91,10.5-16.13,14.22-8.18,13.68-1.59,23.89-6.7,30.35-8.91,11.27-46.56,2.48-77.55-17.1-32.39-20.47-49.36-48.83-74.92-92.66C28.14,56.55,19,38.06,12.64,24.06A5.22,5.22,0,0,1,16.67,16.72Z" transform="translate(-12.16 -8.3)"/></svg>
