<svg id="Слой_1" data-name="Слой 1" xmlns="http://www.w3.org/2000/svg" viewBox="0 0 89.88 56.64"><defs><style>.cls-1{fill:none;stroke:#481b68;stroke-miterlimit:10;stroke-width:5px;}</style></defs><g id="surface138882587"><path class="cls-1" d="M90,69.72C86.52,63.54,77.59,56.1,73.9,52.87a2.36,2.36,0,0,1-.19-3.4c7-7.49,12.66-16.1,14.59-21.3a3.55,3.55,0,0,0-3.4-4.73H77.65c-2.38,0-3.78.85-4.44,2.21-5.85,11.87-10.87,17-14.38,20a3,3,0,0,1-5-2.27V27.56a4,4,0,0,0-4-4l-13.23-.15a2,2,0,0,0-1.61,3.18l2.18,3.1a6.14,6.14,0,0,1,1.27,3.74v14a2.79,2.79,0,0,1-4.75,1.92c-6-5.78-11.16-17.56-13-23.19a4,4,0,0,0-3.83-2.74H9.61a4,4,0,0,0-3.9,5C12.23,51.15,25.6,72.71,49.43,75.05a4,4,0,0,0,4.37-4V63.73a4,4,0,0,1,3.82-4h.22c6.3,0,13.36,9.09,15.84,13.34a4,4,0,0,0,3.46,2h9.6A3.62,3.62,0,0,0,90,69.72Z" transform="translate(-3.06 -20.93)"/></g></svg>
