<svg id="Слой_1" data-name="Слой 1" xmlns="http://www.w3.org/2000/svg" viewBox="0 0 73.59 73.6"><defs><style>.cls-1{fill:#481b68;}</style></defs><g id="surface19671200"><path class="cls-1" d="M49.65,9.93A36.76,36.76,0,0,0,17.79,65l-5,18.48L32.06,79a36.67,36.67,0,0,0,17.56,4.47h0a36.76,36.76,0,1,0,0-73.51Zm0,7.36a29.4,29.4,0,1,1-14,55.22l-2.48-1.35-2.74.65-7.25,1.71L24.89,67l.8-3-1.52-2.64A29.39,29.39,0,0,1,49.64,17.29Zm-13,12.42a3.36,3.36,0,0,0-2.45,1.15A10.21,10.21,0,0,0,31,38.51C31,43,34.26,47.4,34.72,48s6.35,10.18,15.69,13.86c7.76,3.06,9.33,2.45,11,2.3s5.44-2.22,6.21-4.36a7.86,7.86,0,0,0,.54-4.37c-.23-.38-.84-.61-1.76-1.07s-5.44-2.68-6.28-3-1.46-.46-2.07.46-2.36,3-2.9,3.6-1.07.69-2,.23a25.09,25.09,0,0,1-7.39-4.56,27.71,27.71,0,0,1-5.11-6.35c-.53-.92-.05-1.42.41-1.88s.91-1.07,1.37-1.61a6.17,6.17,0,0,0,.92-1.53,1.68,1.68,0,0,0-.08-1.61c-.22-.46-2-5-2.83-6.81-.69-1.53-1.42-1.57-2.07-1.59S37.25,29.71,36.64,29.71Z" transform="translate(-12.8 -9.93)"/></g></svg>
