<svg id="Слой_1" data-name="Слой 1" xmlns="http://www.w3.org/2000/svg" viewBox="0 0 76.12 75.88"><defs><style>.cls-1{fill:#481b68;}</style></defs><path class="cls-1" d="M50.37,8.76A37.56,37.56,0,0,0,18.05,65.47h0q-3.1,9.59-6.22,19.18l21.16-5h0A37.57,37.57,0,1,0,50.37,8.76ZM68.46,59.43c-.77,2.14-4.52,4.21-6.2,4.36s-3.26.76-11-2.3C41.9,57.81,36,48.24,35.55,47.63s-3.75-5-3.75-9.5A10.25,10.25,0,0,1,35,30.48a3.38,3.38,0,0,1,2.45-1.15c.61,0,1.22,0,1.75,0s1.39.06,2.07,1.59c.82,1.82,2.61,6.35,2.84,6.81a1.71,1.71,0,0,1,.07,1.61,6.17,6.17,0,0,1-.92,1.53c-.46.54-1,1.2-1.37,1.61s-.94,1-.41,1.88a27.71,27.71,0,0,0,5.11,6.35A25.09,25.09,0,0,0,54,55.29c.92.46,1.45.38,2-.23s2.29-2.68,2.9-3.6S60.12,50.7,61,51s5.36,2.53,6.28,3,1.53.69,1.76,1.07A7.66,7.66,0,0,1,68.46,59.43Z" transform="translate(-11.82 -8.76)"/></svg>
