<svg id="Слой_1" data-name="Слой 1" xmlns="http://www.w3.org/2000/svg" viewBox="0 0 59.91 59.41"><defs><style>.cls-1{fill:#e1dbd4;}</style></defs><g id="Слой_1-2" data-name="Слой 1"><g id="surface19671200"><path class="cls-1" d="M37,7.6A29.55,29.55,0,0,0,7.4,37.3a30.57,30.57,0,0,0,3.9,14.8L7.3,67l15.6-3.6A29.84,29.84,0,0,0,37,67h0A29.7,29.7,0,0,0,38,7.6Zm0,5.9A23.75,23.75,0,1,1,25.7,58.1l-2-1.1-2.2.5-5.9,1.4L17,53.6l.6-2.4-1.2-2.1a23.78,23.78,0,0,1,8.7-32.4A24.14,24.14,0,0,1,37,13.5ZM26.5,23.6a2.88,2.88,0,0,0-2,.9,8.38,8.38,0,0,0-2.6,6.2c0,3.6,2.6,7.2,3,7.7S30,46.6,37.6,49.6c6.3,2.5,7.5,2,8.9,1.9s4.4-1.8,5-3.5a6,6,0,0,0,.4-3.5,4.77,4.77,0,0,0-1.4-.9c-.7-.4-4.4-2.2-5.1-2.4s-1.2-.4-1.7.4-1.9,2.4-2.3,2.9a1.1,1.1,0,0,1-1.6.2,20.71,20.71,0,0,1-6-3.7,22.41,22.41,0,0,1-4.1-5.1c-.4-.7,0-1.1.3-1.5s.7-.9,1.1-1.3a3.75,3.75,0,0,0,.7-1.2,1.23,1.23,0,0,0-.1-1.3c-.2-.4-1.6-4-2.3-5.5-.6-1.2-1.1-1.3-1.7-1.3-.3-.3-.7-.2-1.2-.2Z" transform="translate(-7.3 -7.6)"/></g></g></svg>
