<svg id="Слой_1" data-name="Слой 1" xmlns="http://www.w3.org/2000/svg" viewBox="0 0 38 38"><defs><style>.cls-1{fill:#481b68;}</style></defs><g id="surface138912796"><path class="cls-1" d="M16.5,5A11.53,11.53,0,0,0,5,16.5v15A11.53,11.53,0,0,0,16.5,43h15A11.53,11.53,0,0,0,43,31.5v-15A11.53,11.53,0,0,0,31.5,5Zm0,3h15A8.48,8.48,0,0,1,40,16.5v15A8.48,8.48,0,0,1,31.5,40h-15A8.48,8.48,0,0,1,8,31.5v-15A8.48,8.48,0,0,1,16.5,8ZM34,12a2,2,0,1,0,2,2A2,2,0,0,0,34,12ZM24,14A10,10,0,1,0,34,24,10,10,0,0,0,24,14Zm0,3a7,7,0,1,1-7,7A7,7,0,0,1,24,17Z" transform="translate(-5 -5)"/></g></svg>
