<svg id="Слой_1" data-name="Слой 1" xmlns="http://www.w3.org/2000/svg" viewBox="0 0 79.99 80"><defs><style>.cls-1{fill:#481b68;}</style></defs><g id="surface19671200"><path class="cls-1" d="M48.05,8A40,40,0,0,0,13.42,67.91L8,88l20.93-5A39.83,39.83,0,0,0,48,87.91h0A40,40,0,0,0,48.05,8Zm0,8A32,32,0,1,1,32.77,76l-2.7-1.47-3,.71-7.87,1.86L21.14,70l.87-3.2-1.66-2.87A32,32,0,0,1,48,16ZM33.91,29.5a3.68,3.68,0,0,0-2.67,1.25,11.2,11.2,0,0,0-3.5,8.32c0,4.91,3.58,9.66,4.08,10.33s6.91,11.06,17.06,15.06c8.43,3.33,10.14,2.67,12,2.5s5.91-2.41,6.74-4.74.84-4.34.59-4.75-.91-.67-1.91-1.17-5.91-2.91-6.82-3.24-1.59-.5-2.25.5S54.63,56.8,54,57.47s-1.16.76-2.16.26a27.92,27.92,0,0,1-8-5,30.55,30.55,0,0,1-5.55-6.91c-.58-1-.06-1.54.44-2s1-1.16,1.5-1.75a7.64,7.64,0,0,0,1-1.66,1.85,1.85,0,0,0-.09-1.75c-.25-.5-2.19-5.43-3.08-7.41-.74-1.66-1.54-1.7-2.25-1.73S34.57,29.5,33.91,29.5Z" transform="translate(-8 -8)"/></g></svg>
